NotoSansTamil-SemiBold.ufo
<glyph name="quotesingle.tamil" format="2">
  <advance width="273"/>
  <unicode hex="0027"/>
  <outline>
    <contour>
      <point x="88" y="542" type="line"/>
      <point x="185" y="542" type="line"/>
      <point x="205" y="800" type="line"/>
      <point x="68" y="800" type="line"/>
    </contour>
  </outline>
</glyph>
<glyph name="parenleft.tamil" format="2">
  <advance width="349"/>
  <unicode hex="0028"/>
  <outline>
    <contour>
      <point x="49" y="282" type="curve" smooth="yes"/>
      <point x="49" y="100"/>
      <point x="98" y="-104"/>
      <point x="198" y="-244" type="curve"/>
      <point x="320" y="-244" type="line"/>
      <point x="229" y="-94"/>
      <point x="179" y="100"/>
      <point x="179" y="281" type="curve" smooth="yes"/>
      <point x="179" y="462"/>
      <point x="235" y="663"/>
      <point x="319" y="800" type="curve"/>
      <point x="198" y="800" type="line"/>
      <point x="102" y="673"/>
      <point x="49" y="459"/>
    </contour>
  </outline>
</glyph>
<glyph name="asterisk.tamil" format="2">
  <advance width="553"/>
  <unicode hex="002A"/>
  <outline>
    <contour>
      <point x="340" y="800" type="line"/>
      <point x="212" y="800" type="line"/>
      <point x="232" y="621" type="line"/>
      <point x="54" y="671" type="line"/>
      <point x="35" y="549" type="line"/>
      <point x="200" y="537" type="line"/>
      <point x="92" y="392" type="line"/>
      <point x="207" y="333" type="line"/>
      <point x="274" y="485" type="line"/>
      <point x="350" y="333" type="line"/>
      <point x="461" y="392" type="line"/>
      <point x="352" y="537" type="line"/>
      <point x="518" y="548" type="line"/>
      <point x="502" y="671" type="line"/>
      <point x="320" y="621" type="line"/>
    </contour>
  </outline>
</glyph>
<glyph name="plus.tamil" format="2">
  <advance width="572"/>
  <unicode hex="002B"/>
  <outline>
    <contour>
      <point x="232" y="111" type="line"/>
      <point x="339" y="111" type="line"/>
      <point x="339" y="299" type="line"/>
      <point x="528" y="299" type="line"/>
      <point x="528" y="406" type="line"/>
      <point x="339" y="406" type="line"/>
      <point x="339" y="596" type="line"/>
      <point x="232" y="596" type="line"/>
      <point x="232" y="406" type="line"/>
      <point x="43" y="406" type="line"/>
      <point x="43" y="299" type="line"/>
      <point x="232" y="299" type="line"/>
    </contour>
  </outline>
</glyph>
<glyph name="hyphen.tamil" format="2">
  <advance width="322"/>
  <unicode hex="002D"/>
  <outline>
    <contour>
      <point x="30" y="242" type="line"/>
      <point x="292" y="242" type="line"/>
      <point x="292" y="364" type="line"/>
      <point x="30" y="364" type="line"/>
    </contour>
  </outline>
</glyph>
<glyph name="slash.tamil" format="2">
  <advance width="426"/>
  <unicode hex="002F"/>
  <outline>
    <contour>
      <point x="17" y="-244" type="line"/>
      <point x="143" y="-244" type="line"/>
      <point x="409" y="800" type="line"/>
      <point x="283" y="800" type="line"/>
    </contour>
  </outline>
</glyph>
<glyph name="equal.tamil" format="2">
  <advance width="572"/>
  <unicode hex="003D"/>
  <outline>
    <contour>
      <point x="43" y="196" type="line"/>
      <point x="528" y="196" type="line"/>
      <point x="528" y="303" type="line"/>
      <point x="43" y="303" type="line"/>
    </contour>
    <contour>
      <point x="43" y="402" type="line"/>
      <point x="528" y="402" type="line"/>
      <point x="528" y="508" type="line"/>
      <point x="43" y="508" type="line"/>
    </contour>
  </outline>
</glyph>
<glyph name="uni00B2" format="2">
  <advance width="350"/>
  <unicode hex="00B2"/>
  <outline>
    <contour>
      <point x="19" y="369" type="line"/>
      <point x="334" y="369" type="line"/>
      <point x="334" y="467" type="line"/>
      <point x="163" y="467" type="line"/>
      <point x="214" y="513" type="line" smooth="yes"/>
      <point x="292" y="584"/>
      <point x="323" y="625"/>
      <point x="323" y="685" type="curve" smooth="yes"/>
      <point x="323" y="764"/>
      <point x="265" y="807"/>
      <point x="179" y="807" type="curve" smooth="yes"/>
      <point x="108" y="807"/>
      <point x="57" y="781"/>
      <point x="15" y="744" type="curve"/>
      <point x="75" y="670" type="line"/>
      <point x="109" y="700"/>
      <point x="137" y="713"/>
      <point x="163" y="713" type="curve" smooth="yes"/>
      <point x="188" y="713"/>
      <point x="206" y="699"/>
      <point x="206" y="675" type="curve" smooth="yes"/>
      <point x="206" y="640"/>
      <point x="187" y="616"/>
      <point x="128" y="558" type="curve" smooth="yes"/>
      <point x="19" y="451" type="line"/>
    </contour>
  </outline>
</glyph>
<glyph name="uni00B3" format="2">
  <advance width="335"/>
  <unicode hex="00B3"/>
  <outline>
    <contour>
      <point x="154" y="361" type="curve" smooth="yes"/>
      <point x="274" y="361"/>
      <point x="325" y="409"/>
      <point x="325" y="488" type="curve"/>
      <point x="325" y="534"/>
      <point x="294" y="576"/>
      <point x="228" y="590" type="curve"/>
      <point x="228" y="594" type="line"/>
      <point x="289" y="614"/>
      <point x="313" y="648"/>
      <point x="313" y="693" type="curve" smooth="yes"/>
      <point x="313" y="762"/>
      <point x="255" y="806"/>
      <point x="172" y="806" type="curve" smooth="yes"/>
      <point x="103" y="806"/>
      <point x="56" y="783"/>
      <point x="16" y="753" type="curve"/>
      <point x="65" y="684" type="line"/>
      <point x="98" y="708"/>
      <point x="126" y="718"/>
      <point x="154" y="718" type="curve" smooth="yes"/>
      <point x="185" y="718"/>
      <point x="203" y="703"/>
      <point x="203" y="677" type="curve" smooth="yes"/>
      <point x="203" y="652"/>
      <point x="189" y="626"/>
      <point x="126" y="626" type="curve" smooth="yes"/>
      <point x="81" y="626" type="line"/>
      <point x="81" y="548" type="line"/>
      <point x="136" y="548" type="line" smooth="yes"/>
      <point x="196" y="548"/>
      <point x="212" y="523"/>
      <point x="212" y="496" type="curve" smooth="yes"/>
      <point x="212" y="464"/>
      <point x="192" y="448"/>
      <point x="145" y="448" type="curve" smooth="yes"/>
      <point x="100" y="448"/>
      <point x="58" y="463"/>
      <point x="15" y="489" type="curve"/>
      <point x="15" y="395" type="line"/>
      <point x="57" y="372"/>
      <point x="105" y="361"/>
    </contour>
  </outline>
</glyph>
<glyph name="uni0952" format="2">
  <unicode hex="0952"/>
  <outline>
    <contour>
      <point x="-39" y="-183" type="line"/>
      <point x="-39" y="-92" type="line"/>
      <point x="-518" y="-92" type="line"/>
      <point x="-518" y="-183" type="line"/>
    </contour>
  </outline>
</glyph>
<glyph name="danda.tamil" format="2">
  <advance width="388"/>
  <unicode hex="0964"/>
  <outline>
    <contour>
      <point x="158" y="-49" type="line"/>
      <point x="308" y="-49" type="line"/>
      <point x="308" y="603" type="line"/>
      <point x="158" y="603" type="line"/>
    </contour>
  </outline>
</glyph>
<glyph name="dbldanda.tamil" format="2">
  <advance width="681"/>
  <unicode hex="0965"/>
  <outline>
    <contour>
      <point x="452" y="-49" type="line"/>
      <point x="601" y="-49" type="line"/>
      <point x="601" y="603" type="line"/>
      <point x="452" y="603" type="line"/>
    </contour>
    <contour>
      <point x="158" y="-49" type="line"/>
      <point x="308" y="-49" type="line"/>
      <point x="308" y="603" type="line"/>
      <point x="158" y="603" type="line"/>
    </contour>
  </outline>
</glyph>
<glyph name="anusvaratamil" format="2">
  <advance width="380"/>
  <unicode hex="0B82"/>
  <outline>
    <contour>
      <point x="46" y="714" type="curve" smooth="yes"/>
      <point x="46" y="638"/>
      <point x="103" y="580"/>
      <point x="189" y="580" type="curve" smooth="yes"/>
      <point x="276" y="580"/>
      <point x="334" y="638"/>
      <point x="334" y="714" type="curve" smooth="yes"/>
      <point x="334" y="792"/>
      <point x="276" y="851"/>
      <point x="189" y="851" type="curve" smooth="yes"/>
      <point x="103" y="851"/>
      <point x="46" y="792"/>
    </contour>
    <contour>
      <point x="138" y="714" type="curve" smooth="yes"/>
      <point x="138" y="746"/>
      <point x="158" y="770"/>
      <point x="189" y="770" type="curve" smooth="yes"/>
      <point x="222" y="770"/>
      <point x="242" y="746"/>
      <point x="242" y="714" type="curve" smooth="yes"/>
      <point x="242" y="684"/>
      <point x="222" y="661"/>
      <point x="189" y="661" type="curve" smooth="yes"/>
      <point x="158" y="661"/>
      <point x="138" y="684"/>
    </contour>
  </outline>
</glyph>
<glyph name="visargatamil" format="2">
  <advance width="989"/>
  <unicode hex="0B83"/>
  <outline>
    <contour>
      <point x="253" y="-12" type="curve" smooth="yes"/>
      <point x="379" y="-12"/>
      <point x="459" y="60"/>
      <point x="459" y="179" type="curve" smooth="yes"/>
      <point x="459" y="296"/>
      <point x="379" y="370"/>
      <point x="251" y="370" type="curve" smooth="yes"/>
      <point x="124" y="370"/>
      <point x="42" y="298"/>
      <point x="42" y="179" type="curve" smooth="yes"/>
      <point x="42" y="61"/>
      <point x="121" y="-12"/>
    </contour>
    <contour>
      <point x="251" y="92" type="curve" smooth="yes"/>
      <point x="207" y="92"/>
      <point x="177" y="121"/>
      <point x="177" y="178" type="curve" smooth="yes"/>
      <point x="177" y="237"/>
      <point x="207" y="266"/>
      <point x="251" y="266" type="curve" smooth="yes"/>
      <point x="292" y="266"/>
      <point x="324" y="238"/>
      <point x="324" y="179" type="curve" smooth="yes"/>
      <point x="324" y="120"/>
      <point x="295" y="92"/>
    </contour>
    <contour>
      <point x="742" y="-12" type="curve" smooth="yes"/>
      <point x="867" y="-12"/>
      <point x="947" y="60"/>
      <point x="947" y="179" type="curve" smooth="yes"/>
      <point x="947" y="296"/>
      <point x="867" y="370"/>
      <point x="740" y="370" type="curve" smooth="yes"/>
      <point x="613" y="370"/>
      <point x="530" y="298"/>
      <point x="530" y="179" type="curve" smooth="yes"/>
      <point x="530" y="61"/>
      <point x="609" y="-12"/>
    </contour>
    <contour>
      <point x="740" y="92" type="curve" smooth="yes"/>
      <point x="695" y="92"/>
      <point x="665" y="121"/>
      <point x="665" y="178" type="curve" smooth="yes"/>
      <point x="665" y="237"/>
      <point x="695" y="266"/>
      <point x="739" y="266" type="curve" smooth="yes"/>
      <point x="781" y="266"/>
      <point x="812" y="238"/>
      <point x="812" y="179" type="curve" smooth="yes"/>
      <point x="812" y="120"/>
      <point x="783" y="92"/>
    </contour>
    <contour>
      <point x="498" y="469" type="curve" smooth="yes"/>
      <point x="623" y="469"/>
      <point x="703" y="542"/>
      <point x="703" y="660" type="curve" smooth="yes"/>
      <point x="703" y="777"/>
      <point x="623" y="851"/>
      <point x="496" y="851" type="curve" smooth="yes"/>
      <point x="369" y="851"/>
      <point x="286" y="779"/>
      <point x="286" y="660" type="curve" smooth="yes"/>
      <point x="286" y="542"/>
      <point x="365" y="469"/>
    </contour>
    <contour>
      <point x="496" y="573" type="curve" smooth="yes"/>
      <point x="451" y="573"/>
      <point x="421" y="602"/>
      <point x="421" y="659" type="curve" smooth="yes"/>
      <point x="421" y="718"/>
      <point x="451" y="747"/>
      <point x="495" y="747" type="curve" smooth="yes"/>
      <point x="537" y="747"/>
      <point x="568" y="719"/>
      <point x="568" y="660" type="curve" smooth="yes"/>
      <point x="568" y="601"/>
      <point x="539" y="573"/>
    </contour>
  </outline>
</glyph>
<glyph name="atamil" format="2">
  <advance width="1220"/>
  <unicode hex="0B85"/>
  <outline>
    <contour>
      <point x="352" y="-141" type="curve" smooth="yes"/>
      <point x="370" y="-141" type="line"/>
      <point x="628" y="-141"/>
      <point x="815" y="-40"/>
      <point x="875" y="128" type="curve"/>
      <point x="875" y="164" type="line"/>
      <point x="880" y="190"/>
      <point x="884" y="218"/>
      <point x="884" y="247" type="curve" smooth="yes"/>
      <point x="884" y="414"/>
      <point x="772" y="574"/>
      <point x="536" y="574" type="curve" smooth="yes"/>
      <point x="398" y="574"/>
      <point x="292" y="519"/>
      <point x="292" y="392" type="curve" smooth="yes"/>
      <point x="292" y="281"/>
      <point x="381" y="228"/>
      <point x="483" y="228" type="curve" smooth="yes"/>
      <point x="621" y="228"/>
      <point x="673" y="301"/>
      <point x="673" y="394" type="curve" smooth="yes"/>
      <point x="673" y="473"/>
      <point x="637" y="521"/>
      <point x="604" y="552" type="curve"/>
      <point x="499" y="536" type="line"/>
      <point x="528" y="500"/>
      <point x="556" y="459"/>
      <point x="556" y="408" type="curve" smooth="yes"/>
      <point x="556" y="349"/>
      <point x="526" y="331"/>
      <point x="492" y="331" type="curve" smooth="yes"/>
      <point x="451" y="331"/>
      <point x="427" y="357"/>
      <point x="427" y="398" type="curve" smooth="yes"/>
      <point x="427" y="458"/>
      <point x="477" y="473"/>
      <point x="533" y="473" type="curve" smooth="yes"/>
      <point x="548" y="473"/>
      <point x="565" y="472"/>
      <point x="580" y="470" type="curve"/>
      <point x="696" y="449"/>
      <point x="741" y="356"/>
      <point x="741" y="244" type="curve" smooth="yes"/>
      <point x="741" y="221"/>
      <point x="740" y="194"/>
      <point x="733" y="169" type="curve"/>
      <point x="730" y="141" type="line"/>
      <point x="688" y="42"/>
      <point x="583" y="-34"/>
      <point x="381" y="-34" type="curve" smooth="yes"/>
      <point x="369" y="-34" type="line" smooth="yes"/>
      <point x="230" y="-34"/>
      <point x="169" y="-1"/>
      <point x="169" y="49" type="curve" smooth="yes"/>
      <point x="169" y="61"/>
      <point x="173" y="68"/>
      <point x="180" y="75" type="curve" smooth="yes"/>
      <point x="189" y="83"/>
      <point x="205" y="86"/>
      <point x="238" y="86" type="curve" smooth="yes"/>
      <point x="999" y="86" type="line"/>
      <point x="1000" y="192" type="line"/>
      <point x="227" y="192" type="line" smooth="yes"/>
      <point x="145" y="192"/>
      <point x="103" y="183"/>
      <point x="75" y="163" type="curve" smooth="yes"/>
      <point x="39" y="138"/>
      <point x="25" y="101"/>
      <point x="25" y="63" type="curve" smooth="yes"/>
      <point x="25" y="-57"/>
      <point x="141" y="-141"/>
    </contour>
    <contour>
      <point x="991" y="-154" type="line"/>
      <point x="1140" y="-154" type="line"/>
      <point x="1140" y="562" type="line"/>
      <point x="991" y="562" type="line"/>
    </contour>
  </outline>
</glyph>
<glyph name="aatamil" format="2">
  <advance width="1446"/>
  <unicode hex="0B86"/>
  <outline>
    <contour>
      <point x="352" y="-141" type="curve" smooth="yes"/>
      <point x="370" y="-141" type="line" smooth="yes"/>
      <point x="628" y="-141"/>
      <point x="815" y="-40"/>
      <point x="875" y="128" type="curve"/>
      <point x="875" y="164" type="line"/>
      <point x="880" y="190"/>
      <point x="884" y="218"/>
      <point x="884" y="247" type="curve" smooth="yes"/>
      <point x="884" y="414"/>
      <point x="772" y="574"/>
      <point x="536" y="574" type="curve" smooth="yes"/>
      <point x="398" y="574"/>
      <point x="292" y="519"/>
      <point x="292" y="392" type="curve" smooth="yes"/>
      <point x="292" y="281"/>
      <point x="381" y="228"/>
      <point x="483" y="228" type="curve" smooth="yes"/>
      <point x="621" y="228"/>
      <point x="673" y="301"/>
      <point x="673" y="394" type="curve" smooth="yes"/>
      <point x="673" y="473"/>
      <point x="637" y="521"/>
      <point x="604" y="552" type="curve"/>
      <point x="499" y="536" type="line"/>
      <point x="528" y="500"/>
      <point x="556" y="459"/>
      <point x="556" y="408" type="curve" smooth="yes"/>
      <point x="556" y="349"/>
      <point x="526" y="331"/>
      <point x="492" y="331" type="curve" smooth="yes"/>
      <point x="451" y="331"/>
      <point x="427" y="357"/>
      <point x="427" y="398" type="curve" smooth="yes"/>
      <point x="427" y="458"/>
      <point x="477" y="473"/>
      <point x="533" y="473" type="curve" smooth="yes"/>
      <point x="548" y="473"/>
      <point x="565" y="472"/>
      <point x="580" y="470" type="curve"/>
      <point x="696" y="449"/>
      <point x="741" y="356"/>
      <point x="741" y="244" type="curve" smooth="yes"/>
      <point x="741" y="221"/>
      <point x="740" y="194"/>
      <point x="733" y="169" type="curve"/>
      <point x="730" y="141" type="line"/>
      <point x="688" y="42"/>
      <point x="583" y="-34"/>
      <point x="381" y="-34" type="curve" smooth="yes"/>
      <point x="369" y="-34" type="line" smooth="yes"/>
      <point x="230" y="-34"/>
      <point x="169" y="-1"/>
      <point x="169" y="49" type="curve" smooth="yes"/>
      <point x="169" y="61"/>
      <point x="173" y="68"/>
      <point x="180" y="75" type="curve" smooth="yes"/>
      <point x="189" y="83"/>
      <point x="205" y="86"/>
      <point x="238" y="86" type="curve" smooth="yes"/>
      <point x="999" y="86" type="line"/>
      <point x="1000" y="192" type="line"/>
      <point x="227" y="192" type="line" smooth="yes"/>
      <point x="145" y="192"/>
      <point x="103" y="183"/>
      <point x="75" y="163" type="curve" smooth="yes"/>
      <point x="39" y="138"/>
      <point x="25" y="101"/>
      <point x="25" y="63" type="curve" smooth="yes"/>
      <point x="25" y="-57"/>
      <point x="141" y="-141"/>
    </contour>
    <contour>
      <point x="1000" y="-321" type="curve" smooth="yes"/>
      <point x="1018" y="-321" type="line" smooth="yes"/>
      <point x="1293" y="-321"/>
      <point x="1443" y="-214"/>
      <point x="1443" y="-55" type="curve" smooth="yes"/>
      <point x="1443" y="62"/>
      <point x="1350" y="118"/>
      <point x="1257" y="118" type="curve" smooth="yes"/>
      <point x="1187" y="118"/>
      <point x="1146" y="101"/>
      <point x="1113" y="82" type="curve"/>
      <point x="1113" y="-21" type="line"/>
      <point x="1136" y="-4"/>
      <point x="1174" y="14"/>
      <point x="1216" y="14" type="curve" smooth="yes"/>
      <point x="1272" y="14"/>
      <point x="1301" y="-15"/>
      <point x="1301" y="-63" type="curve" smooth="yes"/>
      <point x="1301" y="-161"/>
      <point x="1190" y="-215"/>
      <point x="1024" y="-215" type="curve" smooth="yes"/>
      <point x="1018" y="-215" type="line" smooth="yes"/>
      <point x="871" y="-215"/>
      <point x="831" y="-188"/>
      <point x="831" y="-157" type="curve" smooth="yes"/>
      <point x="831" y="-137"/>
      <point x="847" y="-127"/>
      <point x="880" y="-127" type="curve" smooth="yes"/>
      <point x="903" y="-127"/>
      <point x="922" y="-131"/>
      <point x="943" y="-137" type="curve"/>
      <point x="960" y="-42" type="line"/>
      <point x="923" y="-30"/>
      <point x="888" y="-24"/>
      <point x="853" y="-24" type="curve" smooth="yes"/>
      <point x="754" y="-24"/>
      <point x="697" y="-88"/>
      <point x="697" y="-149" type="curve" smooth="yes"/>
      <point x="697" y="-258"/>
      <point x="803" y="-321"/>
    </contour>
    <contour>
      <point x="991" y="-124" type="line"/>
      <point x="1140" y="-124" type="line"/>
      <point x="1140" y="562" type="line"/>
      <point x="991" y="562" type="line"/>
    </contour>
  </outline>
</glyph>
<glyph name="itamil" format="2">
  <advance width="1230"/>
  <unicode hex="0B87"/>
  <outline>
    <contour>
      <point x="283" y="-321" type="curve" smooth="yes"/>
      <point x="396" y="-321"/>
      <point x="502" y="-290"/>
      <point x="593" y="-242" type="curve"/>
      <point x="708" y="-186"/>
      <point x="797" y="-78"/>
      <point x="839" y="36" type="curve"/>
      <point x="866" y="103"/>
      <point x="879" y="168"/>
      <point x="879" y="253" type="curve" smooth="yes"/>
      <point x="879" y="440"/>
      <point x="770" y="573"/>
      <point x="552" y="573" type="curve" smooth="yes"/>
      <point x="419" y="573"/>
      <point x="311" y="518"/>
      <point x="311" y="395" type="curve" smooth="yes"/>
      <point x="311" y="284"/>
      <point x="397" y="228"/>
      <point x="498" y="228" type="curve" smooth="yes"/>
      <point x="630" y="228"/>
      <point x="688" y="310"/>
      <point x="688" y="395" type="curve" smooth="yes"/>
      <point x="688" y="442"/>
      <point x="657" y="486"/>
      <point x="632" y="508" type="curve"/>
      <point x="513" y="535" type="line"/>
      <point x="543" y="499"/>
      <point x="570" y="456"/>
      <point x="570" y="407" type="curve" smooth="yes"/>
      <point x="570" y="348"/>
      <point x="542" y="331"/>
      <point x="508" y="331" type="curve" smooth="yes"/>
      <point x="467" y="331"/>
      <point x="444" y="358"/>
      <point x="444" y="399" type="curve" smooth="yes"/>
      <point x="444" y="459"/>
      <point x="492" y="472"/>
      <point x="545" y="472" type="curve" smooth="yes"/>
      <point x="567" y="472"/>
      <point x="573" y="471"/>
      <point x="591" y="469" type="curve"/>
      <point x="609" y="472" type="line"/>
      <point x="702" y="448"/>
      <point x="738" y="351"/>
      <point x="738" y="250" type="curve" smooth="yes"/>
      <point x="738" y="193"/>
      <point x="729" y="139"/>
      <point x="714" y="91" type="curve" smooth="yes"/>
      <point x="669" y="-48"/>
      <point x="567" y="-147"/>
      <point x="441" y="-191" type="curve" smooth="yes"/>
      <point x="394" y="-207"/>
      <point x="344" y="-214"/>
      <point x="293" y="-214" type="curve" smooth="yes"/>
      <point x="200" y="-214"/>
      <point x="163" y="-175"/>
      <point x="163" y="-113" type="curve" smooth="yes"/>
      <point x="163" y="-63"/>
      <point x="192" y="-22"/>
      <point x="245" y="8" type="curve" smooth="yes"/>
      <point x="307" y="42"/>
      <point x="401" y="61"/>
      <point x="517" y="61" type="curve" smooth="yes"/>
      <point x="598" y="61"/>
      <point x="692" y="49"/>
      <point x="762" y="17" type="curve" smooth="yes"/>
      <point x="824" y="-11"/>
      <point x="867" y="-54"/>
      <point x="867" y="-114" type="curve" smooth="yes"/>
      <point x="867" y="-174"/>
      <point x="831" y="-214"/>
      <point x="736" y="-214" type="curve" smooth="yes"/>
      <point x="679" y="-214"/>
      <point x="624" y="-205"/>
      <point x="573" y="-186" type="curve" smooth="yes"/>
      <point x="450" y="-140"/>
      <point x="351" y="-43"/>
      <point x="287" y="78" type="curve"/>
      <point x="232" y="177"/>
      <point x="215" y="252"/>
      <point x="215" y="361" type="curve" smooth="yes"/>
      <point x="215" y="610"/>
      <point x="395" y="742"/>
      <point x="622" y="742" type="curve" smooth="yes"/>
      <point x="749" y="742"/>
      <point x="836" y="712"/>
      <point x="899" y="650" type="curve" smooth="yes"/>
      <point x="976" y="573"/>
      <point x="1005" y="469"/>
      <point x="1005" y="252" type="curve" smooth="yes"/>
      <point x="1005" y="0" type="line"/>
      <point x="1154" y="0" type="line"/>
      <point x="1154" y="313" type="line" smooth="yes"/>
      <point x="1154" y="507"/>
      <point x="1125" y="617"/>
      <point x="1029" y="714" type="curve" smooth="yes"/>
      <point x="940" y="803"/>
      <point x="814" y="851"/>
      <point x="624" y="851" type="curve" smooth="yes"/>
      <point x="242" y="851"/>
      <point x="73" y="620"/>
      <point x="73" y="374" type="curve" smooth="yes"/>
      <point x="73" y="237"/>
      <point x="100" y="133"/>
      <point x="170" y="21" type="curve" smooth="yes"/>
      <point x="241" y="-95"/>
      <point x="316" y="-173"/>
      <point x="437" y="-239" type="curve" smooth="yes"/>
      <point x="531" y="-291"/>
      <point x="631" y="-321"/>
      <point x="739" y="-321" type="curve" smooth="yes"/>
      <point x="917" y="-321"/>
      <point x="1002" y="-247"/>
      <point x="1002" y="-128" type="curve" smooth="yes"/>
      <point x="1002" y="-3"/>
      <point x="910" y="75"/>
      <point x="793" y="120" type="curve" smooth="yes"/>
      <point x="707" y="153"/>
      <point x="605" y="167"/>
      <point x="514" y="167" type="curve" smooth="yes"/>
      <point x="388" y="167"/>
      <point x="279" y="145"/>
      <point x="196" y="104" type="curve" smooth="yes"/>
      <point x="92" y="52"/>
      <point x="28" y="-28"/>
      <point x="28" y="-128" type="curve" smooth="yes"/>
      <point x="28" y="-247"/>
      <point x="116" y="-321"/>
    </contour>
  </outline>
</glyph>
<glyph name="iitamil" format="2">
  <advance width="843"/>
  <unicode hex="0B88"/>
  <outline>
    <contour>
      <point x="79" y="0" type="line"/>
      <point x="228" y="0" type="line"/>
      <point x="228" y="455" type="line"/>
      <point x="457" y="455" type="line"/>
      <point x="457" y="0" type="line"/>
      <point x="606" y="0" type="line"/>
      <point x="606" y="455" type="line"/>
      <point x="826" y="455" type="line"/>
      <point x="826" y="562" type="line"/>
      <point x="79" y="562" type="line"/>
    </contour>
    <contour>
      <point x="343" y="197" type="curve" smooth="yes"/>
      <point x="387" y="197"/>
      <point x="420" y="228"/>
      <point x="420" y="274" type="curve" smooth="yes"/>
      <point x="420" y="318"/>
      <point x="388" y="351"/>
      <point x="343" y="351" type="curve" smooth="yes"/>
      <point x="298" y="351"/>
      <point x="266" y="318"/>
      <point x="266" y="274" type="curve" smooth="yes"/>
      <point x="266" y="228"/>
      <point x="298" y="197"/>
    </contour>
    <contour>
      <point x="721" y="197" type="curve" smooth="yes"/>
      <point x="765" y="197"/>
      <point x="798" y="228"/>
      <point x="798" y="274" type="curve" smooth="yes"/>
      <point x="798" y="318"/>
      <point x="766" y="351"/>
      <point x="721" y="351" type="curve" smooth="yes"/>
      <point x="676" y="351"/>
      <point x="644" y="318"/>
      <point x="644" y="274" type="curve" smooth="yes"/>
      <point x="644" y="228"/>
      <point x="676" y="197"/>
    </contour>
  </outline>
</glyph>
<glyph name="utamil" format="2">
  <advance width="1088"/>
  <unicode hex="0B89"/>
  <outline>
    <contour>
      <point x="321" y="574" type="curve" smooth="yes"/>
      <point x="149" y="574"/>
      <point x="45" y="522"/>
      <point x="45" y="402" type="curve" smooth="yes"/>
      <point x="45" y="297"/>
      <point x="138" y="254"/>
      <point x="235" y="254" type="curve" smooth="yes"/>
      <point x="362" y="254"/>
      <point x="428" y="310"/>
      <point x="428" y="404" type="curve" smooth="yes"/>
      <point x="428" y="488"/>
      <point x="395" y="522"/>
      <point x="359" y="551" type="curve"/>
      <point x="248" y="549" type="line"/>
      <point x="280" y="519"/>
      <point x="305" y="471"/>
      <point x="305" y="426" type="curve" smooth="yes"/>
      <point x="305" y="375"/>
      <point x="277" y="357"/>
      <point x="243" y="357" type="curve" smooth="yes"/>
      <point x="209" y="357"/>
      <point x="178" y="368"/>
      <point x="178" y="410" type="curve" smooth="yes"/>
      <point x="178" y="455"/>
      <point x="220" y="471"/>
      <point x="270" y="471" type="curve" smooth="yes"/>
      <point x="277" y="471"/>
      <point x="301" y="471"/>
      <point x="317" y="470" type="curve"/>
      <point x="336" y="471" type="line"/>
      <point x="431" y="471"/>
      <point x="521" y="441"/>
      <point x="521" y="360" type="curve" smooth="yes"/>
      <point x="521" y="299"/>
      <point x="488" y="257"/>
      <point x="296" y="240" type="curve" smooth="yes"/>
      <point x="212" y="233" type="line" smooth="yes"/>
      <point x="92" y="222"/>
      <point x="49" y="169"/>
      <point x="49" y="107" type="curve" smooth="yes"/>
      <point x="49" y="55"/>
      <point x="84" y="0"/>
      <point x="218" y="0" type="curve" smooth="yes"/>
      <point x="1071" y="0" type="line"/>
      <point x="1071" y="107" type="line"/>
      <point x="224" y="107" type="line" smooth="yes"/>
      <point x="198" y="107"/>
      <point x="189" y="109"/>
      <point x="189" y="120" type="curve" smooth="yes"/>
      <point x="189" y="128"/>
      <point x="197" y="134"/>
      <point x="226" y="137" type="curve" smooth="yes"/>
      <point x="345" y="147" type="line" smooth="yes"/>
      <point x="518" y="162"/>
      <point x="666" y="208"/>
      <point x="666" y="364" type="curve" smooth="yes"/>
      <point x="666" y="482"/>
      <point x="557" y="574"/>
    </contour>
  </outline>
</glyph>
<glyph name="uutamil" format="2">
  <advance width="1682"/>
  <unicode hex="0B8A"/>
  <outline>
    <contour>
      <point x="321" y="574" type="curve" smooth="yes"/>
      <point x="149" y="574"/>
      <point x="45" y="522"/>
      <point x="45" y="402" type="curve" smooth="yes"/>
      <point x="45" y="297"/>
      <point x="138" y="254"/>
      <point x="235" y="254" type="curve" smooth="yes"/>
      <point x="362" y="254"/>
      <point x="428" y="310"/>
      <point x="428" y="404" type="curve" smooth="yes"/>
      <point x="428" y="488"/>
      <point x="395" y="522"/>
      <point x="359" y="551" type="curve"/>
      <point x="248" y="549" type="line"/>
      <point x="280" y="519"/>
      <point x="305" y="471"/>
      <point x="305" y="426" type="curve" smooth="yes"/>
      <point x="305" y="375"/>
      <point x="277" y="357"/>
      <point x="243" y="357" type="curve" smooth="yes"/>
      <point x="209" y="357"/>
      <point x="178" y="368"/>
      <point x="178" y="410" type="curve" smooth="yes"/>
      <point x="178" y="455"/>
      <point x="220" y="471"/>
      <point x="270" y="471" type="curve" smooth="yes"/>
      <point x="277" y="471"/>
      <point x="301" y="471"/>
      <point x="317" y="470" type="curve"/>
      <point x="336" y="471" type="line"/>
      <point x="431" y="471"/>
      <point x="521" y="441"/>
      <point x="521" y="360" type="curve" smooth="yes"/>
      <point x="521" y="299"/>
      <point x="488" y="257"/>
      <point x="296" y="240" type="curve" smooth="yes"/>
      <point x="212" y="233" type="line" smooth="yes"/>
      <point x="92" y="222"/>
      <point x="49" y="169"/>
      <point x="49" y="107" type="curve" smooth="yes"/>
      <point x="49" y="55"/>
      <point x="84" y="0"/>
      <point x="218" y="0" type="curve" smooth="yes"/>
      <point x="1636" y="0" type="line"/>
      <point x="1636" y="107" type="line"/>
      <point x="224" y="107" type="line" smooth="yes"/>
      <point x="198" y="107"/>
      <point x="189" y="109"/>
      <point x="189" y="120" type="curve" smooth="yes"/>
      <point x="189" y="128"/>
      <point x="197" y="134"/>
      <point x="226" y="137" type="curve" smooth="yes"/>
      <point x="345" y="147" type="line" smooth="yes"/>
      <point x="518" y="162"/>
      <point x="666" y="208"/>
      <point x="666" y="364" type="curve" smooth="yes"/>
      <point x="666" y="482"/>
      <point x="557" y="574"/>
    </contour>
    <contour>
      <point x="934" y="146" type="curve" smooth="yes"/>
      <point x="1042" y="146"/>
      <point x="1100" y="198"/>
      <point x="1100" y="285" type="curve" smooth="yes"/>
      <point x="1100" y="368"/>
      <point x="1038" y="415"/>
      <point x="952" y="415" type="curve" smooth="yes"/>
      <point x="886" y="415"/>
      <point x="843" y="386"/>
      <point x="800" y="354" type="curve"/>
      <point x="816" y="272" type="line"/>
      <point x="845" y="300"/>
      <point x="879" y="328"/>
      <point x="925" y="328" type="curve" smooth="yes"/>
      <point x="960" y="328"/>
      <point x="981" y="311"/>
      <point x="981" y="281" type="curve" smooth="yes"/>
      <point x="981" y="251"/>
      <point x="965" y="235"/>
      <point x="927" y="235" type="curve" smooth="yes"/>
      <point x="883" y="235"/>
      <point x="858" y="262"/>
      <point x="858" y="328" type="curve"/>
      <point x="862" y="368" type="line"/>
      <point x="879" y="438"/>
      <point x="941" y="476"/>
      <point x="1021" y="476" type="curve" smooth="yes"/>
      <point x="1096" y="476"/>
      <point x="1144" y="450"/>
      <point x="1181" y="416" type="curve"/>
      <point x="1201" y="531" type="line"/>
      <point x="1150" y="559"/>
      <point x="1100" y="574"/>
      <point x="1023" y="574" type="curve" smooth="yes"/>
      <point x="875" y="574"/>
      <point x="746" y="485"/>
      <point x="746" y="334" type="curve" smooth="yes"/>
      <point x="746" y="204"/>
      <point x="824" y="146"/>
    </contour>
    <contour>
      <point x="1166" y="154" type="line"/>
      <point x="1294" y="154" type="line"/>
      <point x="1294" y="463" type="line"/>
      <point x="1400" y="463" type="line"/>
      <point x="1400" y="154" type="line"/>
      <point x="1528" y="154" type="line"/>
      <point x="1528" y="463" type="line"/>
      <point x="1636" y="463" type="line"/>
      <point x="1636" y="562" type="line"/>
      <point x="1183" y="562" type="line"/>
      <point x="1183" y="505" type="line"/>
      <point x="1166" y="483" type="line"/>
    </contour>
  </outline>
</glyph>
<glyph name="etamil" format="2">
  <advance width="878"/>
  <unicode hex="0B8E"/>
  <outline>
    <contour>
      <point x="275" y="-12" type="curve" smooth="yes"/>
      <point x="411" y="-12"/>
      <point x="480" y="59"/>
      <point x="480" y="174" type="curve" smooth="yes"/>
      <point x="480" y="285"/>
      <point x="408" y="347"/>
      <point x="300" y="347" type="curve" smooth="yes"/>
      <point x="216" y="347"/>
      <point x="155" y="311"/>
      <point x="106" y="264" type="curve"/>
      <point x="128" y="168" type="line"/>
      <point x="164" y="207"/>
      <point x="207" y="246"/>
      <point x="263" y="246" type="curve" smooth="yes"/>
      <point x="311" y="246"/>
      <point x="340" y="216"/>
      <point x="340" y="167" type="curve" smooth="yes"/>
      <point x="340" y="118"/>
      <point x="314" y="91"/>
      <point x="269" y="91" type="curve" smooth="yes"/>
      <point x="211" y="91"/>
      <point x="177" y="129"/>
      <point x="177" y="224" type="curve" smooth="yes"/>
      <point x="177" y="317"/>
      <point x="209" y="377"/>
      <point x="264" y="414" type="curve" smooth="yes"/>
      <point x="305" y="441"/>
      <point x="352" y="455"/>
      <point x="448" y="455" type="curve" smooth="yes"/>
      <point x="542" y="455" type="line"/>
      <point x="538" y="562" type="line"/>
      <point x="509" y="562" type="line" smooth="yes"/>
      <point x="340" y="562"/>
      <point x="253" y="546"/>
      <point x="179" y="500" type="curve" smooth="yes"/>
      <point x="92" y="446"/>
      <point x="45" y="358"/>
      <point x="45" y="235" type="curve" smooth="yes"/>
      <point x="45" y="72"/>
      <point x="137" y="-12"/>
    </contour>
    <contour>
      <point x="569" y="0" type="line"/>
      <point x="718" y="0" type="line"/>
      <point x="718" y="455" type="line"/>
      <point x="861" y="455" type="line"/>
      <point x="861" y="562" type="line"/>
      <point x="525" y="562" type="line"/>
      <point x="524" y="455" type="line"/>
      <point x="569" y="455" type="line"/>
    </contour>
  </outline>
</glyph>
<glyph name="aitamil" format="2">
  <advance width="1123"/>
  <unicode hex="0B90"/>
  <outline>
    <contour>
      <point x="342" y="-321" type="curve" smooth="yes"/>
      <point x="496" y="-321"/>
      <point x="574" y="-259"/>
      <point x="624" y="-197" type="curve"/>
      <point x="582" y="-190" type="line"/>
      <point x="617" y="-263"/>
      <point x="684" y="-321"/>
      <point x="815" y="-321" type="curve" smooth="yes"/>
      <point x="990" y="-321"/>
      <point x="1071" y="-231"/>
      <point x="1071" y="-90" type="curve" smooth="yes"/>
      <point x="1071" y="-43"/>
      <point x="1065" y="6"/>
      <point x="1047" y="48" type="curve"/>
      <point x="904" y="5" type="line"/>
      <point x="914" y="-22"/>
      <point x="922" y="-59"/>
      <point x="922" y="-95" type="curve" smooth="yes"/>
      <point x="922" y="-168"/>
      <point x="882" y="-214"/>
      <point x="808" y="-214" type="curve" smooth="yes"/>
      <point x="775" y="-214"/>
      <point x="730" y="-205"/>
      <point x="704" y="-162" type="curve" smooth="yes"/>
      <point x="689" y="-139"/>
      <point x="681" y="-112"/>
      <point x="681" y="-48" type="curve" smooth="yes"/>
      <point x="681" y="-17" type="line"/>
      <point x="532" y="-17" type="line"/>
      <point x="532" y="-44" type="line" smooth="yes"/>
      <point x="532" y="-108"/>
      <point x="520" y="-137"/>
      <point x="502" y="-160" type="curve" smooth="yes"/>
      <point x="472" y="-198"/>
      <point x="422" y="-214"/>
      <point x="357" y="-214" type="curve" smooth="yes"/>
      <point x="265" y="-214"/>
      <point x="195" y="-174"/>
      <point x="195" y="-88" type="curve" smooth="yes"/>
      <point x="195" y="-44"/>
      <point x="210" y="-12"/>
      <point x="242" y="10" type="curve" smooth="yes"/>
      <point x="277" y="34"/>
      <point x="321" y="45"/>
      <point x="413" y="45" type="curve" smooth="yes"/>
      <point x="646" y="45" type="line" smooth="yes"/>
      <point x="780" y="45"/>
      <point x="881" y="59"/>
      <point x="958" y="105" type="curve" smooth="yes"/>
      <point x="1027" y="147"/>
      <point x="1071" y="217"/>
      <point x="1071" y="329" type="curve" smooth="yes"/>
      <point x="1071" y="463"/>
      <point x="983" y="574"/>
      <point x="804" y="574" type="curve" smooth="yes"/>
      <point x="697" y="574"/>
      <point x="619" y="526"/>
      <point x="579" y="437" type="curve"/>
      <point x="621" y="451" type="line"/>
      <point x="582" y="511"/>
      <point x="511" y="574"/>
      <point x="350" y="574" type="curve" smooth="yes"/>
      <point x="178" y="574"/>
      <point x="46" y="492"/>
      <point x="46" y="352" type="curve" smooth="yes"/>
      <point x="46" y="243"/>
      <point x="114" y="171"/>
      <point x="242" y="171" type="curve" smooth="yes"/>
      <point x="371" y="171"/>
      <point x="442" y="236"/>
      <point x="442" y="335" type="curve" smooth="yes"/>
      <point x="442" y="423"/>
      <point x="377" y="476"/>
      <point x="305" y="486" type="curve"/>
      <point x="184" y="437" type="line"/>
      <point x="282" y="436"/>
      <point x="315" y="390"/>
      <point x="315" y="337" type="curve" smooth="yes"/>
      <point x="315" y="298"/>
      <point x="292" y="272"/>
      <point x="246" y="272" type="curve" smooth="yes"/>
      <point x="194" y="272"/>
      <point x="175" y="306"/>
      <point x="175" y="349" type="curve" smooth="yes"/>
      <point x="175" y="394"/>
      <point x="199" y="448"/>
      <point x="285" y="466" type="curve"/>
      <point x="317" y="472" type="line"/>
      <point x="322" y="473"/>
      <point x="339" y="474"/>
      <point x="344" y="474" type="curve"/>
      <point x="490" y="474"/>
      <point x="532" y="398"/>
      <point x="532" y="278" type="curve" smooth="yes"/>
      <point x="532" y="211" type="line"/>
      <point x="681" y="211" type="line"/>
      <point x="681" y="294" type="line" smooth="yes"/>
      <point x="681" y="376"/>
      <point x="691" y="409"/>
      <point x="713" y="434" type="curve" smooth="yes"/>
      <point x="732" y="455"/>
      <point x="758" y="466"/>
      <point x="794" y="466" type="curve" smooth="yes"/>
      <point x="864" y="466"/>
      <point x="922" y="421"/>
      <point x="922" y="322" type="curve" smooth="yes"/>
      <point x="922" y="262"/>
      <point x="901" y="224"/>
      <point x="865" y="198" type="curve" smooth="yes"/>
      <point x="806" y="156"/>
      <point x="716" y="152"/>
      <point x="610" y="152" type="curve" smooth="yes"/>
      <point x="408" y="152" type="line" smooth="yes"/>
      <point x="283" y="152"/>
      <point x="188" y="135"/>
      <point x="120" y="77" type="curve" smooth="yes"/>
      <point x="75" y="40"/>
      <point x="46" y="-15"/>
      <point x="46" y="-91" type="curve" smooth="yes"/>
      <point x="46" y="-232"/>
      <point x="143" y="-321"/>
    </contour>
  </outline>
</glyph>
<glyph name="otamil" format="2">
  <advance width="1126"/>
  <unicode hex="0B92"/>
  <outline>
    <contour>
      <point x="871" y="47" type="curve" smooth="yes"/>
      <point x="1034" y="47"/>
      <point x="1088" y="153"/>
      <point x="1088" y="246" type="curve" smooth="yes"/>
      <point x="1088" y="345"/>
      <point x="1045" y="416"/>
      <point x="980" y="465" type="curve" smooth="yes"/>
      <point x="865" y="552"/>
      <point x="711" y="574"/>
      <point x="549" y="574" type="curve" smooth="yes"/>
      <point x="392" y="574"/>
      <point x="223" y="545"/>
      <point x="117" y="447" type="curve" smooth="yes"/>
      <point x="68" y="402"/>
      <point x="38" y="343"/>
      <point x="38" y="267" type="curve" smooth="yes"/>
      <point x="38" y="136"/>
      <point x="126" y="54"/>
      <point x="255" y="54" type="curve" smooth="yes"/>
      <point x="372" y="54"/>
      <point x="457" y="105"/>
      <point x="457" y="229" type="curve" smooth="yes"/>
      <point x="457" y="333"/>
      <point x="384" y="389"/>
      <point x="286" y="389" type="curve" smooth="yes"/>
      <point x="227" y="389"/>
      <point x="184" y="364"/>
      <point x="152" y="338" type="curve"/>
      <point x="146" y="245" type="line"/>
      <point x="178" y="278"/>
      <point x="215" y="298"/>
      <point x="255" y="298" type="curve" smooth="yes"/>
      <point x="301" y="298"/>
      <point x="328" y="271"/>
      <point x="328" y="230" type="curve" smooth="yes"/>
      <point x="328" y="184"/>
      <point x="302" y="157"/>
      <point x="254" y="157" type="curve" smooth="yes"/>
      <point x="198" y="157"/>
      <point x="167" y="193"/>
      <point x="167" y="262" type="curve" smooth="yes"/>
      <point x="167" y="280"/>
      <point x="167" y="294"/>
      <point x="168" y="307" type="curve"/>
      <point x="171" y="336" type="line"/>
      <point x="217" y="417"/>
      <point x="370" y="464"/>
      <point x="562" y="464" type="curve" smooth="yes"/>
      <point x="794" y="464"/>
      <point x="944" y="378"/>
      <point x="944" y="241" type="curve" smooth="yes"/>
      <point x="944" y="199"/>
      <point x="933" y="150"/>
      <point x="875" y="150" type="curve" smooth="yes"/>
      <point x="817" y="150"/>
      <point x="802" y="190"/>
      <point x="802" y="233" type="curve" smooth="yes"/>
      <point x="802" y="268"/>
      <point x="811" y="298"/>
      <point x="823" y="328" type="curve"/>
      <point x="701" y="378" type="line"/>
      <point x="569" y="332"/>
      <point x="502" y="240"/>
      <point x="502" y="131" type="curve" smooth="yes"/>
      <point x="502" y="20"/>
      <point x="563" y="-75"/>
      <point x="711" y="-111" type="curve"/>
      <point x="753" y="-121"/>
      <point x="786" y="-127"/>
      <point x="858" y="-127" type="curve" smooth="yes"/>
      <point x="989" y="-127" type="line"/>
      <point x="989" y="-20" type="line"/>
      <point x="876" y="-20" type="line" smooth="yes"/>
      <point x="773" y="-20"/>
      <point x="735" y="-9"/>
      <point x="698" y="13" type="curve" smooth="yes"/>
      <point x="655" y="39"/>
      <point x="631" y="80"/>
      <point x="631" y="140" type="curve" smooth="yes"/>
      <point x="631" y="186"/>
      <point x="651" y="240"/>
      <point x="714" y="272" type="curve"/>
      <point x="698" y="272" type="line"/>
      <point x="686" y="250"/>
      <point x="683" y="220"/>
      <point x="683" y="201" type="curve" smooth="yes"/>
      <point x="683" y="106"/>
      <point x="754" y="47"/>
    </contour>
    <contour>
      <point x="472" y="-321" type="curve" smooth="yes"/>
      <point x="637" y="-321"/>
      <point x="727" y="-246"/>
      <point x="776" y="-149" type="curve" smooth="yes"/>
      <point x="783" y="-136"/>
      <point x="799" y="-110"/>
      <point x="816" y="-91" type="curve"/>
      <point x="674" y="-67" type="line"/>
      <point x="656" y="-80"/>
      <point x="641" y="-101"/>
      <point x="631" y="-117" type="curve" smooth="yes"/>
      <point x="586" y="-188"/>
      <point x="540" y="-214"/>
      <point x="475" y="-214" type="curve" smooth="yes"/>
      <point x="411" y="-214"/>
      <point x="376" y="-181"/>
      <point x="376" y="-125" type="curve" smooth="yes"/>
      <point x="376" y="-94"/>
      <point x="388" y="-58"/>
      <point x="410" y="-28" type="curve"/>
      <point x="288" y="23" type="line"/>
      <point x="253" y="-30"/>
      <point x="235" y="-87"/>
      <point x="235" y="-140" type="curve" smooth="yes"/>
      <point x="235" y="-262"/>
      <point x="333" y="-321"/>
    </contour>
  </outline>
</glyph>
<glyph name="ootamil" format="2">
  <advance width="1126"/>
  <unicode hex="0B93"/>
  <outline>
    <contour>
      <point x="871" y="47" type="curve" smooth="yes"/>
      <point x="1034" y="47"/>
      <point x="1088" y="153"/>
      <point x="1088" y="246" type="curve" smooth="yes"/>
      <point x="1088" y="345"/>
      <point x="1045" y="416"/>
      <point x="980" y="465" type="curve" smooth="yes"/>
      <point x="865" y="552"/>
      <point x="711" y="574"/>
      <point x="549" y="574" type="curve" smooth="yes"/>
      <point x="392" y="574"/>
      <point x="223" y="545"/>
      <point x="117" y="447" type="curve" smooth="yes"/>
      <point x="68" y="402"/>
      <point x="38" y="343"/>
      <point x="38" y="267" type="curve" smooth="yes"/>
      <point x="38" y="136"/>
      <point x="126" y="54"/>
      <point x="255" y="54" type="curve" smooth="yes"/>
      <point x="372" y="54"/>
      <point x="457" y="105"/>
      <point x="457" y="229" type="curve" smooth="yes"/>
      <point x="457" y="333"/>
      <point x="384" y="389"/>
      <point x="286" y="389" type="curve" smooth="yes"/>
      <point x="227" y="389"/>
      <point x="184" y="364"/>
      <point x="152" y="338" type="curve"/>
      <point x="146" y="245" type="line"/>
      <point x="178" y="278"/>
      <point x="215" y="298"/>
      <point x="255" y="298" type="curve" smooth="yes"/>
      <point x="301" y="298"/>
      <point x="328" y="271"/>
      <point x="328" y="230" type="curve" smooth="yes"/>
      <point x="328" y="184"/>
      <point x="302" y="157"/>
      <point x="254" y="157" type="curve" smooth="yes"/>
      <point x="198" y="157"/>
      <point x="167" y="193"/>
      <point x="167" y="262" type="curve" smooth="yes"/>
      <point x="167" y="280"/>
      <point x="167" y="294"/>
      <point x="168" y="307" type="curve" smooth="yes"/>
      <point x="171" y="336" type="line"/>
      <point x="217" y="417"/>
      <point x="370" y="464"/>
      <point x="562" y="464" type="curve" smooth="yes"/>
      <point x="794" y="464"/>
      <point x="944" y="378"/>
      <point x="944" y="241" type="curve" smooth="yes"/>
      <point x="944" y="199"/>
      <point x="933" y="150"/>
      <point x="875" y="150" type="curve" smooth="yes"/>
      <point x="817" y="150"/>
      <point x="802" y="190"/>
      <point x="802" y="233" type="curve" smooth="yes"/>
      <point x="802" y="268"/>
      <point x="811" y="298"/>
      <point x="823" y="328" type="curve"/>
      <point x="701" y="378" type="line"/>
      <point x="569" y="332"/>
      <point x="502" y="240"/>
      <point x="502" y="131" type="curve" smooth="yes"/>
      <point x="502" y="20"/>
      <point x="563" y="-75"/>
      <point x="711" y="-111" type="curve" smooth="yes"/>
      <point x="753" y="-121"/>
      <point x="786" y="-127"/>
      <point x="858" y="-127" type="curve" smooth="yes"/>
      <point x="989" y="-127" type="line"/>
      <point x="989" y="-20" type="line"/>
      <point x="876" y="-20" type="line" smooth="yes"/>
      <point x="773" y="-20"/>
      <point x="735" y="-9"/>
      <point x="698" y="13" type="curve" smooth="yes"/>
      <point x="655" y="39"/>
      <point x="631" y="80"/>
      <point x="631" y="140" type="curve" smooth="yes"/>
      <point x="631" y="186"/>
      <point x="651" y="240"/>
      <point x="714" y="272" type="curve"/>
      <point x="698" y="272" type="line"/>
      <point x="686" y="250"/>
      <point x="683" y="220"/>
      <point x="683" y="201" type="curve" smooth="yes"/>
      <point x="683" y="106"/>
      <point x="754" y="47"/>
    </contour>
    <contour>
      <point x="340" y="18" type="curve" smooth="yes"/>
      <point x="211" y="18"/>
      <point x="145" y="-51"/>
      <point x="145" y="-145" type="curve" smooth="yes"/>
      <point x="145" y="-202"/>
      <point x="174" y="-248"/>
      <point x="226" y="-279" type="curve" smooth="yes"/>
      <point x="270" y="-306"/>
      <point x="329" y="-321"/>
      <point x="436" y="-321" type="curve" smooth="yes"/>
      <point x="450" y="-321" type="line" smooth="yes"/>
      <point x="628" y="-321"/>
      <point x="720" y="-254"/>
      <point x="774" y="-149" type="curve" smooth="yes"/>
      <point x="781" y="-136"/>
      <point x="797" y="-110"/>
      <point x="814" y="-91" type="curve"/>
      <point x="679" y="-67" type="line"/>
      <point x="661" y="-80"/>
      <point x="646" y="-102"/>
      <point x="636" y="-118" type="curve" smooth="yes"/>
      <point x="591" y="-192"/>
      <point x="544" y="-220"/>
      <point x="480" y="-220" type="curve" smooth="yes"/>
      <point x="397" y="-220" type="line" smooth="yes"/>
      <point x="357" y="-220"/>
      <point x="274" y="-216"/>
      <point x="274" y="-144" type="curve" smooth="yes"/>
      <point x="274" y="-110"/>
      <point x="294" y="-85"/>
      <point x="337" y="-85" type="curve" smooth="yes"/>
      <point x="377" y="-85"/>
      <point x="405" y="-105"/>
      <point x="405" y="-150" type="curve" smooth="yes"/>
      <point x="405" y="-175"/>
      <point x="395" y="-206"/>
      <point x="377" y="-229" type="curve"/>
      <point x="495" y="-249" type="line"/>
      <point x="512" y="-227"/>
      <point x="530" y="-184"/>
      <point x="530" y="-132" type="curve" smooth="yes"/>
      <point x="530" y="-52"/>
      <point x="473" y="18"/>
    </contour>
  </outline>
</glyph>
<glyph name="katamil" format="2">
  <advance width="915"/>
  <unicode hex="0B95"/>
  <outline>
    <contour>
      <point x="294" y="-12" type="curve" smooth="yes"/>
      <point x="394" y="-12"/>
      <point x="472" y="7"/>
      <point x="521" y="61" type="curve" smooth="yes"/>
      <point x="554" y="98"/>
      <point x="573" y="146"/>
      <point x="573" y="240" type="curve" smooth="yes"/>
      <point x="573" y="455" type="line"/>
      <point x="761" y="455" type="line"/>
      <point x="761" y="562" type="line"/>
      <point x="143" y="562" type="line"/>
      <point x="143" y="286" type="line"/>
      <point x="277" y="302" type="line"/>
      <point x="277" y="455" type="line"/>
      <point x="428" y="455" type="line"/>
      <point x="428" y="238" type="line" smooth="yes"/>
      <point x="428" y="125"/>
      <point x="381" y="94"/>
      <point x="304" y="94" type="curve" smooth="yes"/>
      <point x="233" y="94"/>
      <point x="188" y="117"/>
      <point x="188" y="168" type="curve" smooth="yes"/>
      <point x="188" y="195"/>
      <point x="200" y="215"/>
      <point x="225" y="228" type="curve" smooth="yes"/>
      <point x="254" y="243"/>
      <point x="298" y="246"/>
      <point x="345" y="246" type="curve" smooth="yes"/>
      <point x="566" y="246" type="line" smooth="yes"/>
      <point x="652" y="246"/>
      <point x="732" y="238"/>
      <point x="732" y="168" type="curve" smooth="yes"/>
      <point x="732" y="119"/>
      <point x="702" y="96"/>
      <point x="646" y="96" type="curve" smooth="yes"/>
      <point x="625" y="96"/>
      <point x="607" y="98"/>
      <point x="588" y="103" type="curve"/>
      <point x="564" y="0" type="line"/>
      <point x="598" y="-9"/>
      <point x="643" y="-12"/>
      <point x="675" y="-12" type="curve" smooth="yes"/>
      <point x="803" y="-12"/>
      <point x="874" y="53"/>
      <point x="874" y="161" type="curve" smooth="yes"/>
      <point x="874" y="220"/>
      <point x="849" y="267"/>
      <point x="809" y="295" type="curve" smooth="yes"/>
      <point x="757" y="333"/>
      <point x="702" y="347"/>
      <point x="575" y="347" type="curve" smooth="yes"/>
      <point x="363" y="347" type="line" smooth="yes"/>
      <point x="133" y="347"/>
      <point x="41" y="274"/>
      <point x="41" y="165" type="curve" smooth="yes"/>
      <point x="41" y="51"/>
      <point x="144" y="-12"/>
    </contour>
  </outline>
</glyph>
<glyph name="catamil" format="2">
  <advance width="808"/>
  <unicode hex="0B9A"/>
  <outline>
    <contour>
      <point x="294" y="-12" type="curve" smooth="yes"/>
      <point x="393" y="-12"/>
      <point x="471" y="7"/>
      <point x="520" y="61" type="curve" smooth="yes"/>
      <point x="553" y="98"/>
      <point x="571" y="146"/>
      <point x="571" y="240" type="curve" smooth="yes"/>
      <point x="571" y="455" type="line"/>
      <point x="762" y="455" type="line"/>
      <point x="762" y="562" type="line"/>
      <point x="143" y="562" type="line"/>
      <point x="143" y="286" type="line"/>
      <point x="277" y="302" type="line"/>
      <point x="277" y="455" type="line"/>
      <point x="428" y="455" type="line"/>
      <point x="428" y="238" type="line" smooth="yes"/>
      <point x="428" y="125"/>
      <point x="381" y="95"/>
      <point x="304" y="95" type="curve" smooth="yes"/>
      <point x="233" y="95"/>
      <point x="188" y="117"/>
      <point x="188" y="168" type="curve" smooth="yes"/>
      <point x="188" y="195"/>
      <point x="200" y="215"/>
      <point x="225" y="228" type="curve" smooth="yes"/>
      <point x="254" y="243"/>
      <point x="298" y="246"/>
      <point x="345" y="246" type="curve" smooth="yes"/>
      <point x="762" y="246" type="line"/>
      <point x="762" y="347" type="line"/>
      <point x="363" y="347" type="line" smooth="yes"/>
      <point x="133" y="347"/>
      <point x="41" y="274"/>
      <point x="41" y="165" type="curve" smooth="yes"/>
      <point x="41" y="51"/>
      <point x="144" y="-12"/>
    </contour>
  </outline>
</glyph>
<glyph name="jatamil" format="2">
  <advance width="1123"/>
  <unicode hex="0B9C"/>
  <outline>
    <contour>
      <point x="350" y="574" type="curve" smooth="yes"/>
      <point x="178" y="574"/>
      <point x="46" y="492"/>
      <point x="46" y="352" type="curve" smooth="yes"/>
      <point x="46" y="243"/>
      <point x="114" y="171"/>
      <point x="242" y="171" type="curve" smooth="yes"/>
      <point x="370" y="171"/>
      <point x="442" y="235"/>
      <point x="442" y="335" type="curve" smooth="yes"/>
      <point x="442" y="423"/>
      <point x="377" y="476"/>
      <point x="305" y="486" type="curve"/>
      <point x="184" y="437" type="line"/>
      <point x="282" y="436"/>
      <point x="315" y="390"/>
      <point x="315" y="337" type="curve" smooth="yes"/>
      <point x="315" y="298"/>
      <point x="292" y="272"/>
      <point x="246" y="272" type="curve" smooth="yes"/>
      <point x="194" y="272"/>
      <point x="175" y="306"/>
      <point x="175" y="349" type="curve" smooth="yes"/>
      <point x="175" y="394"/>
      <point x="199" y="448"/>
      <point x="285" y="466" type="curve"/>
      <point x="317" y="472" type="line"/>
      <point x="322" y="473"/>
      <point x="339" y="474"/>
      <point x="344" y="474" type="curve"/>
      <point x="490" y="474"/>
      <point x="532" y="398"/>
      <point x="532" y="278" type="curve" smooth="yes"/>
      <point x="532" y="211" type="line"/>
      <point x="681" y="211" type="line"/>
      <point x="681" y="294" type="line" smooth="yes"/>
      <point x="681" y="376"/>
      <point x="691" y="409"/>
      <point x="713" y="434" type="curve" smooth="yes"/>
      <point x="732" y="455"/>
      <point x="758" y="466"/>
      <point x="794" y="466" type="curve" smooth="yes"/>
      <point x="865" y="466"/>
      <point x="922" y="421"/>
      <point x="922" y="322" type="curve" smooth="yes"/>
      <point x="922" y="262"/>
      <point x="901" y="224"/>
      <point x="865" y="198" type="curve" smooth="yes"/>
      <point x="806" y="156"/>
      <point x="716" y="152"/>
      <point x="610" y="152" type="curve" smooth="yes"/>
      <point x="408" y="152" type="line" smooth="yes"/>
      <point x="283" y="152"/>
      <point x="188" y="135"/>
      <point x="120" y="77" type="curve" smooth="yes"/>
      <point x="75" y="40"/>
      <point x="46" y="-15"/>
      <point x="46" y="-91" type="curve" smooth="yes"/>
      <point x="46" y="-215"/>
      <point x="122" y="-321"/>
      <point x="321" y="-321" type="curve" smooth="yes"/>
      <point x="464" y="-321"/>
      <point x="544" y="-270"/>
      <point x="630" y="-180" type="curve" smooth="yes"/>
      <point x="683" y="-124"/>
      <point x="706" y="-108"/>
      <point x="740" y="-94" type="curve"/>
      <point x="766" y="-81"/>
      <point x="792" y="-77"/>
      <point x="825" y="-77" type="curve" smooth="yes"/>
      <point x="896" y="-77"/>
      <point x="930" y="-105"/>
      <point x="930" y="-151" type="curve" smooth="yes"/>
      <point x="930" y="-189"/>
      <point x="907" y="-218"/>
      <point x="857" y="-218" type="curve" smooth="yes"/>
      <point x="811" y="-218"/>
      <point x="786" y="-193"/>
      <point x="786" y="-151" type="curve" smooth="yes"/>
      <point x="786" y="-120"/>
      <point x="805" y="-81"/>
      <point x="854" y="-40" type="curve"/>
      <point x="740" y="-32" type="line"/>
      <point x="701" y="-62"/>
      <point x="668" y="-119"/>
      <point x="668" y="-168" type="curve" smooth="yes"/>
      <point x="668" y="-238"/>
      <point x="708" y="-321"/>
      <point x="862" y="-321" type="curve" smooth="yes"/>
      <point x="994" y="-321"/>
      <point x="1059" y="-251"/>
      <point x="1059" y="-159" type="curve" smooth="yes"/>
      <point x="1059" y="-55"/>
      <point x="976" y="26"/>
      <point x="835" y="26" type="curve" smooth="yes"/>
      <point x="709" y="26"/>
      <point x="640" y="-4"/>
      <point x="536" y="-106" type="curve" smooth="yes"/>
      <point x="458" y="-183"/>
      <point x="408" y="-214"/>
      <point x="329" y="-214" type="curve" smooth="yes"/>
      <point x="248" y="-214"/>
      <point x="195" y="-168"/>
      <point x="195" y="-88" type="curve" smooth="yes"/>
      <point x="195" y="-44"/>
      <point x="210" y="-12"/>
      <point x="242" y="10" type="curve" smooth="yes"/>
      <point x="277" y="34"/>
      <point x="321" y="45"/>
      <point x="413" y="45" type="curve" smooth="yes"/>
      <point x="646" y="45" type="line" smooth="yes"/>
      <point x="780" y="45"/>
      <point x="881" y="59"/>
      <point x="958" y="105" type="curve" smooth="yes"/>
      <point x="1027" y="147"/>
      <point x="1071" y="217"/>
      <point x="1071" y="329" type="curve" smooth="yes"/>
      <point x="1071" y="463"/>
      <point x="983" y="574"/>
      <point x="804" y="574" type="curve" smooth="yes"/>
      <point x="697" y="574"/>
      <point x="619" y="526"/>
      <point x="579" y="437" type="curve"/>
      <point x="621" y="451" type="line"/>
      <point x="582" y="511"/>
      <point x="511" y="574"/>
    </contour>
  </outline>
</glyph>
<glyph name="nyatamil" format="2">
  <advance width="1358"/>
  <unicode hex="0B9E"/>
  <outline>
    <contour>
      <point x="1105" y="335" type="curve" smooth="yes"/>
      <point x="1061" y="335"/>
      <point x="1022" y="324"/>
      <point x="991" y="309" type="curve"/>
      <point x="990" y="201" type="line"/>
      <point x="1014" y="218"/>
      <point x="1038" y="228"/>
      <point x="1069" y="228" type="curve" smooth="yes"/>
      <point x="1140" y="228"/>
      <point x="1168" y="170"/>
      <point x="1168" y="89" type="curve" smooth="yes"/>
      <point x="1168" y="-121"/>
      <point x="973" y="-210"/>
      <point x="715" y="-210" type="curve" smooth="yes"/>
      <point x="675" y="-210" type="line" smooth="yes"/>
      <point x="326" y="-210"/>
      <point x="197" y="-60"/>
      <point x="197" y="155" type="curve" smooth="yes"/>
      <point x="197" y="167" type="line" smooth="yes"/>
      <point x="197" y="272"/>
      <point x="234" y="396"/>
      <point x="311" y="503" type="curve"/>
      <point x="193" y="573" type="line"/>
      <point x="121" y="466"/>
      <point x="55" y="320"/>
      <point x="55" y="166" type="curve" smooth="yes"/>
      <point x="55" y="148" type="line" smooth="yes"/>
      <point x="55" y="-100"/>
      <point x="214" y="-321"/>
      <point x="671" y="-321" type="curve" smooth="yes"/>
      <point x="725" y="-321" type="line" smooth="yes"/>
      <point x="1010" y="-321"/>
      <point x="1317" y="-217"/>
      <point x="1317" y="93" type="curve" smooth="yes"/>
      <point x="1317" y="245"/>
      <point x="1241" y="335"/>
    </contour>
    <contour>
      <point x="559" y="-12" type="curve" smooth="yes"/>
      <point x="695" y="-12"/>
      <point x="764" y="59"/>
      <point x="764" y="174" type="curve" smooth="yes"/>
      <point x="764" y="285"/>
      <point x="692" y="347"/>
      <point x="584" y="347" type="curve" smooth="yes"/>
      <point x="500" y="347"/>
      <point x="439" y="311"/>
      <point x="390" y="264" type="curve"/>
      <point x="412" y="168" type="line"/>
      <point x="448" y="207"/>
      <point x="491" y="246"/>
      <point x="547" y="246" type="curve" smooth="yes"/>
      <point x="595" y="246"/>
      <point x="624" y="216"/>
      <point x="624" y="167" type="curve" smooth="yes"/>
      <point x="624" y="118"/>
      <point x="598" y="91"/>
      <point x="553" y="91" type="curve" smooth="yes"/>
      <point x="495" y="91"/>
      <point x="461" y="129"/>
      <point x="461" y="224" type="curve" smooth="yes"/>
      <point x="461" y="317"/>
      <point x="493" y="377"/>
      <point x="548" y="414" type="curve" smooth="yes"/>
      <point x="589" y="441"/>
      <point x="636" y="455"/>
      <point x="732" y="455" type="curve" smooth="yes"/>
      <point x="826" y="455" type="line"/>
      <point x="822" y="562" type="line"/>
      <point x="793" y="562" type="line" smooth="yes"/>
      <point x="624" y="562"/>
      <point x="537" y="546"/>
      <point x="463" y="500" type="curve" smooth="yes"/>
      <point x="376" y="446"/>
      <point x="329" y="358"/>
      <point x="329" y="235" type="curve" smooth="yes"/>
      <point x="329" y="72"/>
      <point x="421" y="-12"/>
    </contour>
    <contour>
      <point x="853" y="0" type="line"/>
      <point x="1002" y="0" type="line"/>
      <point x="1002" y="455" type="line"/>
      <point x="1145" y="455" type="line"/>
      <point x="1145" y="562" type="line"/>
      <point x="808" y="562" type="line"/>
      <point x="804" y="455" type="line"/>
      <point x="853" y="455" type="line"/>
    </contour>
  </outline>
</glyph>
<glyph name="ttatamil" format="2">
  <advance width="743"/>
  <unicode hex="0B9F"/>
  <outline>
    <contour>
      <point x="79" y="0" type="line"/>
      <point x="726" y="0" type="line"/>
      <point x="726" y="107" type="line"/>
      <point x="228" y="107" type="line"/>
      <point x="228" y="562" type="line"/>
      <point x="79" y="562" type="line"/>
    </contour>
  </outline>
</glyph>
<glyph name="nnatamil" format="2">
  <advance width="1833"/>
  <unicode hex="0BA3"/>
  <outline>
    <contour>
      <point x="275" y="-12" type="curve" smooth="yes"/>
      <point x="411" y="-12"/>
      <point x="480" y="59"/>
      <point x="480" y="174" type="curve" smooth="yes"/>
      <point x="480" y="285"/>
      <point x="408" y="347"/>
      <point x="300" y="347" type="curve" smooth="yes"/>
      <point x="216" y="347"/>
      <point x="155" y="311"/>
      <point x="106" y="264" type="curve"/>
      <point x="128" y="168" type="line"/>
      <point x="166" y="206"/>
      <point x="207" y="246"/>
      <point x="263" y="246" type="curve" smooth="yes"/>
      <point x="311" y="246"/>
      <point x="340" y="216"/>
      <point x="340" y="167" type="curve" smooth="yes"/>
      <point x="340" y="118"/>
      <point x="314" y="91"/>
      <point x="269" y="91" type="curve" smooth="yes"/>
      <point x="210" y="91"/>
      <point x="177" y="129"/>
      <point x="177" y="227" type="curve" smooth="yes"/>
      <point x="177" y="254"/>
      <point x="179" y="265"/>
      <point x="181" y="280" type="curve"/>
      <point x="198" y="379"/>
      <point x="293" y="465"/>
      <point x="463" y="465" type="curve" smooth="yes"/>
      <point x="548" y="465"/>
      <point x="620" y="448"/>
      <point x="683" y="406" type="curve"/>
      <point x="760" y="362"/>
      <point x="802" y="280"/>
      <point x="802" y="197" type="curve" smooth="yes"/>
      <point x="802" y="138"/>
      <point x="788" y="90"/>
      <point x="741" y="90" type="curve" smooth="yes"/>
      <point x="705" y="90"/>
      <point x="681" y="124"/>
      <point x="681" y="198" type="curve" smooth="yes"/>
      <point x="681" y="293"/>
      <point x="719" y="368"/>
      <point x="792" y="414" type="curve"/>
      <point x="830" y="441"/>
      <point x="887" y="465"/>
      <point x="977" y="465" type="curve" smooth="yes"/>
      <point x="1039" y="465"/>
      <point x="1101" y="457"/>
      <point x="1161" y="413" type="curve"/>
      <point x="1238" y="369"/>
      <point x="1276" y="276"/>
      <point x="1276" y="197" type="curve" smooth="yes"/>
      <point x="1276" y="138"/>
      <point x="1262" y="90"/>
      <point x="1214" y="90" type="curve" smooth="yes"/>
      <point x="1180" y="90"/>
      <point x="1155" y="121"/>
      <point x="1155" y="198" type="curve" smooth="yes"/>
      <point x="1155" y="279"/>
      <point x="1186" y="358"/>
      <point x="1249" y="398" type="curve"/>
      <point x="1308" y="442"/>
      <point x="1339" y="455"/>
      <point x="1480" y="455" type="curve" smooth="yes"/>
      <point x="1524" y="455" type="line"/>
      <point x="1524" y="0" type="line"/>
      <point x="1673" y="0" type="line"/>
      <point x="1673" y="455" type="line"/>
      <point x="1816" y="455" type="line"/>
      <point x="1816" y="562" type="line"/>
      <point x="1498" y="562" type="line" smooth="yes"/>
      <point x="1330" y="562"/>
      <point x="1265" y="540"/>
      <point x="1189" y="493" type="curve"/>
      <point x="1152" y="467" type="line"/>
      <point x="1069" y="397"/>
      <point x="1016" y="295"/>
      <point x="1016" y="187" type="curve" smooth="yes"/>
      <point x="1016" y="78"/>
      <point x="1074" y="-12"/>
      <point x="1218" y="-12" type="curve" smooth="yes"/>
      <point x="1344" y="-12"/>
      <point x="1417" y="64"/>
      <point x="1417" y="187" type="curve" smooth="yes"/>
      <point x="1417" y="311"/>
      <point x="1359" y="408"/>
      <point x="1263" y="483" type="curve"/>
      <point x="1241" y="500" type="line"/>
      <point x="1158" y="557"/>
      <point x="1086" y="574"/>
      <point x="978" y="574" type="curve" smooth="yes"/>
      <point x="862" y="574"/>
      <point x="784" y="548"/>
      <point x="707" y="494" type="curve"/>
      <point x="685" y="475" type="line"/>
      <point x="590" y="393"/>
      <point x="542" y="295"/>
      <point x="542" y="187" type="curve" smooth="yes"/>
      <point x="542" y="78"/>
      <point x="600" y="-12"/>
      <point x="744" y="-12" type="curve" smooth="yes"/>
      <point x="870" y="-12"/>
      <point x="943" y="64"/>
      <point x="943" y="187" type="curve" smooth="yes"/>
      <point x="943" y="312"/>
      <point x="878" y="406"/>
      <point x="786" y="477" type="curve"/>
      <point x="761" y="493" type="line"/>
      <point x="667" y="553"/>
      <point x="585" y="574"/>
      <point x="461" y="574" type="curve" smooth="yes"/>
      <point x="201" y="574"/>
      <point x="45" y="440"/>
      <point x="45" y="240" type="curve" smooth="yes"/>
      <point x="45" y="72"/>
      <point x="137" y="-12"/>
    </contour>
  </outline>
</glyph>
<glyph name="tatamil" format="2">
  <advance width="912"/>
  <unicode hex="0BA4"/>
  <outline>
    <contour>
      <point x="294" y="-12" type="curve" smooth="yes"/>
      <point x="394" y="-12"/>
      <point x="473" y="7"/>
      <point x="521" y="61" type="curve" smooth="yes"/>
      <point x="554" y="98"/>
      <point x="573" y="146"/>
      <point x="573" y="240" type="curve" smooth="yes"/>
      <point x="573" y="455" type="line"/>
      <point x="762" y="455" type="line"/>
      <point x="762" y="562" type="line"/>
      <point x="143" y="562" type="line"/>
      <point x="143" y="286" type="line"/>
      <point x="277" y="302" type="line"/>
      <point x="277" y="455" type="line"/>
      <point x="428" y="455" type="line"/>
      <point x="428" y="238" type="line" smooth="yes"/>
      <point x="428" y="125"/>
      <point x="381" y="95"/>
      <point x="304" y="95" type="curve" smooth="yes"/>
      <point x="233" y="95"/>
      <point x="188" y="118"/>
      <point x="188" y="168" type="curve" smooth="yes"/>
      <point x="188" y="195"/>
      <point x="200" y="215"/>
      <point x="225" y="228" type="curve" smooth="yes"/>
      <point x="254" y="243"/>
      <point x="298" y="246"/>
      <point x="345" y="246" type="curve" smooth="yes"/>
      <point x="520" y="246" type="line" smooth="yes"/>
      <point x="616" y="246"/>
      <point x="727" y="226"/>
      <point x="727" y="109" type="curve" smooth="yes"/>
      <point x="727" y="64"/>
      <point x="713" y="28"/>
      <point x="687" y="2" type="curve" smooth="yes"/>
      <point x="642" y="-44"/>
      <point x="571" y="-62"/>
      <point x="397" y="-62" type="curve" smooth="yes"/>
      <point x="307" y="-62" type="line" smooth="yes"/>
      <point x="196" y="-62"/>
      <point x="148" y="-74"/>
      <point x="108" y="-102" type="curve" smooth="yes"/>
      <point x="68" y="-130"/>
      <point x="42" y="-175"/>
      <point x="42" y="-235" type="curve" smooth="yes"/>
      <point x="42" y="-267"/>
      <point x="44" y="-293"/>
      <point x="48" y="-321" type="curve"/>
      <point x="194" y="-314" type="line"/>
      <point x="192" y="-300"/>
      <point x="191" y="-287"/>
      <point x="191" y="-272" type="curve" smooth="yes"/>
      <point x="191" y="-230"/>
      <point x="204" y="-207"/>
      <point x="225" y="-191" type="curve" smooth="yes"/>
      <point x="246" y="-176"/>
      <point x="271" y="-169"/>
      <point x="353" y="-169" type="curve" smooth="yes"/>
      <point x="431" y="-169" type="line" smooth="yes"/>
      <point x="594" y="-169"/>
      <point x="698" y="-146"/>
      <point x="764" y="-101" type="curve" smooth="yes"/>
      <point x="834" y="-54"/>
      <point x="874" y="6"/>
      <point x="874" y="97" type="curve" smooth="yes"/>
      <point x="874" y="283"/>
      <point x="730" y="347"/>
      <point x="531" y="347" type="curve" smooth="yes"/>
      <point x="364" y="347" type="line" smooth="yes"/>
      <point x="133" y="347"/>
      <point x="41" y="274"/>
      <point x="41" y="165" type="curve" smooth="yes"/>
      <point x="41" y="50"/>
      <point x="143" y="-12"/>
    </contour>
  </outline>
</glyph>
<glyph name="natamil" format="2">
  <advance width="890"/>
  <unicode hex="0BA8"/>
  <outline>
    <contour>
      <point x="637" y="362" type="curve" smooth="yes"/>
      <point x="586" y="362"/>
      <point x="545" y="348"/>
      <point x="512" y="329" type="curve"/>
      <point x="514" y="223" type="line"/>
      <point x="541" y="243"/>
      <point x="566" y="255"/>
      <point x="603" y="255" type="curve" smooth="yes"/>
      <point x="666" y="255"/>
      <point x="703" y="210"/>
      <point x="703" y="125" type="curve" smooth="yes"/>
      <point x="703" y="64"/>
      <point x="685" y="20"/>
      <point x="661" y="-4" type="curve" smooth="yes"/>
      <point x="618" y="-47"/>
      <point x="565" y="-62"/>
      <point x="420" y="-62" type="curve" smooth="yes"/>
      <point x="305" y="-62" type="line" smooth="yes"/>
      <point x="194" y="-62"/>
      <point x="146" y="-74"/>
      <point x="106" y="-102" type="curve" smooth="yes"/>
      <point x="66" y="-130"/>
      <point x="40" y="-175"/>
      <point x="40" y="-235" type="curve" smooth="yes"/>
      <point x="40" y="-267"/>
      <point x="42" y="-293"/>
      <point x="46" y="-321" type="curve"/>
      <point x="192" y="-314" type="line"/>
      <point x="190" y="-300"/>
      <point x="189" y="-287"/>
      <point x="189" y="-272" type="curve" smooth="yes"/>
      <point x="189" y="-230"/>
      <point x="202" y="-207"/>
      <point x="223" y="-191" type="curve" smooth="yes"/>
      <point x="244" y="-176"/>
      <point x="269" y="-169"/>
      <point x="350" y="-169" type="curve" smooth="yes"/>
      <point x="439" y="-169" type="line" smooth="yes"/>
      <point x="580" y="-169"/>
      <point x="675" y="-152"/>
      <point x="743" y="-105" type="curve" smooth="yes"/>
      <point x="806" y="-62"/>
      <point x="849" y="11"/>
      <point x="849" y="128" type="curve" smooth="yes"/>
      <point x="849" y="282"/>
      <point x="764" y="362"/>
    </contour>
    <contour>
      <point x="79" y="0" type="line"/>
      <point x="228" y="0" type="line"/>
      <point x="228" y="455" type="line"/>
      <point x="377" y="455" type="line"/>
      <point x="377" y="0" type="line"/>
      <point x="526" y="0" type="line"/>
      <point x="526" y="455" type="line"/>
      <point x="670" y="455" type="line"/>
      <point x="670" y="562" type="line"/>
      <point x="79" y="562" type="line"/>
    </contour>
  </outline>
</glyph>
<glyph name="nnnatamil" format="2">
  <advance width="1359"/>
  <unicode hex="0BA9"/>
  <outline>
    <contour>
      <point x="275" y="-12" type="curve" smooth="yes"/>
      <point x="411" y="-12"/>
      <point x="480" y="59"/>
      <point x="480" y="174" type="curve" smooth="yes"/>
      <point x="480" y="285"/>
      <point x="408" y="347"/>
      <point x="300" y="347" type="curve" smooth="yes"/>
      <point x="216" y="347"/>
      <point x="155" y="311"/>
      <point x="106" y="264" type="curve"/>
      <point x="128" y="168" type="line"/>
      <point x="166" y="206"/>
      <point x="207" y="246"/>
      <point x="263" y="246" type="curve" smooth="yes"/>
      <point x="311" y="246"/>
      <point x="340" y="216"/>
      <point x="340" y="167" type="curve" smooth="yes"/>
      <point x="340" y="118"/>
      <point x="314" y="91"/>
      <point x="269" y="91" type="curve" smooth="yes"/>
      <point x="210" y="91"/>
      <point x="177" y="129"/>
      <point x="177" y="227" type="curve" smooth="yes"/>
      <point x="177" y="254"/>
      <point x="179" y="265"/>
      <point x="181" y="280" type="curve"/>
      <point x="198" y="379"/>
      <point x="292" y="465"/>
      <point x="463" y="465" type="curve" smooth="yes"/>
      <point x="548" y="465"/>
      <point x="620" y="448"/>
      <point x="683" y="406" type="curve"/>
      <point x="760" y="362"/>
      <point x="802" y="280"/>
      <point x="802" y="197" type="curve" smooth="yes"/>
      <point x="802" y="138"/>
      <point x="788" y="90"/>
      <point x="741" y="90" type="curve" smooth="yes"/>
      <point x="706" y="90"/>
      <point x="681" y="121"/>
      <point x="681" y="198" type="curve" smooth="yes"/>
      <point x="681" y="279"/>
      <point x="712" y="358"/>
      <point x="775" y="398" type="curve"/>
      <point x="834" y="442"/>
      <point x="865" y="455"/>
      <point x="1006" y="455" type="curve" smooth="yes"/>
      <point x="1050" y="455" type="line"/>
      <point x="1050" y="0" type="line"/>
      <point x="1199" y="0" type="line"/>
      <point x="1199" y="455" type="line"/>
      <point x="1342" y="455" type="line"/>
      <point x="1342" y="562" type="line"/>
      <point x="1022" y="562" type="line" smooth="yes"/>
      <point x="856" y="562"/>
      <point x="791" y="540"/>
      <point x="715" y="493" type="curve"/>
      <point x="678" y="467" type="line"/>
      <point x="595" y="397"/>
      <point x="542" y="295"/>
      <point x="542" y="187" type="curve" smooth="yes"/>
      <point x="542" y="78"/>
      <point x="600" y="-12"/>
      <point x="745" y="-12" type="curve" smooth="yes"/>
      <point x="870" y="-12"/>
      <point x="943" y="64"/>
      <point x="943" y="187" type="curve" smooth="yes"/>
      <point x="943" y="311"/>
      <point x="878" y="406"/>
      <point x="786" y="477" type="curve"/>
      <point x="761" y="493" type="line"/>
      <point x="667" y="553"/>
      <point x="585" y="574"/>
      <point x="461" y="574" type="curve" smooth="yes"/>
      <point x="202" y="574"/>
      <point x="45" y="440"/>
      <point x="45" y="240" type="curve" smooth="yes"/>
      <point x="45" y="72"/>
      <point x="137" y="-12"/>
    </contour>
  </outline>
</glyph>
<glyph name="patamil" format="2">
  <advance width="831"/>
  <unicode hex="0BAA"/>
  <outline>
    <contour>
      <point x="79" y="0" type="line"/>
      <point x="751" y="0" type="line"/>
      <point x="751" y="562" type="line"/>
      <point x="602" y="562" type="line"/>
      <point x="602" y="107" type="line"/>
      <point x="228" y="107" type="line"/>
      <point x="228" y="562" type="line"/>
      <point x="79" y="562" type="line"/>
    </contour>
  </outline>
</glyph>
<glyph name="matamil" format="2">
  <advance width="936"/>
  <unicode hex="0BAE"/>
  <outline>
    <contour>
      <point x="623" y="574" type="curve" smooth="yes"/>
      <point x="554" y="574"/>
      <point x="501" y="556"/>
      <point x="465" y="521" type="curve" smooth="yes"/>
      <point x="430" y="486"/>
      <point x="412" y="438"/>
      <point x="412" y="355" type="curve" smooth="yes"/>
      <point x="412" y="107" type="line"/>
      <point x="228" y="107" type="line"/>
      <point x="228" y="562" type="line"/>
      <point x="79" y="562" type="line"/>
      <point x="79" y="0" type="line"/>
      <point x="554" y="0" type="line"/>
      <point x="693" y="0"/>
      <point x="759" y="14"/>
      <point x="814" y="60" type="curve" smooth="yes"/>
      <point x="865" y="103"/>
      <point x="887" y="169"/>
      <point x="887" y="270" type="curve" smooth="yes"/>
      <point x="887" y="444"/>
      <point x="808" y="574"/>
    </contour>
    <contour>
      <point x="633" y="467" type="curve" smooth="yes"/>
      <point x="711" y="467"/>
      <point x="738" y="379"/>
      <point x="738" y="270" type="curve" smooth="yes"/>
      <point x="738" y="149"/>
      <point x="705" y="107"/>
      <point x="599" y="107" type="curve" smooth="yes"/>
      <point x="561" y="107" type="line"/>
      <point x="561" y="340" type="line" smooth="yes"/>
      <point x="561" y="408"/>
      <point x="567" y="431"/>
      <point x="585" y="449" type="curve" smooth="yes"/>
      <point x="598" y="462"/>
      <point x="615" y="467"/>
    </contour>
  </outline>
</glyph>
<glyph name="yatamil" format="2">
  <advance width="1037"/>
  <unicode hex="0BAF"/>
  <outline>
    <contour>
      <point x="369" y="0" type="line"/>
      <point x="957" y="0" type="line"/>
      <point x="957" y="562" type="line"/>
      <point x="808" y="562" type="line"/>
      <point x="808" y="107" type="line"/>
      <point x="518" y="107" type="line"/>
      <point x="518" y="562" type="line"/>
      <point x="369" y="562" type="line"/>
    </contour>
    <contour>
      <point x="256" y="-12" type="curve" smooth="yes"/>
      <point x="312" y="-12"/>
      <point x="355" y="11"/>
      <point x="387" y="43" type="curve"/>
      <point x="389" y="156" type="line"/>
      <point x="366" y="119"/>
      <point x="337" y="95"/>
      <point x="300" y="95" type="curve" smooth="yes"/>
      <point x="278" y="95"/>
      <point x="260" y="102"/>
      <point x="249" y="114" type="curve" smooth="yes"/>
      <point x="232" y="132"/>
      <point x="228" y="161"/>
      <point x="228" y="212" type="curve" smooth="yes"/>
      <point x="228" y="562" type="line"/>
      <point x="79" y="562" type="line"/>
      <point x="79" y="202" type="line" smooth="yes"/>
      <point x="79" y="104"/>
      <point x="102" y="63"/>
      <point x="129" y="34" type="curve" smooth="yes"/>
      <point x="158" y="3"/>
      <point x="197" y="-12"/>
    </contour>
  </outline>
</glyph>
<glyph name="ratamil" format="2">
  <advance width="693"/>
  <unicode hex="0BB0"/>
  <outline>
    <contour>
      <point x="309" y="-213" type="line"/>
      <point x="533" y="0" type="line"/>
      <point x="533" y="455" type="line"/>
      <point x="676" y="455" type="line"/>
      <point x="676" y="562" type="line"/>
      <point x="79" y="562" type="line"/>
      <point x="79" y="0" type="line"/>
      <point x="228" y="0" type="line"/>
      <point x="228" y="455" type="line"/>
      <point x="384" y="455" type="line"/>
      <point x="384" y="33" type="line"/>
      <point x="215" y="-126" type="line"/>
    </contour>
  </outline>
</glyph>
<glyph name="rratamil" format="2">
  <advance width="971"/>
  <unicode hex="0BB1"/>
  <outline>
    <contour>
      <point x="644" y="574" type="curve" smooth="yes"/>
      <point x="532" y="574"/>
      <point x="481" y="525"/>
      <point x="429" y="453" type="curve"/>
      <point x="483" y="441" type="line"/>
      <point x="432" y="536"/>
      <point x="384" y="574"/>
      <point x="277" y="574" type="curve" smooth="yes"/>
      <point x="225" y="574"/>
      <point x="175" y="558"/>
      <point x="139" y="524" type="curve" smooth="yes"/>
      <point x="98" y="486"/>
      <point x="77" y="429"/>
      <point x="77" y="331" type="curve" smooth="yes"/>
      <point x="77" y="0" type="line"/>
      <point x="226" y="0" type="line"/>
      <point x="226" y="303" type="line" smooth="yes"/>
      <point x="226" y="376"/>
      <point x="229" y="414"/>
      <point x="246" y="439" type="curve" smooth="yes"/>
      <point x="257" y="457"/>
      <point x="277" y="467"/>
      <point x="303" y="467" type="curve" smooth="yes"/>
      <point x="330" y="467"/>
      <point x="346" y="456"/>
      <point x="358" y="439" type="curve" smooth="yes"/>
      <point x="375" y="414"/>
      <point x="378" y="376"/>
      <point x="378" y="303" type="curve" smooth="yes"/>
      <point x="378" y="0" type="line"/>
      <point x="527" y="0" type="line"/>
      <point x="527" y="309" type="line" smooth="yes"/>
      <point x="527" y="370"/>
      <point x="532" y="405"/>
      <point x="555" y="434" type="curve" smooth="yes"/>
      <point x="575" y="458"/>
      <point x="601" y="467"/>
      <point x="634" y="467" type="curve" smooth="yes"/>
      <point x="711" y="467"/>
      <point x="770" y="402"/>
      <point x="770" y="237" type="curve" smooth="yes"/>
      <point x="770" y="-12"/>
      <point x="664" y="-62"/>
      <point x="431" y="-62" type="curve" smooth="yes"/>
      <point x="303" y="-62" type="line" smooth="yes"/>
      <point x="192" y="-62"/>
      <point x="144" y="-74"/>
      <point x="104" y="-102" type="curve" smooth="yes"/>
      <point x="64" y="-130"/>
      <point x="38" y="-175"/>
      <point x="38" y="-235" type="curve" smooth="yes"/>
      <point x="38" y="-267"/>
      <point x="40" y="-293"/>
      <point x="44" y="-321" type="curve"/>
      <point x="190" y="-314" type="line"/>
      <point x="188" y="-300"/>
      <point x="187" y="-287"/>
      <point x="187" y="-272" type="curve" smooth="yes"/>
      <point x="187" y="-230"/>
      <point x="200" y="-207"/>
      <point x="221" y="-191" type="curve" smooth="yes"/>
      <point x="242" y="-176"/>
      <point x="267" y="-169"/>
      <point x="348" y="-169" type="curve" smooth="yes"/>
      <point x="451" y="-169" type="line" smooth="yes"/>
      <point x="604" y="-169"/>
      <point x="719" y="-151"/>
      <point x="801" y="-84" type="curve" smooth="yes"/>
      <point x="875" y="-24"/>
      <point x="919" y="76"/>
      <point x="919" y="239" type="curve" smooth="yes"/>
      <point x="919" y="447"/>
      <point x="822" y="574"/>
    </contour>
  </outline>
</glyph>
<glyph name="latamil" format="2">
  <advance width="1117"/>
  <unicode hex="0BB2"/>
  <outline>
    <contour>
      <point x="275" y="-12" type="curve" smooth="yes"/>
      <point x="409" y="-12"/>
      <point x="480" y="59"/>
      <point x="480" y="174" type="curve" smooth="yes"/>
      <point x="480" y="285"/>
      <point x="407" y="347"/>
      <point x="300" y="347" type="curve" smooth="yes"/>
      <point x="216" y="347"/>
      <point x="155" y="311"/>
      <point x="106" y="264" type="curve"/>
      <point x="128" y="168" type="line"/>
      <point x="164" y="207"/>
      <point x="208" y="246"/>
      <point x="263" y="246" type="curve" smooth="yes"/>
      <point x="311" y="246"/>
      <point x="340" y="216"/>
      <point x="340" y="167" type="curve" smooth="yes"/>
      <point x="340" y="118"/>
      <point x="314" y="91"/>
      <point x="269" y="91" type="curve" smooth="yes"/>
      <point x="211" y="91"/>
      <point x="177" y="129"/>
      <point x="177" y="229" type="curve" smooth="yes"/>
      <point x="177" y="367"/>
      <point x="259" y="465"/>
      <point x="394" y="465" type="curve" smooth="yes"/>
      <point x="458" y="465"/>
      <point x="497" y="445"/>
      <point x="523" y="409" type="curve" smooth="yes"/>
      <point x="552" y="368"/>
      <point x="559" y="307"/>
      <point x="564" y="232" type="curve" smooth="yes"/>
      <point x="570" y="135"/>
      <point x="600" y="72"/>
      <point x="647" y="35" type="curve" smooth="yes"/>
      <point x="688" y="2"/>
      <point x="743" y="-12"/>
      <point x="804" y="-12" type="curve" smooth="yes"/>
      <point x="987" y="-12"/>
      <point x="1065" y="97"/>
      <point x="1065" y="257" type="curve" smooth="yes"/>
      <point x="1065" y="385"/>
      <point x="1021" y="500"/>
      <point x="930" y="610" type="curve"/>
      <point x="807" y="537" type="line"/>
      <point x="875" y="452"/>
      <point x="916" y="344"/>
      <point x="916" y="251" type="curve" smooth="yes"/>
      <point x="916" y="131"/>
      <point x="875" y="95"/>
      <point x="813" y="95" type="curve" smooth="yes"/>
      <point x="789" y="95"/>
      <point x="771" y="101"/>
      <point x="756" y="112" type="curve" smooth="yes"/>
      <point x="723" y="136"/>
      <point x="717" y="185"/>
      <point x="714" y="240" type="curve" smooth="yes"/>
      <point x="705" y="402"/>
      <point x="678" y="463"/>
      <point x="626" y="508" type="curve" smooth="yes"/>
      <point x="572" y="554"/>
      <point x="503" y="574"/>
      <point x="407" y="574" type="curve" smooth="yes"/>
      <point x="211" y="574"/>
      <point x="45" y="456"/>
      <point x="45" y="241" type="curve" smooth="yes"/>
      <point x="45" y="72"/>
      <point x="137" y="-12"/>
    </contour>
  </outline>
</glyph>
<glyph name="llatamil" format="2">
  <advance width="1175"/>
  <unicode hex="0BB3"/>
  <outline>
    <contour>
      <point x="275" y="-12" type="curve" smooth="yes"/>
      <point x="410" y="-12"/>
      <point x="480" y="59"/>
      <point x="480" y="174" type="curve" smooth="yes"/>
      <point x="480" y="285"/>
      <point x="406" y="347"/>
      <point x="300" y="347" type="curve" smooth="yes"/>
      <point x="216" y="347"/>
      <point x="155" y="311"/>
      <point x="106" y="264" type="curve"/>
      <point x="128" y="168" type="line"/>
      <point x="164" y="207"/>
      <point x="207" y="246"/>
      <point x="263" y="246" type="curve" smooth="yes"/>
      <point x="309" y="246"/>
      <point x="340" y="217"/>
      <point x="340" y="167" type="curve" smooth="yes"/>
      <point x="340" y="117"/>
      <point x="313" y="90"/>
      <point x="269" y="90" type="curve" smooth="yes"/>
      <point x="211" y="90"/>
      <point x="177" y="129"/>
      <point x="177" y="229" type="curve" smooth="yes"/>
      <point x="177" y="372"/>
      <point x="262" y="465"/>
      <point x="384" y="465" type="curve" smooth="yes"/>
      <point x="476" y="465"/>
      <point x="538" y="422"/>
      <point x="584" y="366" type="curve"/>
      <point x="644" y="484" type="line"/>
      <point x="561" y="544"/>
      <point x="495" y="574"/>
      <point x="389" y="574" type="curve" smooth="yes"/>
      <point x="203" y="574"/>
      <point x="45" y="456"/>
      <point x="45" y="242" type="curve" smooth="yes"/>
      <point x="45" y="72"/>
      <point x="137" y="-12"/>
    </contour>
    <contour>
      <point x="568" y="0" type="line"/>
      <point x="717" y="0" type="line"/>
      <point x="717" y="455" type="line"/>
      <point x="866" y="455" type="line"/>
      <point x="866" y="0" type="line"/>
      <point x="1015" y="0" type="line"/>
      <point x="1015" y="455" type="line"/>
      <point x="1158" y="455" type="line"/>
      <point x="1158" y="562" type="line"/>
      <point x="589" y="562" type="line"/>
      <point x="588" y="479" type="line"/>
      <point x="568" y="453" type="line"/>
    </contour>
  </outline>
</glyph>
<glyph name="lllatamil" format="2">
  <advance width="936"/>
  <unicode hex="0BB4"/>
  <outline>
    <contour>
      <point x="623" y="574" type="curve" smooth="yes"/>
      <point x="554" y="574"/>
      <point x="501" y="556"/>
      <point x="465" y="521" type="curve" smooth="yes"/>
      <point x="430" y="486"/>
      <point x="412" y="438"/>
      <point x="412" y="355" type="curve" smooth="yes"/>
      <point x="412" y="107" type="line"/>
      <point x="228" y="107" type="line"/>
      <point x="228" y="562" type="line"/>
      <point x="79" y="562" type="line"/>
      <point x="79" y="0" type="line"/>
      <point x="554" y="0" type="line" smooth="yes"/>
      <point x="693" y="0"/>
      <point x="759" y="14"/>
      <point x="814" y="60" type="curve" smooth="yes"/>
      <point x="865" y="103"/>
      <point x="887" y="169"/>
      <point x="887" y="270" type="curve" smooth="yes"/>
      <point x="887" y="444"/>
      <point x="808" y="574"/>
    </contour>
    <contour>
      <point x="633" y="467" type="curve" smooth="yes"/>
      <point x="711" y="467"/>
      <point x="738" y="379"/>
      <point x="738" y="270" type="curve" smooth="yes"/>
      <point x="738" y="149"/>
      <point x="705" y="107"/>
      <point x="599" y="107" type="curve" smooth="yes"/>
      <point x="561" y="107" type="line"/>
      <point x="561" y="340" type="line" smooth="yes"/>
      <point x="561" y="408"/>
      <point x="567" y="431"/>
      <point x="585" y="449" type="curve" smooth="yes"/>
      <point x="598" y="462"/>
      <point x="615" y="467"/>
    </contour>
    <contour>
      <point x="228" y="-43" type="curve" smooth="yes"/>
      <point x="112" y="-43"/>
      <point x="47" y="-95"/>
      <point x="47" y="-177" type="curve" smooth="yes"/>
      <point x="47" y="-226"/>
      <point x="73" y="-259"/>
      <point x="101" y="-278" type="curve" smooth="yes"/>
      <point x="137" y="-304"/>
      <point x="203" y="-321"/>
      <point x="275" y="-321" type="curve" smooth="yes"/>
      <point x="312" y="-321" type="line" smooth="yes"/>
      <point x="463" y="-321"/>
      <point x="555" y="-274"/>
      <point x="602" y="-167" type="curve" smooth="yes"/>
      <point x="614" y="-140"/>
      <point x="636" y="-125"/>
      <point x="693" y="-113" type="curve"/>
      <point x="602" y="-84" type="line"/>
      <point x="522" y="-84"/>
      <point x="483" y="-103"/>
      <point x="472" y="-125" type="curve" smooth="yes"/>
      <point x="439" y="-187"/>
      <point x="388" y="-217"/>
      <point x="300" y="-217" type="curve" smooth="yes"/>
      <point x="273" y="-217" type="line" smooth="yes"/>
      <point x="232" y="-217"/>
      <point x="188" y="-211"/>
      <point x="188" y="-179" type="curve" smooth="yes"/>
      <point x="188" y="-155"/>
      <point x="215" y="-146"/>
      <point x="248" y="-146" type="curve" smooth="yes"/>
      <point x="269" y="-146"/>
      <point x="289" y="-147"/>
      <point x="302" y="-149" type="curve"/>
      <point x="309" y="-50" type="line"/>
      <point x="285" y="-45"/>
      <point x="254" y="-43"/>
    </contour>
    <contour>
      <point x="564" y="-184" type="line"/>
      <point x="780" y="-184" type="line"/>
      <point x="780" y="-78" type="line"/>
      <point x="674" y="-78" type="line" smooth="yes"/>
      <point x="633" y="-78"/>
      <point x="612" y="-75"/>
      <point x="593" y="-66" type="curve" smooth="yes"/>
      <point x="567" y="-54"/>
      <point x="557" y="-30"/>
      <point x="557" y="2" type="curve"/>
      <point x="413" y="1" type="line"/>
      <point x="417" y="-108"/>
      <point x="475" y="-155"/>
      <point x="555" y="-172" type="curve"/>
    </contour>
  </outline>
</glyph>
<glyph name="shatamil" format="2">
  <advance width="1291"/>
  <unicode hex="0BB6"/>
  <outline>
    <contour>
      <point x="331" y="-12" type="curve" smooth="yes"/>
      <point x="432" y="-12"/>
      <point x="503" y="13"/>
      <point x="543" y="68" type="curve" smooth="yes"/>
      <point x="570" y="105"/>
      <point x="584" y="153"/>
      <point x="584" y="230" type="curve" smooth="yes"/>
      <point x="584" y="455" type="line"/>
      <point x="705" y="455" type="line"/>
      <point x="705" y="246" type="line" smooth="yes"/>
      <point x="705" y="154"/>
      <point x="720" y="107"/>
      <point x="747" y="69" type="curve" smooth="yes"/>
      <point x="787" y="13"/>
      <point x="861" y="-12"/>
      <point x="959" y="-12" type="curve" smooth="yes"/>
      <point x="1058" y="-12"/>
      <point x="1127" y="12"/>
      <point x="1168" y="62" type="curve" smooth="yes"/>
      <point x="1198" y="100"/>
      <point x="1213" y="147"/>
      <point x="1213" y="229" type="curve" smooth="yes"/>
      <point x="1213" y="562" type="line"/>
      <point x="435" y="562" type="line"/>
      <point x="435" y="242" type="line" smooth="yes"/>
      <point x="435" y="194"/>
      <point x="430" y="161"/>
      <point x="413" y="133" type="curve" smooth="yes"/>
      <point x="397" y="109"/>
      <point x="372" y="95"/>
      <point x="331" y="95" type="curve" smooth="yes"/>
      <point x="298" y="95"/>
      <point x="275" y="104"/>
      <point x="259" y="119" type="curve" smooth="yes"/>
      <point x="232" y="144"/>
      <point x="226" y="175"/>
      <point x="226" y="237" type="curve" smooth="yes"/>
      <point x="226" y="562" type="line"/>
      <point x="77" y="562" type="line"/>
      <point x="77" y="246" type="line" smooth="yes"/>
      <point x="77" y="154"/>
      <point x="92" y="105"/>
      <point x="120" y="69" type="curve" smooth="yes"/>
      <point x="161" y="14"/>
      <point x="232" y="-12"/>
    </contour>
    <contour>
      <point x="959" y="95" type="curve" smooth="yes"/>
      <point x="926" y="95"/>
      <point x="903" y="104"/>
      <point x="887" y="119" type="curve" smooth="yes"/>
      <point x="861" y="144"/>
      <point x="854" y="175"/>
      <point x="854" y="237" type="curve" smooth="yes"/>
      <point x="854" y="455" type="line"/>
      <point x="1064" y="455" type="line"/>
      <point x="1064" y="242" type="line" smooth="yes"/>
      <point x="1064" y="194"/>
      <point x="1060" y="161"/>
      <point x="1042" y="133" type="curve" smooth="yes"/>
      <point x="1026" y="109"/>
      <point x="1001" y="95"/>
    </contour>
  </outline>
</glyph>
<glyph name="ssatamil" format="2">
  <advance width="1528"/>
  <unicode hex="0BB7"/>
  <outline>
    <contour>
      <point x="1032" y="574" type="curve" smooth="yes"/>
      <point x="893" y="574"/>
      <point x="826" y="481"/>
      <point x="826" y="389" type="curve" smooth="yes"/>
      <point x="826" y="272"/>
      <point x="906" y="185"/>
      <point x="1106" y="185" type="curve" smooth="yes"/>
      <point x="1133" y="185" type="line" smooth="yes"/>
      <point x="1230" y="185"/>
      <point x="1309" y="211"/>
      <point x="1342" y="233" type="curve"/>
      <point x="1341" y="213"/>
      <point x="1340" y="182"/>
      <point x="1340" y="162" type="curve" smooth="yes"/>
      <point x="1340" y="107" type="line"/>
      <point x="820" y="107" type="line"/>
      <point x="821" y="0" type="line"/>
      <point x="1468" y="0" type="line"/>
      <point x="1468" y="347" type="line"/>
      <point x="1340" y="347" type="line"/>
      <point x="1286" y="310"/>
      <point x="1234" y="289"/>
      <point x="1166" y="289" type="curve" smooth="yes"/>
      <point x="1102" y="289" type="line" smooth="yes"/>
      <point x="1011" y="289"/>
      <point x="961" y="318"/>
      <point x="961" y="383" type="curve" smooth="yes"/>
      <point x="961" y="431"/>
      <point x="984" y="469"/>
      <point x="1033" y="469" type="curve" smooth="yes"/>
      <point x="1073" y="469"/>
      <point x="1087" y="443"/>
      <point x="1087" y="402" type="curve" smooth="yes"/>
      <point x="1087" y="362"/>
      <point x="1079" y="311"/>
      <point x="1062" y="248" type="curve" smooth="yes"/>
      <point x="1017" y="79" type="line"/>
      <point x="1014" y="48" type="line"/>
      <point x="931" y="-248" type="line"/>
      <point x="1067" y="-284" type="line"/>
      <point x="1194" y="209" type="line"/>
      <point x="1203" y="249" type="line"/>
      <point x="1221" y="329"/>
      <point x="1226" y="369"/>
      <point x="1226" y="408" type="curve" smooth="yes"/>
      <point x="1226" y="477"/>
      <point x="1188" y="574"/>
    </contour>
    <contour>
      <point x="275" y="-12" type="curve" smooth="yes"/>
      <point x="409" y="-12"/>
      <point x="480" y="59"/>
      <point x="480" y="174" type="curve" smooth="yes"/>
      <point x="480" y="285"/>
      <point x="407" y="347"/>
      <point x="300" y="347" type="curve" smooth="yes"/>
      <point x="216" y="347"/>
      <point x="155" y="311"/>
      <point x="106" y="264" type="curve"/>
      <point x="128" y="168" type="line"/>
      <point x="164" y="207"/>
      <point x="207" y="246"/>
      <point x="263" y="246" type="curve" smooth="yes"/>
      <point x="311" y="246"/>
      <point x="340" y="217"/>
      <point x="340" y="167" type="curve" smooth="yes"/>
      <point x="340" y="118"/>
      <point x="314" y="91"/>
      <point x="269" y="91" type="curve" smooth="yes"/>
      <point x="211" y="91"/>
      <point x="177" y="129"/>
      <point x="177" y="229" type="curve" smooth="yes"/>
      <point x="177" y="358"/>
      <point x="254" y="465"/>
      <point x="391" y="465" type="curve" smooth="yes"/>
      <point x="520" y="465"/>
      <point x="589" y="393"/>
      <point x="589" y="267" type="curve" smooth="yes"/>
      <point x="589" y="190"/>
      <point x="569" y="126"/>
      <point x="544" y="81" type="curve"/>
      <point x="549" y="0" type="line"/>
      <point x="890" y="0" type="line"/>
      <point x="913" y="107" type="line"/>
      <point x="702" y="107" type="line"/>
      <point x="723" y="159"/>
      <point x="738" y="219"/>
      <point x="738" y="284" type="curve" smooth="yes"/>
      <point x="738" y="437"/>
      <point x="647" y="574"/>
      <point x="402" y="574" type="curve" smooth="yes"/>
      <point x="199" y="574"/>
      <point x="45" y="456"/>
      <point x="45" y="241" type="curve" smooth="yes"/>
      <point x="45" y="72"/>
      <point x="137" y="-12"/>
    </contour>
  </outline>
</glyph>
<glyph name="satamil" format="2">
  <advance width="1421"/>
  <unicode hex="0BB8"/>
  <outline>
    <contour>
      <point x="275" y="-12" type="curve" smooth="yes"/>
      <point x="409" y="-12"/>
      <point x="480" y="59"/>
      <point x="480" y="174" type="curve" smooth="yes"/>
      <point x="480" y="285"/>
      <point x="407" y="347"/>
      <point x="300" y="347" type="curve" smooth="yes"/>
      <point x="216" y="347"/>
      <point x="155" y="311"/>
      <point x="106" y="264" type="curve"/>
      <point x="128" y="168" type="line"/>
      <point x="164" y="207"/>
      <point x="208" y="246"/>
      <point x="263" y="246" type="curve" smooth="yes"/>
      <point x="311" y="246"/>
      <point x="340" y="216"/>
      <point x="340" y="167" type="curve" smooth="yes"/>
      <point x="340" y="118"/>
      <point x="314" y="91"/>
      <point x="269" y="91" type="curve" smooth="yes"/>
      <point x="211" y="91"/>
      <point x="177" y="129"/>
      <point x="177" y="229" type="curve"/>
      <point x="177" y="367"/>
      <point x="259" y="465"/>
      <point x="394" y="465" type="curve" smooth="yes"/>
      <point x="458" y="465"/>
      <point x="499" y="446"/>
      <point x="527" y="415" type="curve" smooth="yes"/>
      <point x="556" y="382"/>
      <point x="568" y="338"/>
      <point x="568" y="261" type="curve" smooth="yes"/>
      <point x="568" y="0" type="line"/>
      <point x="717" y="0" type="line"/>
      <point x="717" y="303" type="line" smooth="yes"/>
      <point x="717" y="377"/>
      <point x="720" y="414"/>
      <point x="737" y="439" type="curve"/>
      <point x="748" y="457"/>
      <point x="768" y="467"/>
      <point x="794" y="467" type="curve" smooth="yes"/>
      <point x="821" y="467"/>
      <point x="839" y="457"/>
      <point x="850" y="438" type="curve"/>
      <point x="866" y="412"/>
      <point x="869" y="375"/>
      <point x="869" y="299" type="curve" smooth="yes"/>
      <point x="869" y="256" type="line" smooth="yes"/>
      <point x="869" y="138"/>
      <point x="904" y="72"/>
      <point x="951" y="35" type="curve" smooth="yes"/>
      <point x="992" y="2"/>
      <point x="1047" y="-12"/>
      <point x="1108" y="-12" type="curve" smooth="yes"/>
      <point x="1291" y="-12"/>
      <point x="1369" y="97"/>
      <point x="1369" y="257" type="curve" smooth="yes"/>
      <point x="1369" y="385"/>
      <point x="1325" y="500"/>
      <point x="1234" y="610" type="curve"/>
      <point x="1111" y="537" type="line"/>
      <point x="1179" y="452"/>
      <point x="1220" y="344"/>
      <point x="1220" y="251" type="curve" smooth="yes"/>
      <point x="1220" y="131"/>
      <point x="1179" y="95"/>
      <point x="1117" y="95" type="curve" smooth="yes"/>
      <point x="1093" y="95"/>
      <point x="1075" y="101"/>
      <point x="1060" y="112" type="curve" smooth="yes"/>
      <point x="1027" y="136"/>
      <point x="1018" y="186"/>
      <point x="1018" y="246" type="curve" smooth="yes"/>
      <point x="1018" y="317" type="line" smooth="yes"/>
      <point x="1018" y="411"/>
      <point x="1003" y="475"/>
      <point x="963" y="517" type="curve" smooth="yes"/>
      <point x="929" y="554"/>
      <point x="886" y="574"/>
      <point x="808" y="574" type="curve" smooth="yes"/>
      <point x="712" y="574"/>
      <point x="645" y="521"/>
      <point x="600" y="429" type="curve"/>
      <point x="662" y="442" type="line"/>
      <point x="602" y="527"/>
      <point x="526" y="574"/>
      <point x="397" y="574" type="curve" smooth="yes"/>
      <point x="211" y="574"/>
      <point x="45" y="456"/>
      <point x="45" y="241" type="curve" smooth="yes"/>
      <point x="45" y="72"/>
      <point x="137" y="-12"/>
    </contour>
  </outline>
</glyph>
<glyph name="hatamil" format="2">
  <advance width="1778"/>
  <unicode hex="0BB9"/>
  <outline>
    <contour>
      <point x="1451" y="574" type="curve" smooth="yes"/>
      <point x="1339" y="574"/>
      <point x="1288" y="525"/>
      <point x="1236" y="453" type="curve"/>
      <point x="1290" y="441" type="line"/>
      <point x="1239" y="536"/>
      <point x="1191" y="574"/>
      <point x="1084" y="574" type="curve" smooth="yes"/>
      <point x="1032" y="574"/>
      <point x="982" y="558"/>
      <point x="946" y="524" type="curve" smooth="yes"/>
      <point x="905" y="486"/>
      <point x="884" y="429"/>
      <point x="884" y="331" type="curve" smooth="yes"/>
      <point x="884" y="0" type="line"/>
      <point x="1033" y="0" type="line"/>
      <point x="1033" y="303" type="line" smooth="yes"/>
      <point x="1033" y="376"/>
      <point x="1036" y="414"/>
      <point x="1053" y="439" type="curve" smooth="yes"/>
      <point x="1064" y="457"/>
      <point x="1084" y="467"/>
      <point x="1110" y="467" type="curve" smooth="yes"/>
      <point x="1137" y="467"/>
      <point x="1155" y="457"/>
      <point x="1166" y="438" type="curve" smooth="yes"/>
      <point x="1182" y="412"/>
      <point x="1185" y="376"/>
      <point x="1185" y="299" type="curve" smooth="yes"/>
      <point x="1185" y="0" type="line"/>
      <point x="1334" y="0" type="line"/>
      <point x="1334" y="309" type="line" smooth="yes"/>
      <point x="1334" y="370"/>
      <point x="1339" y="405"/>
      <point x="1362" y="434" type="curve" smooth="yes"/>
      <point x="1382" y="458"/>
      <point x="1408" y="467"/>
      <point x="1441" y="467" type="curve" smooth="yes"/>
      <point x="1518" y="467"/>
      <point x="1577" y="402"/>
      <point x="1577" y="237" type="curve" smooth="yes"/>
      <point x="1577" y="-12"/>
      <point x="1471" y="-62"/>
      <point x="1238" y="-62" type="curve" smooth="yes"/>
      <point x="305" y="-62" type="line" smooth="yes"/>
      <point x="194" y="-62"/>
      <point x="146" y="-74"/>
      <point x="106" y="-102" type="curve" smooth="yes"/>
      <point x="66" y="-130"/>
      <point x="40" y="-175"/>
      <point x="40" y="-235" type="curve" smooth="yes"/>
      <point x="40" y="-267"/>
      <point x="42" y="-293"/>
      <point x="46" y="-321" type="curve"/>
      <point x="192" y="-314" type="line"/>
      <point x="190" y="-300"/>
      <point x="189" y="-287"/>
      <point x="189" y="-272" type="curve" smooth="yes"/>
      <point x="189" y="-230"/>
      <point x="202" y="-207"/>
      <point x="223" y="-191" type="curve" smooth="yes"/>
      <point x="244" y="-176"/>
      <point x="269" y="-169"/>
      <point x="350" y="-169" type="curve" smooth="yes"/>
      <point x="1258" y="-169" type="line" smooth="yes"/>
      <point x="1411" y="-169"/>
      <point x="1526" y="-151"/>
      <point x="1608" y="-84" type="curve" smooth="yes"/>
      <point x="1682" y="-24"/>
      <point x="1726" y="76"/>
      <point x="1726" y="239" type="curve" smooth="yes"/>
      <point x="1726" y="447"/>
      <point x="1629" y="574"/>
    </contour>
    <contour>
      <point x="275" y="-12" type="curve" smooth="yes"/>
      <point x="409" y="-12"/>
      <point x="480" y="59"/>
      <point x="480" y="174" type="curve" smooth="yes"/>
      <point x="480" y="285"/>
      <point x="407" y="347"/>
      <point x="300" y="347" type="curve" smooth="yes"/>
      <point x="216" y="347"/>
      <point x="155" y="311"/>
      <point x="106" y="264" type="curve"/>
      <point x="128" y="168" type="line"/>
      <point x="164" y="207"/>
      <point x="207" y="246"/>
      <point x="263" y="246" type="curve" smooth="yes"/>
      <point x="311" y="246"/>
      <point x="340" y="217"/>
      <point x="340" y="167" type="curve" smooth="yes"/>
      <point x="340" y="118"/>
      <point x="314" y="91"/>
      <point x="269" y="91" type="curve" smooth="yes"/>
      <point x="211" y="91"/>
      <point x="177" y="129"/>
      <point x="177" y="229" type="curve" smooth="yes"/>
      <point x="177" y="358"/>
      <point x="254" y="465"/>
      <point x="391" y="465" type="curve" smooth="yes"/>
      <point x="520" y="465"/>
      <point x="589" y="393"/>
      <point x="589" y="267" type="curve" smooth="yes"/>
      <point x="589" y="190"/>
      <point x="569" y="126"/>
      <point x="544" y="81" type="curve"/>
      <point x="549" y="0" type="line"/>
      <point x="974" y="0" type="line"/>
      <point x="913" y="107" type="line"/>
      <point x="702" y="107" type="line"/>
      <point x="723" y="159"/>
      <point x="738" y="219"/>
      <point x="738" y="284" type="curve" smooth="yes"/>
      <point x="738" y="437"/>
      <point x="647" y="574"/>
      <point x="402" y="574" type="curve" smooth="yes"/>
      <point x="199" y="574"/>
      <point x="45" y="456"/>
      <point x="45" y="241" type="curve" smooth="yes"/>
      <point x="45" y="72"/>
      <point x="137" y="-12"/>
    </contour>
  </outline>
</glyph>
<glyph name="aavowelsigntamil" format="2">
  <advance width="693"/>
  <unicode hex="0BBE"/>
  <outline>
    <contour>
      <point x="79" y="0" type="line"/>
      <point x="228" y="0" type="line"/>
      <point x="228" y="455" type="line"/>
      <point x="384" y="455" type="line"/>
      <point x="384" y="0" type="line"/>
      <point x="533" y="0" type="line"/>
      <point x="533" y="455" type="line"/>
      <point x="676" y="455" type="line"/>
      <point x="676" y="562" type="line"/>
      <point x="79" y="562" type="line"/>
    </contour>
  </outline>
</glyph>
<glyph name="ivowelsigntamil" format="2">
  <advance width="308"/>
  <unicode hex="0BBF"/>
  <outline>
    <contour>
      <point x="-82" y="851" type="curve" smooth="yes"/>
      <point x="-206" y="851"/>
      <point x="-337" y="787"/>
      <point x="-337" y="636" type="curve" smooth="yes"/>
      <point x="-337" y="594"/>
      <point x="-326" y="547"/>
      <point x="-309" y="515" type="curve"/>
      <point x="-161" y="515" type="line"/>
      <point x="-184" y="557"/>
      <point x="-195" y="601"/>
      <point x="-195" y="638" type="curve" smooth="yes"/>
      <point x="-195" y="691"/>
      <point x="-166" y="746"/>
      <point x="-79" y="746" type="curve" smooth="yes"/>
      <point x="-38" y="746"/>
      <point x="-7" y="732"/>
      <point x="19" y="707" type="curve" smooth="yes"/>
      <point x="67" y="659"/>
      <point x="79" y="583"/>
      <point x="79" y="430" type="curve" smooth="yes"/>
      <point x="79" y="0" type="line"/>
      <point x="228" y="0" type="line"/>
      <point x="228" y="469" type="line" smooth="yes"/>
      <point x="228" y="652"/>
      <point x="190" y="723"/>
      <point x="144" y="771" type="curve" smooth="yes"/>
      <point x="99" y="818"/>
      <point x="23" y="851"/>
    </contour>
  </outline>
</glyph>
<glyph name="iivowelsigntamil" format="2">
  <unicode hex="0BC0"/>
  <outline>
    <contour>
      <point x="-196" y="851" type="curve" smooth="yes"/>
      <point x="-408" y="851"/>
      <point x="-490" y="734"/>
      <point x="-490" y="629" type="curve" smooth="yes"/>
      <point x="-490" y="585"/>
      <point x="-482" y="549"/>
      <point x="-466" y="516" type="curve"/>
      <point x="-348" y="536" type="line"/>
      <point x="-360" y="562"/>
      <point x="-368" y="587"/>
      <point x="-368" y="620" type="curve" smooth="yes"/>
      <point x="-368" y="684"/>
      <point x="-328" y="730"/>
      <point x="-271" y="746" type="curve" smooth="yes"/>
      <point x="-238" y="754"/>
      <point x="-218" y="756"/>
      <point x="-192" y="756" type="curve" smooth="yes"/>
      <point x="-145" y="756"/>
      <point x="-110" y="748"/>
      <point x="-110" y="709" type="curve" smooth="yes"/>
      <point x="-110" y="684"/>
      <point x="-124" y="663"/>
      <point x="-158" y="663" type="curve" smooth="yes"/>
      <point x="-195" y="663"/>
      <point x="-212" y="680"/>
      <point x="-212" y="713" type="curve" smooth="yes"/>
      <point x="-212" y="751"/>
      <point x="-189" y="778"/>
      <point x="-165" y="807" type="curve"/>
      <point x="-248" y="834" type="line"/>
      <point x="-288" y="799"/>
      <point x="-313" y="748"/>
      <point x="-313" y="708" type="curve" smooth="yes"/>
      <point x="-313" y="630"/>
      <point x="-265" y="579"/>
      <point x="-152" y="579" type="curve" smooth="yes"/>
      <point x="-47" y="579"/>
      <point x="9" y="628"/>
      <point x="9" y="710" type="curve" smooth="yes"/>
      <point x="9" y="792"/>
      <point x="-50" y="851"/>
    </contour>
  </outline>
</glyph>
<glyph name="uvowelsigntamil" format="2">
  <advance width="555"/>
  <unicode hex="0BC1"/>
  <outline>
    <contour>
      <point x="306" y="206" type="curve" smooth="yes"/>
      <point x="459" y="206"/>
      <point x="521" y="287"/>
      <point x="521" y="385" type="curve" smooth="yes"/>
      <point x="521" y="443"/>
      <point x="500" y="496"/>
      <point x="440" y="529" type="curve" smooth="yes"/>
      <point x="402" y="549"/>
      <point x="353" y="562"/>
      <point x="257" y="562" type="curve" smooth="yes"/>
      <point x="-234" y="562" type="line"/>
      <point x="-234" y="455" type="line"/>
      <point x="252" y="455" type="line" smooth="yes"/>
      <point x="298" y="455"/>
      <point x="330" y="451"/>
      <point x="351" y="438" type="curve" smooth="yes"/>
      <point x="371" y="425"/>
      <point x="381" y="405"/>
      <point x="381" y="374" type="curve" smooth="yes"/>
      <point x="381" y="348"/>
      <point x="367" y="309"/>
      <point x="307" y="309" type="curve" smooth="yes"/>
      <point x="256" y="309"/>
      <point x="225" y="341"/>
      <point x="225" y="413" type="curve" smooth="yes"/>
      <point x="225" y="459"/>
      <point x="234" y="493"/>
      <point x="239" y="512" type="curve"/>
      <point x="97" y="514" type="line"/>
      <point x="92" y="495"/>
      <point x="85" y="460"/>
      <point x="85" y="407" type="curve" smooth="yes"/>
      <point x="85" y="305"/>
      <point x="143" y="206"/>
    </contour>
  </outline>
</glyph>
<glyph name="uuvowelsigntamil" format="2">
  <advance width="901"/>
  <unicode hex="0BC2"/>
  <outline>
    <contour>
      <point x="421" y="0" type="curve" smooth="yes"/>
      <point x="677" y="0"/>
      <point x="854" y="107"/>
      <point x="854" y="414" type="curve" smooth="yes"/>
      <point x="854" y="615"/>
      <point x="732" y="784"/>
      <point x="478" y="784" type="curve" smooth="yes"/>
      <point x="265" y="784"/>
      <point x="127" y="665"/>
      <point x="104" y="508" type="curve"/>
      <point x="101" y="485" type="line"/>
      <point x="100" y="467"/>
      <point x="100" y="453"/>
      <point x="100" y="425" type="curve" smooth="yes"/>
      <point x="100" y="313"/>
      <point x="167" y="206"/>
      <point x="326" y="206" type="curve" smooth="yes"/>
      <point x="474" y="206"/>
      <point x="536" y="287"/>
      <point x="536" y="385" type="curve" smooth="yes"/>
      <point x="536" y="443"/>
      <point x="515" y="496"/>
      <point x="455" y="529" type="curve" smooth="yes"/>
      <point x="417" y="550"/>
      <point x="368" y="562"/>
      <point x="272" y="562" type="curve" smooth="yes"/>
      <point x="-234" y="562" type="line"/>
      <point x="-234" y="455" type="line"/>
      <point x="267" y="455" type="line" smooth="yes"/>
      <point x="313" y="455"/>
      <point x="345" y="451"/>
      <point x="366" y="438" type="curve" smooth="yes"/>
      <point x="386" y="425"/>
      <point x="396" y="405"/>
      <point x="396" y="374" type="curve" smooth="yes"/>
      <point x="396" y="347"/>
      <point x="380" y="309"/>
      <point x="326" y="309" type="curve" smooth="yes"/>
      <point x="272" y="309"/>
      <point x="240" y="344"/>
      <point x="240" y="417" type="curve" smooth="yes"/>
      <point x="240" y="446"/>
      <point x="242" y="464"/>
      <point x="244" y="488" type="curve"/>
      <point x="245" y="531" type="line"/>
      <point x="271" y="603"/>
      <point x="347" y="676"/>
      <point x="473" y="676" type="curve" smooth="yes"/>
      <point x="629" y="676"/>
      <point x="705" y="562"/>
      <point x="705" y="408" type="curve" smooth="yes"/>
      <point x="705" y="203"/>
      <point x="603" y="110"/>
      <point x="415" y="110" type="curve" smooth="yes"/>
      <point x="308" y="110"/>
      <point x="219" y="142"/>
      <point x="136" y="197" type="curve"/>
      <point x="77" y="91" type="line"/>
      <point x="174" y="30"/>
      <point x="298" y="0"/>
    </contour>
  </outline>
</glyph>
<glyph name="evowelsigntamil" format="2">
  <advance width="986"/>
  <unicode hex="0BC6"/>
  <outline>
    <contour>
      <point x="411" y="-12" type="curve" smooth="yes"/>
      <point x="568" y="-12"/>
      <point x="665" y="55"/>
      <point x="665" y="190" type="curve" smooth="yes"/>
      <point x="665" y="290"/>
      <point x="601" y="374"/>
      <point x="461" y="374" type="curve" smooth="yes"/>
      <point x="320" y="374"/>
      <point x="255" y="298"/>
      <point x="255" y="195" type="curve" smooth="yes"/>
      <point x="255" y="136"/>
      <point x="284" y="91"/>
      <point x="302" y="67" type="curve"/>
      <point x="424" y="67" type="line"/>
      <point x="399" y="91"/>
      <point x="379" y="137"/>
      <point x="379" y="188" type="curve" smooth="yes"/>
      <point x="379" y="245"/>
      <point x="413" y="271"/>
      <point x="453" y="271" type="curve" smooth="yes"/>
      <point x="504" y="271"/>
      <point x="525" y="230"/>
      <point x="525" y="187" type="curve" smooth="yes"/>
      <point x="525" y="138"/>
      <point x="502" y="91"/>
      <point x="428" y="91" type="curve" smooth="yes"/>
      <point x="405" y="91"/>
      <point x="383" y="93"/>
      <point x="363" y="97" type="curve"/>
      <point x="332" y="95" type="line"/>
      <point x="255" y="118"/>
      <point x="196" y="210"/>
      <point x="196" y="380" type="curve" smooth="yes"/>
      <point x="196" y="634"/>
      <point x="361" y="741"/>
      <point x="524" y="741" type="curve" smooth="yes"/>
      <point x="599" y="741"/>
      <point x="652" y="723"/>
      <point x="694" y="674" type="curve" smooth="yes"/>
      <point x="752" y="607"/>
      <point x="757" y="483"/>
      <point x="757" y="388" type="curve" smooth="yes"/>
      <point x="757" y="0" type="line"/>
      <point x="906" y="0" type="line"/>
      <point x="906" y="433" type="line" smooth="yes"/>
      <point x="906" y="632"/>
      <point x="866" y="718"/>
      <point x="781" y="781" type="curve" smooth="yes"/>
      <point x="712" y="832"/>
      <point x="630" y="851"/>
      <point x="531" y="851" type="curve" smooth="yes"/>
      <point x="258" y="851"/>
      <point x="54" y="669"/>
      <point x="54" y="387" type="curve" smooth="yes"/>
      <point x="54" y="145"/>
      <point x="187" y="-12"/>
    </contour>
  </outline>
</glyph>
<glyph name="eevowelsigntamil" format="2">
  <advance width="784"/>
  <unicode hex="0BC7"/>
  <outline>
    <contour>
      <point x="482" y="-12" type="curve" smooth="yes"/>
      <point x="650" y="-12"/>
      <point x="748" y="59"/>
      <point x="748" y="191" type="curve" smooth="yes"/>
      <point x="748" y="289"/>
      <point x="681" y="374"/>
      <point x="544" y="374" type="curve" smooth="yes"/>
      <point x="412" y="374"/>
      <point x="347" y="293"/>
      <point x="347" y="195" type="curve" smooth="yes"/>
      <point x="347" y="128"/>
      <point x="364" y="102"/>
      <point x="393" y="67" type="curve"/>
      <point x="517" y="67" type="line"/>
      <point x="492" y="91"/>
      <point x="472" y="137"/>
      <point x="472" y="188" type="curve" smooth="yes"/>
      <point x="472" y="245"/>
      <point x="503" y="271"/>
      <point x="540" y="271" type="curve" smooth="yes"/>
      <point x="588" y="271"/>
      <point x="608" y="234"/>
      <point x="608" y="190" type="curve" smooth="yes"/>
      <point x="608" y="131"/>
      <point x="574" y="91"/>
      <point x="501" y="91" type="curve" smooth="yes"/>
      <point x="478" y="91"/>
      <point x="463" y="93"/>
      <point x="446" y="96" type="curve"/>
      <point x="316" y="110"/>
      <point x="189" y="208"/>
      <point x="189" y="416" type="curve" smooth="yes"/>
      <point x="189" y="623"/>
      <point x="318" y="728"/>
      <point x="449" y="741" type="curve"/>
      <point x="477" y="746"/>
      <point x="502" y="748"/>
      <point x="510" y="748" type="curve" smooth="yes"/>
      <point x="595" y="748"/>
      <point x="620" y="702"/>
      <point x="620" y="654" type="curve" smooth="yes"/>
      <point x="620" y="610"/>
      <point x="600" y="575"/>
      <point x="553" y="575" type="curve" smooth="yes"/>
      <point x="515" y="575"/>
      <point x="484" y="598"/>
      <point x="484" y="657" type="curve" smooth="yes"/>
      <point x="484" y="706"/>
      <point x="504" y="749"/>
      <point x="529" y="771" type="curve"/>
      <point x="406" y="772" type="line"/>
      <point x="381" y="744"/>
      <point x="359" y="712"/>
      <point x="359" y="648" type="curve" smooth="yes"/>
      <point x="359" y="548"/>
      <point x="429" y="472"/>
      <point x="556" y="472" type="curve" smooth="yes"/>
      <point x="689" y="472"/>
      <point x="760" y="551"/>
      <point x="760" y="655" type="curve" smooth="yes"/>
      <point x="760" y="780"/>
      <point x="668" y="851"/>
      <point x="507" y="851" type="curve" smooth="yes"/>
      <point x="237" y="851"/>
      <point x="47" y="694"/>
      <point x="47" y="420" type="curve" smooth="yes"/>
      <point x="47" y="140"/>
      <point x="226" y="-12"/>
    </contour>
  </outline>
</glyph>
<glyph name="aivowelsigntamil" format="2">
  <advance width="1287"/>
  <unicode hex="0BC8"/>
  <outline>
    <contour>
      <point x="276" y="-12" type="curve" smooth="yes"/>
      <point x="411" y="-12"/>
      <point x="480" y="59"/>
      <point x="480" y="174" type="curve" smooth="yes"/>
      <point x="480" y="285"/>
      <point x="408" y="347"/>
      <point x="300" y="347" type="curve" smooth="yes"/>
      <point x="216" y="347"/>
      <point x="155" y="311"/>
      <point x="106" y="264" type="curve"/>
      <point x="128" y="168" type="line"/>
      <point x="166" y="206"/>
      <point x="207" y="246"/>
      <point x="263" y="246" type="curve" smooth="yes"/>
      <point x="311" y="246"/>
      <point x="340" y="216"/>
      <point x="340" y="167" type="curve" smooth="yes"/>
      <point x="340" y="118"/>
      <point x="314" y="91"/>
      <point x="269" y="91" type="curve" smooth="yes"/>
      <point x="210" y="91"/>
      <point x="177" y="129"/>
      <point x="177" y="227" type="curve" smooth="yes"/>
      <point x="177" y="254"/>
      <point x="179" y="265"/>
      <point x="181" y="280" type="curve" smooth="yes"/>
      <point x="198" y="379"/>
      <point x="292" y="465"/>
      <point x="463" y="465" type="curve" smooth="yes"/>
      <point x="547" y="465"/>
      <point x="620" y="448"/>
      <point x="683" y="406" type="curve"/>
      <point x="760" y="362"/>
      <point x="802" y="280"/>
      <point x="802" y="197" type="curve" smooth="yes"/>
      <point x="802" y="141"/>
      <point x="789" y="90"/>
      <point x="741" y="90" type="curve" smooth="yes"/>
      <point x="706" y="90"/>
      <point x="681" y="121"/>
      <point x="681" y="194" type="curve" smooth="yes"/>
      <point x="681" y="300"/>
      <point x="718" y="375"/>
      <point x="781" y="417" type="curve"/>
      <point x="822" y="453"/>
      <point x="865" y="465"/>
      <point x="917" y="465" type="curve" smooth="yes"/>
      <point x="1022" y="465"/>
      <point x="1086" y="395"/>
      <point x="1086" y="273" type="curve" smooth="yes"/>
      <point x="1086" y="173"/>
      <point x="1057" y="102"/>
      <point x="1023" y="48" type="curve"/>
      <point x="1146" y="-12" type="line"/>
      <point x="1189" y="54"/>
      <point x="1235" y="160"/>
      <point x="1235" y="282" type="curve" smooth="yes"/>
      <point x="1235" y="440"/>
      <point x="1150" y="574"/>
      <point x="932" y="574" type="curve" smooth="yes"/>
      <point x="850" y="574"/>
      <point x="766" y="546"/>
      <point x="695" y="486" type="curve"/>
      <point x="675" y="474" type="line"/>
      <point x="596" y="398"/>
      <point x="542" y="300"/>
      <point x="542" y="187" type="curve" smooth="yes"/>
      <point x="542" y="78"/>
      <point x="601" y="-12"/>
      <point x="745" y="-12" type="curve" smooth="yes"/>
      <point x="870" y="-12"/>
      <point x="943" y="64"/>
      <point x="943" y="187" type="curve" smooth="yes"/>
      <point x="943" y="312"/>
      <point x="878" y="406"/>
      <point x="786" y="477" type="curve"/>
      <point x="761" y="493" type="line" smooth="yes"/>
      <point x="667" y="553"/>
      <point x="585" y="574"/>
      <point x="461" y="574" type="curve" smooth="yes"/>
      <point x="202" y="574"/>
      <point x="45" y="440"/>
      <point x="45" y="240" type="curve" smooth="yes"/>
      <point x="45" y="72"/>
      <point x="137" y="-12"/>
    </contour>
  </outline>
</glyph>
<glyph name="viramatamil" format="2">
  <unicode hex="0BCD"/>
  <outline>
    <contour>
      <point x="-278" y="662" type="curve" smooth="yes"/>
      <point x="-231" y="662"/>
      <point x="-197" y="697"/>
      <point x="-197" y="745" type="curve" smooth="yes"/>
      <point x="-197" y="793"/>
      <point x="-231" y="828"/>
      <point x="-278" y="828" type="curve" smooth="yes"/>
      <point x="-326" y="828"/>
      <point x="-360" y="793"/>
      <point x="-360" y="745" type="curve" smooth="yes"/>
      <point x="-360" y="697"/>
      <point x="-326" y="662"/>
    </contour>
  </outline>
</glyph>
<glyph name="ohmsigntamil" format="2">
  <advance width="1274"/>
  <unicode hex="0BD0"/>
  <outline>
    <contour>
      <point x="621" y="598" type="curve" smooth="yes"/>
      <point x="441" y="598"/>
      <point x="250" y="571"/>
      <point x="130" y="473" type="curve" smooth="yes"/>
      <point x="75" y="428"/>
      <point x="40" y="368"/>
      <point x="40" y="288" type="curve" smooth="yes"/>
      <point x="40" y="160"/>
      <point x="128" y="78"/>
      <point x="257" y="78" type="curve" smooth="yes"/>
      <point x="374" y="78"/>
      <point x="459" y="129"/>
      <point x="459" y="253" type="curve" smooth="yes"/>
      <point x="459" y="356"/>
      <point x="386" y="413"/>
      <point x="288" y="413" type="curve" smooth="yes"/>
      <point x="229" y="413"/>
      <point x="186" y="389"/>
      <point x="154" y="362" type="curve"/>
      <point x="148" y="269" type="line"/>
      <point x="180" y="302"/>
      <point x="217" y="322"/>
      <point x="257" y="322" type="curve" smooth="yes"/>
      <point x="302" y="322"/>
      <point x="330" y="295"/>
      <point x="330" y="254" type="curve" smooth="yes"/>
      <point x="330" y="208"/>
      <point x="304" y="181"/>
      <point x="256" y="181" type="curve" smooth="yes"/>
      <point x="200" y="181"/>
      <point x="169" y="217"/>
      <point x="169" y="287" type="curve" smooth="yes"/>
      <point x="169" y="321"/>
      <point x="171" y="340"/>
      <point x="173" y="359" type="curve"/>
      <point x="228" y="448"/>
      <point x="419" y="487"/>
      <point x="637" y="487" type="curve" smooth="yes"/>
      <point x="911" y="487"/>
      <point x="1091" y="400"/>
      <point x="1091" y="265" type="curve" smooth="yes"/>
      <point x="1091" y="223"/>
      <point x="1080" y="174"/>
      <point x="1022" y="174" type="curve" smooth="yes"/>
      <point x="964" y="174"/>
      <point x="949" y="214"/>
      <point x="949" y="257" type="curve" smooth="yes"/>
      <point x="949" y="292"/>
      <point x="958" y="322"/>
      <point x="970" y="352" type="curve"/>
      <point x="848" y="402" type="line"/>
      <point x="716" y="356"/>
      <point x="649" y="264"/>
      <point x="649" y="155" type="curve" smooth="yes"/>
      <point x="649" y="57"/>
      <point x="697" y="-32"/>
      <point x="820" y="-77" type="curve" smooth="yes"/>
      <point x="870" y="-95"/>
      <point x="919" y="-103"/>
      <point x="1008" y="-103" type="curve" smooth="yes"/>
      <point x="1135" y="-103" type="line"/>
      <point x="1135" y="4" type="line"/>
      <point x="1022" y="4" type="line" smooth="yes"/>
      <point x="920" y="4"/>
      <point x="882" y="15"/>
      <point x="845" y="37" type="curve" smooth="yes"/>
      <point x="802" y="63"/>
      <point x="778" y="104"/>
      <point x="778" y="164" type="curve" smooth="yes"/>
      <point x="778" y="210"/>
      <point x="798" y="264"/>
      <point x="861" y="296" type="curve"/>
      <point x="845" y="297" type="line"/>
      <point x="833" y="274"/>
      <point x="830" y="244"/>
      <point x="830" y="225" type="curve" smooth="yes"/>
      <point x="830" y="130"/>
      <point x="901" y="71"/>
      <point x="1018" y="71" type="curve" smooth="yes"/>
      <point x="1181" y="71"/>
      <point x="1235" y="178"/>
      <point x="1235" y="271" type="curve" smooth="yes"/>
      <point x="1235" y="365"/>
      <point x="1193" y="430"/>
      <point x="1125" y="480" type="curve" smooth="yes"/>
      <point x="1012" y="564"/>
      <point x="858" y="598"/>
    </contour>
    <contour>
      <point x="88" y="-127" type="curve" smooth="yes"/>
      <point x="88" y="-258"/>
      <point x="203" y="-321"/>
      <point x="429" y="-321" type="curve" smooth="yes"/>
      <point x="439" y="-321" type="line" smooth="yes"/>
      <point x="666" y="-321"/>
      <point x="821" y="-288"/>
      <point x="924" y="-88" type="curve" smooth="yes"/>
      <point x="932" y="-73" type="line"/>
      <point x="777" y="-42" type="line"/>
      <point x="696" y="-191"/>
      <point x="627" y="-217"/>
      <point x="425" y="-217" type="curve" smooth="yes"/>
      <point x="304" y="-217"/>
      <point x="221" y="-192"/>
      <point x="221" y="-110" type="curve" smooth="yes"/>
      <point x="221" y="-78"/>
      <point x="234" y="-51"/>
      <point x="250" y="-20" type="curve"/>
      <point x="140" y="30" type="line"/>
      <point x="105" y="-22"/>
      <point x="88" y="-73"/>
    </contour>
    <contour>
      <point x="531" y="80" type="curve" smooth="yes"/>
      <point x="506" y="80"/>
      <point x="485" y="75"/>
      <point x="468" y="63" type="curve" smooth="yes"/>
      <point x="445" y="46"/>
      <point x="436" y="25"/>
      <point x="436" y="-19" type="curve" smooth="yes"/>
      <point x="436" y="-95" type="line"/>
      <point x="373" y="-95" type="line"/>
      <point x="373" y="54" type="line"/>
      <point x="292" y="54" type="line"/>
      <point x="292" y="-156" type="line"/>
      <point x="514" y="-156" type="line" smooth="yes"/>
      <point x="575" y="-156"/>
      <point x="600" y="-149"/>
      <point x="622" y="-134" type="curve" smooth="yes"/>
      <point x="644" y="-119"/>
      <point x="659" y="-92"/>
      <point x="659" y="-52" type="curve" smooth="yes"/>
      <point x="659" y="-18"/>
      <point x="650" y="13"/>
      <point x="627" y="39" type="curve" smooth="yes"/>
      <point x="604" y="66"/>
      <point x="571" y="80"/>
    </contour>
    <contour>
      <point x="537" y="21" type="curve" smooth="yes"/>
      <point x="563" y="21"/>
      <point x="579" y="-8"/>
      <point x="579" y="-47" type="curve" smooth="yes"/>
      <point x="579" y="-79"/>
      <point x="570" y="-95"/>
      <point x="539" y="-95" type="curve" smooth="yes"/>
      <point x="517" y="-95" type="line"/>
      <point x="517" y="-3" type="line" smooth="yes"/>
      <point x="517" y="14"/>
      <point x="524" y="21"/>
    </contour>
    <contour>
      <point x="543" y="115" type="curve" smooth="yes"/>
      <point x="575" y="115"/>
      <point x="599" y="139"/>
      <point x="599" y="171" type="curve" smooth="yes"/>
      <point x="599" y="203"/>
      <point x="576" y="226"/>
      <point x="543" y="226" type="curve" smooth="yes"/>
      <point x="512" y="226"/>
      <point x="487" y="203"/>
      <point x="487" y="171" type="curve" smooth="yes"/>
      <point x="487" y="139"/>
      <point x="511" y="115"/>
    </contour>
  </outline>
</glyph>
<glyph name="zerotamil" format="2">
  <advance width="674"/>
  <unicode hex="0BE6"/>
  <outline>
    <contour>
      <point x="339" y="-12" type="curve" smooth="yes"/>
      <point x="523" y="-12"/>
      <point x="628" y="104"/>
      <point x="628" y="282" type="curve" smooth="yes"/>
      <point x="628" y="438"/>
      <point x="535" y="574"/>
      <point x="337" y="574" type="curve" smooth="yes"/>
      <point x="164" y="574"/>
      <point x="45" y="461"/>
      <point x="45" y="282" type="curve" smooth="yes"/>
      <point x="45" y="102"/>
      <point x="156" y="-12"/>
    </contour>
    <contour>
      <point x="337" y="467" type="curve" smooth="yes"/>
      <point x="427" y="467"/>
      <point x="479" y="397"/>
      <point x="479" y="281" type="curve" smooth="yes"/>
      <point x="479" y="160"/>
      <point x="427" y="95"/>
      <point x="336" y="95" type="curve" smooth="yes"/>
      <point x="245" y="95"/>
      <point x="194" y="164"/>
      <point x="194" y="281" type="curve" smooth="yes"/>
      <point x="194" y="396"/>
      <point x="245" y="467"/>
    </contour>
  </outline>
</glyph>
<glyph name="twotamil" format="2">
  <advance width="1088"/>
  <unicode hex="0BE8"/>
  <outline>
    <contour>
      <point x="348" y="574" type="curve" smooth="yes"/>
      <point x="163" y="574"/>
      <point x="56" y="482"/>
      <point x="56" y="368" type="curve" smooth="yes"/>
      <point x="56" y="282"/>
      <point x="117" y="219"/>
      <point x="185" y="172" type="curve"/>
      <point x="319" y="206" type="line"/>
      <point x="251" y="243"/>
      <point x="198" y="295"/>
      <point x="198" y="362" type="curve" smooth="yes"/>
      <point x="198" y="424"/>
      <point x="252" y="465"/>
      <point x="347" y="465" type="curve" smooth="yes"/>
      <point x="449" y="465"/>
      <point x="517" y="427"/>
      <point x="517" y="358" type="curve" smooth="yes"/>
      <point x="517" y="299"/>
      <point x="485" y="256"/>
      <point x="296" y="240" type="curve" smooth="yes"/>
      <point x="212" y="233" type="line" smooth="yes"/>
      <point x="92" y="222"/>
      <point x="49" y="169"/>
      <point x="49" y="107" type="curve" smooth="yes"/>
      <point x="49" y="55"/>
      <point x="83" y="0"/>
      <point x="217" y="0" type="curve" smooth="yes"/>
      <point x="1071" y="0" type="line"/>
      <point x="1071" y="107" type="line"/>
      <point x="223" y="107" type="line" smooth="yes"/>
      <point x="198" y="107"/>
      <point x="189" y="109"/>
      <point x="189" y="120" type="curve" smooth="yes"/>
      <point x="189" y="128"/>
      <point x="197" y="134"/>
      <point x="226" y="137" type="curve" smooth="yes"/>
      <point x="345" y="147" type="line" smooth="yes"/>
      <point x="517" y="162"/>
      <point x="666" y="209"/>
      <point x="666" y="363" type="curve" smooth="yes"/>
      <point x="666" y="474"/>
      <point x="581" y="574"/>
    </contour>
  </outline>
</glyph>
<glyph name="fivetamil" format="2">
  <advance width="1187"/>
  <unicode hex="0BEB"/>
  <outline>
    <contour>
      <point x="628" y="-321" type="curve" smooth="yes"/>
      <point x="632" y="-321" type="line" smooth="yes"/>
      <point x="906" y="-321"/>
      <point x="1144" y="-197"/>
      <point x="1144" y="90" type="curve" smooth="yes"/>
      <point x="1144" y="257"/>
      <point x="1055" y="335"/>
      <point x="938" y="335" type="curve" smooth="yes"/>
      <point x="884" y="335"/>
      <point x="845" y="323"/>
      <point x="813" y="306" type="curve"/>
      <point x="817" y="201" type="line"/>
      <point x="843" y="219"/>
      <point x="869" y="228"/>
      <point x="896" y="228" type="curve" smooth="yes"/>
      <point x="960" y="228"/>
      <point x="995" y="185"/>
      <point x="995" y="85" type="curve" smooth="yes"/>
      <point x="995" y="-108"/>
      <point x="856" y="-211"/>
      <point x="630" y="-211" type="curve" smooth="yes"/>
      <point x="622" y="-211" type="line" smooth="yes"/>
      <point x="336" y="-211"/>
      <point x="200" y="-40"/>
      <point x="200" y="233" type="curve" smooth="yes"/>
      <point x="200" y="260" type="line" smooth="yes"/>
      <point x="200" y="601"/>
      <point x="393" y="738"/>
      <point x="655" y="738" type="curve" smooth="yes"/>
      <point x="813" y="738"/>
      <point x="915" y="689"/>
      <point x="1043" y="620" type="curve"/>
      <point x="1096" y="733" type="line"/>
      <point x="957" y="804"/>
      <point x="830" y="851"/>
      <point x="662" y="851" type="curve" smooth="yes"/>
      <point x="216" y="851"/>
      <point x="58" y="546"/>
      <point x="58" y="259" type="curve" smooth="yes"/>
      <point x="58" y="236" type="line" smooth="yes"/>
      <point x="58" y="-87"/>
      <point x="240" y="-321"/>
    </contour>
    <contour>
      <point x="382" y="0" type="line"/>
      <point x="531" y="0" type="line"/>
      <point x="531" y="455" type="line"/>
      <point x="680" y="455" type="line"/>
      <point x="680" y="0" type="line"/>
      <point x="829" y="0" type="line"/>
      <point x="829" y="455" type="line"/>
      <point x="973" y="455" type="line"/>
      <point x="973" y="562" type="line"/>
      <point x="382" y="562" type="line"/>
    </contour>
  </outline>
</glyph>
<glyph name="eighttamil" format="2">
  <advance width="1220"/>
  <unicode hex="0BEE"/>
  <outline>
    <contour>
      <point x="352" y="-141" type="curve" smooth="yes"/>
      <point x="370" y="-141" type="line"/>
      <point x="628" y="-141"/>
      <point x="815" y="-40"/>
      <point x="875" y="128" type="curve"/>
      <point x="875" y="164" type="line"/>
      <point x="880" y="189"/>
      <point x="884" y="218"/>
      <point x="884" y="247" type="curve" smooth="yes"/>
      <point x="884" y="414"/>
      <point x="783" y="574"/>
      <point x="554" y="574" type="curve" smooth="yes"/>
      <point x="389" y="574"/>
      <point x="292" y="491"/>
      <point x="292" y="362" type="curve" smooth="yes"/>
      <point x="292" y="251"/>
      <point x="369" y="172"/>
      <point x="461" y="106" type="curve"/>
      <point x="560" y="176" type="line"/>
      <point x="486" y="216"/>
      <point x="434" y="285"/>
      <point x="434" y="356" type="curve" smooth="yes"/>
      <point x="434" y="432"/>
      <point x="481" y="465"/>
      <point x="552" y="465" type="curve" smooth="yes"/>
      <point x="672" y="465"/>
      <point x="741" y="369"/>
      <point x="741" y="246" type="curve" smooth="yes"/>
      <point x="741" y="221"/>
      <point x="740" y="194"/>
      <point x="733" y="169" type="curve"/>
      <point x="730" y="141" type="line"/>
      <point x="688" y="42"/>
      <point x="583" y="-34"/>
      <point x="381" y="-34" type="curve" smooth="yes"/>
      <point x="369" y="-34" type="line" smooth="yes"/>
      <point x="230" y="-34"/>
      <point x="169" y="-1"/>
      <point x="169" y="49" type="curve" smooth="yes"/>
      <point x="169" y="61"/>
      <point x="173" y="68"/>
      <point x="180" y="75" type="curve" smooth="yes"/>
      <point x="189" y="83"/>
      <point x="205" y="86"/>
      <point x="238" y="86" type="curve" smooth="yes"/>
      <point x="1046" y="86" type="line"/>
      <point x="1042" y="192" type="line"/>
      <point x="227" y="192" type="line" smooth="yes"/>
      <point x="145" y="192"/>
      <point x="103" y="183"/>
      <point x="75" y="163" type="curve" smooth="yes"/>
      <point x="39" y="138"/>
      <point x="25" y="101"/>
      <point x="25" y="63" type="curve" smooth="yes"/>
      <point x="25" y="-57"/>
      <point x="142" y="-141"/>
    </contour>
    <contour>
      <point x="991" y="-154" type="line"/>
      <point x="1140" y="-154" type="line"/>
      <point x="1140" y="562" type="line"/>
      <point x="991" y="562" type="line"/>
    </contour>
  </outline>
</glyph>
<glyph name="ninetamil" format="2">
  <advance width="1358"/>
  <unicode hex="0BEF"/>
  <outline>
    <contour>
      <point x="294" y="-12" type="curve" smooth="yes"/>
      <point x="393" y="-12"/>
      <point x="471" y="7"/>
      <point x="520" y="61" type="curve" smooth="yes"/>
      <point x="553" y="98"/>
      <point x="571" y="146"/>
      <point x="571" y="240" type="curve" smooth="yes"/>
      <point x="571" y="455" type="line"/>
      <point x="762" y="455" type="line"/>
      <point x="762" y="562" type="line"/>
      <point x="143" y="562" type="line"/>
      <point x="143" y="286" type="line"/>
      <point x="277" y="302" type="line"/>
      <point x="277" y="455" type="line"/>
      <point x="428" y="455" type="line"/>
      <point x="428" y="238" type="line" smooth="yes"/>
      <point x="428" y="125"/>
      <point x="381" y="95"/>
      <point x="304" y="95" type="curve" smooth="yes"/>
      <point x="233" y="95"/>
      <point x="188" y="117"/>
      <point x="188" y="168" type="curve" smooth="yes"/>
      <point x="188" y="195"/>
      <point x="200" y="215"/>
      <point x="225" y="228" type="curve" smooth="yes"/>
      <point x="254" y="243"/>
      <point x="298" y="246"/>
      <point x="345" y="246" type="curve" smooth="yes"/>
      <point x="762" y="246" type="line"/>
      <point x="762" y="347" type="line"/>
      <point x="363" y="347" type="line" smooth="yes"/>
      <point x="133" y="347"/>
      <point x="41" y="274"/>
      <point x="41" y="165" type="curve" smooth="yes"/>
      <point x="41" y="51"/>
      <point x="144" y="-12"/>
    </contour>
    <contour>
      <point x="894" y="-12" type="curve" smooth="yes"/>
      <point x="1002" y="-12"/>
      <point x="1072" y="53"/>
      <point x="1072" y="152" type="curve" smooth="yes"/>
      <point x="1072" y="299"/>
      <point x="943" y="342"/>
      <point x="799" y="342" type="curve"/>
      <point x="777" y="346" type="line"/>
      <point x="771" y="347"/>
      <point x="753" y="347"/>
      <point x="747" y="347" type="curve" smooth="yes"/>
      <point x="603" y="347" type="line"/>
      <point x="603" y="246" type="line"/>
      <point x="800" y="246" type="line" smooth="yes"/>
      <point x="909" y="246"/>
      <point x="941" y="201"/>
      <point x="941" y="147" type="curve" smooth="yes"/>
      <point x="941" y="108"/>
      <point x="921" y="89"/>
      <point x="887" y="89" type="curve" smooth="yes"/>
      <point x="850" y="89"/>
      <point x="818" y="110"/>
      <point x="818" y="168" type="curve" smooth="yes"/>
      <point x="818" y="217"/>
      <point x="832" y="244"/>
      <point x="850" y="270" type="curve" smooth="yes"/>
      <point x="860" y="285" type="line"/>
      <point x="891" y="316"/>
      <point x="937" y="338"/>
      <point x="1024" y="338" type="curve" smooth="yes"/>
      <point x="1113" y="338"/>
      <point x="1175" y="288"/>
      <point x="1175" y="199" type="curve" smooth="yes"/>
      <point x="1175" y="140"/>
      <point x="1151" y="92"/>
      <point x="1126" y="56" type="curve"/>
      <point x="1246" y="-12" type="line"/>
      <point x="1289" y="57"/>
      <point x="1316" y="128"/>
      <point x="1316" y="207" type="curve" smooth="yes"/>
      <point x="1316" y="323"/>
      <point x="1242" y="441"/>
      <point x="1032" y="441" type="curve" smooth="yes"/>
      <point x="880" y="441"/>
      <point x="768" y="380"/>
      <point x="721" y="296" type="curve"/>
      <point x="714" y="275" type="line"/>
      <point x="698" y="241"/>
      <point x="688" y="207"/>
      <point x="688" y="169" type="curve" smooth="yes"/>
      <point x="688" y="41"/>
      <point x="786" y="-12"/>
    </contour>
  </outline>
</glyph>
<glyph name="tentamil" format="2">
  <advance width="975"/>
  <unicode hex="0BF0"/>
  <outline>
    <contour>
      <point x="281" y="-12" type="curve" smooth="yes"/>
      <point x="386" y="-12"/>
      <point x="434" y="25"/>
      <point x="485" y="121" type="curve"/>
      <point x="431" y="109" type="line"/>
      <point x="483" y="37"/>
      <point x="534" y="-12"/>
      <point x="651" y="-12" type="curve" smooth="yes"/>
      <point x="842" y="-12"/>
      <point x="917" y="159"/>
      <point x="917" y="383" type="curve" smooth="yes"/>
      <point x="917" y="400" type="line" smooth="yes"/>
      <point x="917" y="617"/>
      <point x="846" y="756"/>
      <point x="724" y="816" type="curve" smooth="yes"/>
      <point x="677" y="839"/>
      <point x="624" y="851"/>
      <point x="563" y="851" type="curve" smooth="yes"/>
      <point x="469" y="851"/>
      <point x="407" y="832"/>
      <point x="323" y="797" type="curve"/>
      <point x="362" y="692" type="line"/>
      <point x="430" y="725"/>
      <point x="487" y="741"/>
      <point x="553" y="741" type="curve" smooth="yes"/>
      <point x="681" y="741"/>
      <point x="766" y="650"/>
      <point x="766" y="388" type="curve" smooth="yes"/>
      <point x="766" y="178"/>
      <point x="713" y="95"/>
      <point x="634" y="95" type="curve" smooth="yes"/>
      <point x="603" y="95"/>
      <point x="576" y="104"/>
      <point x="557" y="128" type="curve" smooth="yes"/>
      <point x="534" y="157"/>
      <point x="529" y="191"/>
      <point x="529" y="252" type="curve" smooth="yes"/>
      <point x="529" y="562" type="line"/>
      <point x="380" y="562" type="line"/>
      <point x="380" y="259" type="line" smooth="yes"/>
      <point x="380" y="186"/>
      <point x="377" y="148"/>
      <point x="360" y="123" type="curve" smooth="yes"/>
      <point x="348" y="105"/>
      <point x="329" y="95"/>
      <point x="305" y="95" type="curve" smooth="yes"/>
      <point x="279" y="95"/>
      <point x="259" y="105"/>
      <point x="248" y="123" type="curve" smooth="yes"/>
      <point x="231" y="148"/>
      <point x="228" y="186"/>
      <point x="228" y="259" type="curve" smooth="yes"/>
      <point x="228" y="562" type="line"/>
      <point x="79" y="562" type="line"/>
      <point x="79" y="231" type="line" smooth="yes"/>
      <point x="79" y="133"/>
      <point x="100" y="76"/>
      <point x="141" y="38" type="curve" smooth="yes"/>
      <point x="177" y="4"/>
      <point x="227" y="-12"/>
    </contour>
  </outline>
</glyph>
<glyph name="hundredtamil" format="2">
  <advance width="977"/>
  <unicode hex="0BF1"/>
  <outline>
    <contour>
      <point x="369" y="0" type="line"/>
      <point x="518" y="0" type="line"/>
      <point x="518" y="455" type="line"/>
      <point x="668" y="455" type="line"/>
      <point x="668" y="0" type="line"/>
      <point x="817" y="0" type="line"/>
      <point x="817" y="455" type="line"/>
      <point x="960" y="455" type="line"/>
      <point x="960" y="562" type="line"/>
      <point x="369" y="562" type="line"/>
    </contour>
    <contour>
      <point x="256" y="574" type="curve" smooth="yes"/>
      <point x="197" y="574"/>
      <point x="158" y="559"/>
      <point x="129" y="528" type="curve" smooth="yes"/>
      <point x="102" y="499"/>
      <point x="79" y="458"/>
      <point x="79" y="360" type="curve" smooth="yes"/>
      <point x="80" y="0" type="line"/>
      <point x="228" y="0" type="line"/>
      <point x="228" y="350" type="line" smooth="yes"/>
      <point x="228" y="401"/>
      <point x="232" y="430"/>
      <point x="249" y="448" type="curve" smooth="yes"/>
      <point x="260" y="460"/>
      <point x="278" y="467"/>
      <point x="300" y="467" type="curve" smooth="yes"/>
      <point x="337" y="467"/>
      <point x="366" y="443"/>
      <point x="389" y="406" type="curve"/>
      <point x="387" y="519" type="line"/>
      <point x="355" y="551"/>
      <point x="312" y="574"/>
    </contour>
  </outline>
</glyph>
<glyph name="thousandtamil" format="2">
  <advance width="1100"/>
  <unicode hex="0BF2"/>
  <outline>
    <contour>
      <point x="923" y="195" type="curve" smooth="yes"/>
      <point x="868" y="195"/>
      <point x="825" y="178"/>
      <point x="795" y="162" type="curve"/>
      <point x="804" y="62" type="line"/>
      <point x="829" y="81"/>
      <point x="858" y="91"/>
      <point x="890" y="91" type="curve" smooth="yes"/>
      <point x="932" y="91"/>
      <point x="953" y="64"/>
      <point x="953" y="29" type="curve" smooth="yes"/>
      <point x="953" y="0"/>
      <point x="942" y="-23"/>
      <point x="919" y="-38" type="curve" smooth="yes"/>
      <point x="893" y="-55"/>
      <point x="859" y="-62"/>
      <point x="780" y="-62" type="curve" smooth="yes"/>
      <point x="305" y="-62" type="line" smooth="yes"/>
      <point x="194" y="-62"/>
      <point x="146" y="-74"/>
      <point x="106" y="-102" type="curve" smooth="yes"/>
      <point x="66" y="-130"/>
      <point x="40" y="-175"/>
      <point x="40" y="-235" type="curve" smooth="yes"/>
      <point x="40" y="-267"/>
      <point x="42" y="-293"/>
      <point x="46" y="-321" type="curve"/>
      <point x="192" y="-314" type="line"/>
      <point x="190" y="-300"/>
      <point x="189" y="-287"/>
      <point x="189" y="-272" type="curve" smooth="yes"/>
      <point x="189" y="-230"/>
      <point x="202" y="-207"/>
      <point x="223" y="-191" type="curve" smooth="yes"/>
      <point x="244" y="-176"/>
      <point x="269" y="-169"/>
      <point x="350" y="-169" type="curve" smooth="yes"/>
      <point x="792" y="-169" type="line" smooth="yes"/>
      <point x="901" y="-169"/>
      <point x="972" y="-157"/>
      <point x="1028" y="-110" type="curve" smooth="yes"/>
      <point x="1067" y="-77"/>
      <point x="1091" y="-33"/>
      <point x="1091" y="31" type="curve" smooth="yes"/>
      <point x="1091" y="130"/>
      <point x="1023" y="195"/>
    </contour>
    <contour>
      <point x="294" y="-12" type="curve" smooth="yes"/>
      <point x="393" y="-12"/>
      <point x="471" y="7"/>
      <point x="520" y="61" type="curve" smooth="yes"/>
      <point x="553" y="98"/>
      <point x="571" y="146"/>
      <point x="571" y="240" type="curve" smooth="yes"/>
      <point x="571" y="455" type="line"/>
      <point x="762" y="455" type="line"/>
      <point x="762" y="562" type="line"/>
      <point x="143" y="562" type="line"/>
      <point x="143" y="286" type="line"/>
      <point x="277" y="302" type="line"/>
      <point x="277" y="455" type="line"/>
      <point x="428" y="455" type="line"/>
      <point x="428" y="238" type="line" smooth="yes"/>
      <point x="428" y="125"/>
      <point x="381" y="95"/>
      <point x="304" y="95" type="curve" smooth="yes"/>
      <point x="233" y="95"/>
      <point x="188" y="117"/>
      <point x="188" y="168" type="curve" smooth="yes"/>
      <point x="188" y="195"/>
      <point x="200" y="215"/>
      <point x="225" y="228" type="curve" smooth="yes"/>
      <point x="254" y="243"/>
      <point x="298" y="246"/>
      <point x="345" y="246" type="curve" smooth="yes"/>
      <point x="932" y="246" type="line"/>
      <point x="932" y="347" type="line"/>
      <point x="363" y="347" type="line" smooth="yes"/>
      <point x="133" y="347"/>
      <point x="41" y="274"/>
      <point x="41" y="165" type="curve" smooth="yes"/>
      <point x="41" y="51"/>
      <point x="144" y="-12"/>
    </contour>
    <contour>
      <point x="672" y="0" type="line"/>
      <point x="809" y="0" type="line"/>
      <point x="809" y="267" type="line"/>
      <point x="672" y="275" type="line"/>
    </contour>
  </outline>
</glyph>
<glyph name="monthsigntamil" format="2">
  <advance width="1383"/>
  <unicode hex="0BF4"/>
  <outline>
    <contour>
      <point x="623" y="574" type="curve" smooth="yes"/>
      <point x="554" y="574"/>
      <point x="501" y="556"/>
      <point x="465" y="521" type="curve" smooth="yes"/>
      <point x="430" y="486"/>
      <point x="412" y="438"/>
      <point x="412" y="355" type="curve" smooth="yes"/>
      <point x="412" y="107" type="line"/>
      <point x="228" y="107" type="line"/>
      <point x="228" y="562" type="line"/>
      <point x="79" y="562" type="line"/>
      <point x="79" y="0" type="line"/>
      <point x="554" y="0" type="line" smooth="yes"/>
      <point x="693" y="0"/>
      <point x="759" y="14"/>
      <point x="814" y="60" type="curve" smooth="yes"/>
      <point x="865" y="103"/>
      <point x="887" y="169"/>
      <point x="887" y="270" type="curve" smooth="yes"/>
      <point x="887" y="444"/>
      <point x="808" y="574"/>
    </contour>
    <contour>
      <point x="633" y="467" type="curve" smooth="yes"/>
      <point x="711" y="467"/>
      <point x="738" y="379"/>
      <point x="738" y="270" type="curve" smooth="yes"/>
      <point x="738" y="149"/>
      <point x="705" y="107"/>
      <point x="599" y="107" type="curve" smooth="yes"/>
      <point x="561" y="107" type="line"/>
      <point x="561" y="340" type="line" smooth="yes"/>
      <point x="561" y="408"/>
      <point x="567" y="431"/>
      <point x="585" y="449" type="curve" smooth="yes"/>
      <point x="598" y="462"/>
      <point x="615" y="467"/>
    </contour>
    <contour>
      <point x="942" y="484" type="curve" smooth="yes"/>
      <point x="1012" y="484"/>
      <point x="1071" y="518"/>
      <point x="1071" y="603" type="curve" smooth="yes"/>
      <point x="1071" y="631"/>
      <point x="1063" y="659"/>
      <point x="1044" y="681" type="curve" smooth="yes"/>
      <point x="1022" y="705"/>
      <point x="990" y="721"/>
      <point x="919" y="721" type="curve" smooth="yes"/>
      <point x="844" y="721" type="line" smooth="yes"/>
      <point x="687" y="721"/>
      <point x="642" y="626"/>
      <point x="642" y="556" type="curve"/>
      <point x="748" y="521" type="line"/>
      <point x="748" y="549" type="line" smooth="yes"/>
      <point x="748" y="594"/>
      <point x="766" y="636"/>
      <point x="834" y="636" type="curve" smooth="yes"/>
      <point x="914" y="636" type="line" smooth="yes"/>
      <point x="955" y="636"/>
      <point x="963" y="628"/>
      <point x="971" y="621" type="curve" smooth="yes"/>
      <point x="977" y="615"/>
      <point x="980" y="607"/>
      <point x="980" y="598" type="curve" smooth="yes"/>
      <point x="980" y="575"/>
      <point x="962" y="565"/>
      <point x="942" y="565" type="curve" smooth="yes"/>
      <point x="907" y="565"/>
      <point x="893" y="588"/>
      <point x="893" y="621" type="curve" smooth="yes"/>
      <point x="893" y="640"/>
      <point x="895" y="658"/>
      <point x="898" y="676" type="curve"/>
      <point x="914" y="725"/>
      <point x="959" y="760"/>
      <point x="1025" y="760" type="curve" smooth="yes"/>
      <point x="1105" y="760"/>
      <point x="1143" y="717"/>
      <point x="1143" y="652" type="curve" smooth="yes"/>
      <point x="1143" y="600"/>
      <point x="1130" y="571"/>
      <point x="1114" y="544" type="curve"/>
      <point x="1114" y="488" type="line"/>
      <point x="1367" y="488" type="line"/>
      <point x="1367" y="579" type="line"/>
      <point x="1208" y="579" type="line"/>
      <point x="1230" y="561" type="line"/>
      <point x="1243" y="584"/>
      <point x="1255" y="628"/>
      <point x="1255" y="668" type="curve" smooth="yes"/>
      <point x="1255" y="776"/>
      <point x="1182" y="851"/>
      <point x="1038" y="851" type="curve" smooth="yes"/>
      <point x="919" y="851"/>
      <point x="830" y="792"/>
      <point x="800" y="690" type="curve"/>
      <point x="796" y="673"/>
      <point x="794" y="652"/>
      <point x="794" y="632" type="curve" smooth="yes"/>
      <point x="794" y="536"/>
      <point x="854" y="484"/>
    </contour>
  </outline>
</glyph>
<glyph name="yearsigntamil" format="2">
  <advance width="2544"/>
  <unicode hex="0BF5"/>
  <outline>
    <contour>
      <point x="1090" y="741" type="curve" smooth="yes"/>
      <point x="1337" y="740"/>
      <point x="1639" y="740"/>
      <point x="1826" y="605" type="curve" smooth="yes"/>
      <point x="1934" y="527"/>
      <point x="1972" y="418"/>
      <point x="1998" y="228" type="curve" smooth="yes"/>
      <point x="2009" y="149"/>
      <point x="2028" y="80"/>
      <point x="2080" y="35" type="curve" smooth="yes"/>
      <point x="2119" y="1"/>
      <point x="2170" y="-12"/>
      <point x="2239" y="-12" type="curve" smooth="yes"/>
      <point x="2414" y="-12"/>
      <point x="2492" y="97"/>
      <point x="2492" y="257" type="curve" smooth="yes"/>
      <point x="2492" y="385"/>
      <point x="2448" y="500"/>
      <point x="2357" y="610" type="curve"/>
      <point x="2234" y="537" type="line"/>
      <point x="2301" y="452"/>
      <point x="2343" y="344"/>
      <point x="2343" y="250" type="curve" smooth="yes"/>
      <point x="2343" y="131"/>
      <point x="2303" y="95"/>
      <point x="2241" y="95" type="curve" smooth="yes"/>
      <point x="2207" y="95"/>
      <point x="2187" y="104"/>
      <point x="2172" y="124" type="curve" smooth="yes"/>
      <point x="2151" y="152"/>
      <point x="2145" y="193"/>
      <point x="2135" y="281" type="curve" smooth="yes"/>
      <point x="2116" y="450"/>
      <point x="2068" y="586"/>
      <point x="1926" y="689" type="curve" smooth="yes"/>
      <point x="1724" y="835"/>
      <point x="1433" y="851"/>
      <point x="1138" y="851" type="curve" smooth="yes"/>
      <point x="1054" y="851" type="line" smooth="yes"/>
      <point x="476" y="851"/>
      <point x="55" y="689"/>
      <point x="55" y="268" type="curve" smooth="yes"/>
      <point x="55" y="259" type="line" smooth="yes"/>
      <point x="55" y="-219"/>
      <point x="539" y="-321"/>
      <point x="984" y="-321" type="curve" smooth="yes"/>
      <point x="1125" y="-321" type="line" smooth="yes"/>
      <point x="1449" y="-321"/>
      <point x="1908" y="-247"/>
      <point x="1908" y="99" type="curve" smooth="yes"/>
      <point x="1908" y="254"/>
      <point x="1821" y="335"/>
      <point x="1702" y="335" type="curve" smooth="yes"/>
      <point x="1663" y="335"/>
      <point x="1629" y="326"/>
      <point x="1602" y="313" type="curve"/>
      <point x="1602" y="455" type="line"/>
      <point x="1746" y="455" type="line"/>
      <point x="1746" y="562" type="line"/>
      <point x="1160" y="562" type="line"/>
      <point x="1160" y="0" type="line"/>
      <point x="1310" y="0" type="line"/>
      <point x="1310" y="455" type="line"/>
      <point x="1452" y="455" type="line"/>
      <point x="1452" y="0" type="line"/>
      <point x="1602" y="0" type="line"/>
      <point x="1602" y="209" type="line"/>
      <point x="1622" y="220"/>
      <point x="1644" y="228"/>
      <point x="1667" y="228" type="curve" smooth="yes"/>
      <point x="1726" y="228"/>
      <point x="1759" y="185"/>
      <point x="1759" y="111" type="curve" smooth="yes"/>
      <point x="1759" y="-136"/>
      <point x="1438" y="-211"/>
      <point x="1092" y="-211" type="curve" smooth="yes"/>
      <point x="1026" y="-211" type="line" smooth="yes"/>
      <point x="612" y="-211"/>
      <point x="204" y="-136"/>
      <point x="204" y="263" type="curve" smooth="yes"/>
      <point x="204" y="267" type="line" smooth="yes"/>
      <point x="204" y="609"/>
      <point x="522" y="741"/>
    </contour>
    <contour>
      <point x="570" y="-12" type="curve" smooth="yes"/>
      <point x="704" y="-12"/>
      <point x="775" y="59"/>
      <point x="775" y="174" type="curve" smooth="yes"/>
      <point x="775" y="285"/>
      <point x="702" y="347"/>
      <point x="595" y="347" type="curve" smooth="yes"/>
      <point x="511" y="347"/>
      <point x="450" y="311"/>
      <point x="401" y="264" type="curve"/>
      <point x="423" y="168" type="line"/>
      <point x="459" y="207"/>
      <point x="502" y="246"/>
      <point x="558" y="246" type="curve" smooth="yes"/>
      <point x="606" y="246"/>
      <point x="635" y="217"/>
      <point x="635" y="167" type="curve" smooth="yes"/>
      <point x="635" y="118"/>
      <point x="609" y="91"/>
      <point x="564" y="91" type="curve" smooth="yes"/>
      <point x="506" y="91"/>
      <point x="472" y="129"/>
      <point x="472" y="229" type="curve" smooth="yes"/>
      <point x="472" y="358"/>
      <point x="549" y="465"/>
      <point x="686" y="465" type="curve" smooth="yes"/>
      <point x="815" y="465"/>
      <point x="884" y="393"/>
      <point x="884" y="267" type="curve" smooth="yes"/>
      <point x="884" y="190"/>
      <point x="864" y="126"/>
      <point x="839" y="81" type="curve"/>
      <point x="844" y="0" type="line"/>
      <point x="1246" y="0" type="line"/>
      <point x="1208" y="107" type="line"/>
      <point x="997" y="107" type="line"/>
      <point x="1018" y="159"/>
      <point x="1033" y="219"/>
      <point x="1033" y="284" type="curve" smooth="yes"/>
      <point x="1033" y="437"/>
      <point x="942" y="574"/>
      <point x="697" y="574" type="curve" smooth="yes"/>
      <point x="494" y="574"/>
      <point x="340" y="456"/>
      <point x="340" y="241" type="curve" smooth="yes"/>
      <point x="340" y="72"/>
      <point x="432" y="-12"/>
    </contour>
  </outline>
</glyph>
<glyph name="debitsigntamil" format="2">
  <advance width="1118"/>
  <unicode hex="0BF6"/>
  <outline>
    <contour>
      <point x="287" y="-321" type="curve" smooth="yes"/>
      <point x="461" y="-321"/>
      <point x="615" y="-266"/>
      <point x="692" y="-147" type="curve"/>
      <point x="719" y="-85" type="line"/>
      <point x="732" y="-46"/>
      <point x="740" y="-3"/>
      <point x="740" y="46" type="curve" smooth="yes"/>
      <point x="740" y="119" type="line"/>
      <point x="591" y="84" type="line"/>
      <point x="591" y="24" type="line" smooth="yes"/>
      <point x="591" y="-18"/>
      <point x="584" y="-56"/>
      <point x="568" y="-88" type="curve"/>
      <point x="548" y="-143" type="line"/>
      <point x="499" y="-194"/>
      <point x="418" y="-222"/>
      <point x="287" y="-222" type="curve" smooth="yes"/>
      <point x="207" y="-222"/>
      <point x="167" y="-203"/>
      <point x="167" y="-176" type="curve" smooth="yes"/>
      <point x="167" y="-162"/>
      <point x="178" y="-159"/>
      <point x="201" y="-159" type="curve" smooth="yes"/>
      <point x="576" y="-159" type="line"/>
      <point x="638" y="-169" type="line"/>
      <point x="1038" y="-169" type="line"/>
      <point x="1038" y="562" type="line"/>
      <point x="889" y="562" type="line"/>
      <point x="889" y="-62" type="line"/>
      <point x="190" y="-62" type="line" smooth="yes"/>
      <point x="114" y="-62"/>
      <point x="91" y="-69"/>
      <point x="69" y="-83" type="curve" smooth="yes"/>
      <point x="45" y="-99"/>
      <point x="32" y="-124"/>
      <point x="32" y="-157" type="curve" smooth="yes"/>
      <point x="32" y="-271"/>
      <point x="154" y="-321"/>
    </contour>
    <contour>
      <point x="626" y="0" type="line"/>
      <point x="626" y="107" type="line"/>
      <point x="228" y="107" type="line"/>
      <point x="228" y="562" type="line"/>
      <point x="79" y="562" type="line"/>
      <point x="79" y="0" type="line"/>
    </contour>
    <contour>
      <point x="740" y="562" type="line"/>
      <point x="591" y="562" type="line"/>
      <point x="591" y="58" type="line"/>
      <point x="740" y="89" type="line"/>
    </contour>
  </outline>
</glyph>
<glyph name="creditsigntamil" format="2">
  <advance width="1516"/>
  <unicode hex="0BF7"/>
  <outline>
    <contour>
      <point x="275" y="-12" type="curve" smooth="yes"/>
      <point x="411" y="-12"/>
      <point x="480" y="59"/>
      <point x="480" y="174" type="curve" smooth="yes"/>
      <point x="480" y="285"/>
      <point x="408" y="347"/>
      <point x="300" y="347" type="curve" smooth="yes"/>
      <point x="216" y="347"/>
      <point x="155" y="311"/>
      <point x="106" y="264" type="curve"/>
      <point x="128" y="168" type="line"/>
      <point x="164" y="207"/>
      <point x="207" y="246"/>
      <point x="263" y="246" type="curve" smooth="yes"/>
      <point x="311" y="246"/>
      <point x="340" y="216"/>
      <point x="340" y="167" type="curve" smooth="yes"/>
      <point x="340" y="118"/>
      <point x="314" y="91"/>
      <point x="269" y="91" type="curve" smooth="yes"/>
      <point x="211" y="91"/>
      <point x="177" y="129"/>
      <point x="177" y="224" type="curve" smooth="yes"/>
      <point x="177" y="317"/>
      <point x="209" y="377"/>
      <point x="264" y="414" type="curve" smooth="yes"/>
      <point x="305" y="441"/>
      <point x="352" y="455"/>
      <point x="448" y="455" type="curve" smooth="yes"/>
      <point x="534" y="455" type="line"/>
      <point x="531" y="562" type="line"/>
      <point x="509" y="562" type="line" smooth="yes"/>
      <point x="340" y="562"/>
      <point x="253" y="546"/>
      <point x="179" y="500" type="curve" smooth="yes"/>
      <point x="92" y="446"/>
      <point x="45" y="358"/>
      <point x="45" y="235" type="curve" smooth="yes"/>
      <point x="45" y="72"/>
      <point x="137" y="-12"/>
    </contour>
    <contour>
      <point x="569" y="0" type="line"/>
      <point x="718" y="0" type="line"/>
      <point x="718" y="455" type="line"/>
      <point x="861" y="455" type="line"/>
      <point x="861" y="562" type="line"/>
      <point x="523" y="562" type="line"/>
      <point x="513" y="455" type="line"/>
      <point x="569" y="455" type="line"/>
    </contour>
    <contour>
      <point x="929" y="-4" type="curve" smooth="yes"/>
      <point x="999" y="-4"/>
      <point x="1058" y="30"/>
      <point x="1058" y="115" type="curve" smooth="yes"/>
      <point x="1058" y="144"/>
      <point x="1050" y="171"/>
      <point x="1031" y="193" type="curve" smooth="yes"/>
      <point x="1009" y="217"/>
      <point x="973" y="233"/>
      <point x="912" y="233" type="curve" smooth="yes"/>
      <point x="694" y="233" type="line"/>
      <point x="709" y="147" type="line"/>
      <point x="904" y="147" type="line" smooth="yes"/>
      <point x="928" y="147"/>
      <point x="942" y="144"/>
      <point x="952" y="138" type="curve" smooth="yes"/>
      <point x="962" y="132"/>
      <point x="967" y="124"/>
      <point x="967" y="110" type="curve" smooth="yes"/>
      <point x="967" y="87"/>
      <point x="950" y="77"/>
      <point x="930" y="77" type="curve" smooth="yes"/>
      <point x="895" y="77"/>
      <point x="881" y="101"/>
      <point x="881" y="133" type="curve" smooth="yes"/>
      <point x="881" y="152"/>
      <point x="883" y="170"/>
      <point x="886" y="188" type="curve"/>
      <point x="903" y="236"/>
      <point x="947" y="271"/>
      <point x="1012" y="271" type="curve" smooth="yes"/>
      <point x="1092" y="271"/>
      <point x="1130" y="231"/>
      <point x="1130" y="158" type="curve" smooth="yes"/>
      <point x="1130" y="112"/>
      <point x="1116" y="80"/>
      <point x="1100" y="53" type="curve"/>
      <point x="1100" y="0" type="line"/>
      <point x="1353" y="0" type="line"/>
      <point x="1353" y="90" type="line"/>
      <point x="1194" y="90" type="line"/>
      <point x="1217" y="73" type="line"/>
      <point x="1230" y="96"/>
      <point x="1242" y="140"/>
      <point x="1242" y="180" type="curve" smooth="yes"/>
      <point x="1242" y="289"/>
      <point x="1168" y="363"/>
      <point x="1024" y="363" type="curve" smooth="yes"/>
      <point x="906" y="363"/>
      <point x="817" y="304"/>
      <point x="787" y="203" type="curve"/>
      <point x="783" y="185"/>
      <point x="781" y="164"/>
      <point x="781" y="143" type="curve" smooth="yes"/>
      <point x="781" y="47"/>
      <point x="840" y="-4"/>
    </contour>
    <contour>
      <point x="1348" y="0" type="line"/>
      <point x="1455" y="0" type="line"/>
      <point x="1455" y="357" type="line"/>
      <point x="1348" y="357" type="line"/>
    </contour>
  </outline>
</glyph>
<glyph name="asabovesigntamil" format="2">
  <advance width="2206"/>
  <unicode hex="0BF8"/>
  <outline>
    <contour>
      <point x="411" y="-12" type="curve" smooth="yes"/>
      <point x="567" y="-12"/>
      <point x="665" y="55"/>
      <point x="665" y="190" type="curve" smooth="yes"/>
      <point x="665" y="290"/>
      <point x="601" y="374"/>
      <point x="461" y="374" type="curve" smooth="yes"/>
      <point x="320" y="374"/>
      <point x="255" y="298"/>
      <point x="255" y="195" type="curve" smooth="yes"/>
      <point x="255" y="136"/>
      <point x="284" y="91"/>
      <point x="302" y="67" type="curve"/>
      <point x="424" y="67" type="line"/>
      <point x="399" y="91"/>
      <point x="379" y="137"/>
      <point x="379" y="188" type="curve" smooth="yes"/>
      <point x="379" y="245"/>
      <point x="413" y="271"/>
      <point x="453" y="271" type="curve" smooth="yes"/>
      <point x="504" y="271"/>
      <point x="525" y="230"/>
      <point x="525" y="187" type="curve" smooth="yes"/>
      <point x="525" y="138"/>
      <point x="502" y="91"/>
      <point x="428" y="91" type="curve" smooth="yes"/>
      <point x="405" y="91"/>
      <point x="383" y="93"/>
      <point x="363" y="97" type="curve"/>
      <point x="330" y="95" type="line"/>
      <point x="251" y="119"/>
      <point x="196" y="215"/>
      <point x="196" y="379" type="curve" smooth="yes"/>
      <point x="196" y="633"/>
      <point x="375" y="740"/>
      <point x="588" y="740" type="curve" smooth="yes"/>
      <point x="747" y="740"/>
      <point x="909" y="662"/>
      <point x="973" y="518" type="curve"/>
      <point x="986" y="486" type="line"/>
      <point x="1007" y="435"/>
      <point x="1020" y="376"/>
      <point x="1020" y="310" type="curve" smooth="yes"/>
      <point x="1020" y="214"/>
      <point x="987" y="183"/>
      <point x="941" y="183" type="curve" smooth="yes"/>
      <point x="892" y="183"/>
      <point x="864" y="222"/>
      <point x="864" y="286" type="curve" smooth="yes"/>
      <point x="864" y="388"/>
      <point x="937" y="467"/>
      <point x="1076" y="467" type="curve"/>
      <point x="1100" y="468" type="line"/>
      <point x="1207" y="459"/>
      <point x="1267" y="388"/>
      <point x="1267" y="266" type="curve" smooth="yes"/>
      <point x="1267" y="189"/>
      <point x="1247" y="126"/>
      <point x="1222" y="81" type="curve"/>
      <point x="1227" y="0" type="line"/>
      <point x="1565" y="0" type="line"/>
      <point x="1592" y="107" type="line"/>
      <point x="1379" y="107" type="line"/>
      <point x="1400" y="159"/>
      <point x="1416" y="219"/>
      <point x="1416" y="284" type="curve" smooth="yes"/>
      <point x="1416" y="442"/>
      <point x="1325" y="574"/>
      <point x="1089" y="574" type="curve" smooth="yes"/>
      <point x="1058" y="574"/>
      <point x="1032" y="571"/>
      <point x="1008" y="568" type="curve"/>
      <point x="837" y="539"/>
      <point x="723" y="438"/>
      <point x="723" y="288" type="curve" smooth="yes"/>
      <point x="723" y="144"/>
      <point x="817" y="76"/>
      <point x="947" y="76" type="curve" smooth="yes"/>
      <point x="1091" y="76"/>
      <point x="1161" y="162"/>
      <point x="1161" y="311" type="curve" smooth="yes"/>
      <point x="1161" y="381"/>
      <point x="1143" y="449"/>
      <point x="1122" y="507" type="curve"/>
      <point x="1112" y="541" type="line"/>
      <point x="1019" y="749"/>
      <point x="825" y="851"/>
      <point x="588" y="851" type="curve" smooth="yes"/>
      <point x="262" y="851"/>
      <point x="54" y="673"/>
      <point x="54" y="380" type="curve" smooth="yes"/>
      <point x="54" y="145"/>
      <point x="187" y="-12"/>
    </contour>
    <contour>
      <point x="1710" y="574" type="curve" smooth="yes"/>
      <point x="1571" y="574"/>
      <point x="1504" y="481"/>
      <point x="1504" y="389" type="curve" smooth="yes"/>
      <point x="1504" y="272"/>
      <point x="1584" y="185"/>
      <point x="1783" y="185" type="curve" smooth="yes"/>
      <point x="1811" y="185" type="line"/>
      <point x="1908" y="185"/>
      <point x="1987" y="211"/>
      <point x="2020" y="233" type="curve"/>
      <point x="2019" y="213"/>
      <point x="2018" y="183"/>
      <point x="2018" y="163" type="curve" smooth="yes"/>
      <point x="2018" y="107" type="line"/>
      <point x="1497" y="107" type="line"/>
      <point x="1498" y="0" type="line"/>
      <point x="2146" y="0" type="line"/>
      <point x="2146" y="347" type="line"/>
      <point x="2017" y="347" type="line"/>
      <point x="1964" y="310"/>
      <point x="1912" y="289"/>
      <point x="1844" y="289" type="curve"/>
      <point x="1779" y="289" type="line"/>
      <point x="1688" y="289"/>
      <point x="1639" y="318"/>
      <point x="1639" y="383" type="curve" smooth="yes"/>
      <point x="1639" y="431"/>
      <point x="1662" y="469"/>
      <point x="1711" y="469" type="curve" smooth="yes"/>
      <point x="1751" y="469"/>
      <point x="1765" y="443"/>
      <point x="1765" y="402" type="curve" smooth="yes"/>
      <point x="1765" y="362"/>
      <point x="1757" y="311"/>
      <point x="1740" y="248" type="curve" smooth="yes"/>
      <point x="1695" y="79" type="line"/>
      <point x="1692" y="48" type="line"/>
      <point x="1609" y="-248" type="line"/>
      <point x="1745" y="-284" type="line"/>
      <point x="1872" y="209" type="line"/>
      <point x="1881" y="249" type="line"/>
      <point x="1899" y="329"/>
      <point x="1904" y="369"/>
      <point x="1904" y="408" type="curve" smooth="yes"/>
      <point x="1904" y="477"/>
      <point x="1866" y="574"/>
    </contour>
  </outline>
</glyph>
<glyph name="rupeesigntamil" format="2">
  <advance width="1174"/>
  <unicode hex="0BF9"/>
  <outline>
    <contour>
      <point x="921" y="287" type="curve" smooth="yes"/>
      <point x="850" y="287"/>
      <point x="798" y="258"/>
      <point x="763" y="231" type="curve"/>
      <point x="768" y="121" type="line"/>
      <point x="810" y="160"/>
      <point x="845" y="180"/>
      <point x="885" y="180" type="curve" smooth="yes"/>
      <point x="949" y="180"/>
      <point x="984" y="141"/>
      <point x="984" y="54" type="curve" smooth="yes"/>
      <point x="984" y="-123"/>
      <point x="841" y="-211"/>
      <point x="624" y="-211" type="curve" smooth="yes"/>
      <point x="602" y="-211" type="line" smooth="yes"/>
      <point x="320" y="-211"/>
      <point x="197" y="-48"/>
      <point x="197" y="186" type="curve" smooth="yes"/>
      <point x="197" y="207" type="line" smooth="yes"/>
      <point x="197" y="443"/>
      <point x="320" y="593"/>
      <point x="472" y="652" type="curve"/>
      <point x="439" y="746" type="line"/>
      <point x="204" y="668"/>
      <point x="55" y="469"/>
      <point x="55" y="209" type="curve" smooth="yes"/>
      <point x="55" y="180" type="line" smooth="yes"/>
      <point x="55" y="-134"/>
      <point x="262" y="-321"/>
      <point x="602" y="-321" type="curve" smooth="yes"/>
      <point x="616" y="-321" type="line" smooth="yes"/>
      <point x="907" y="-321"/>
      <point x="1133" y="-202"/>
      <point x="1133" y="61" type="curve" smooth="yes"/>
      <point x="1133" y="213"/>
      <point x="1044" y="287"/>
    </contour>
    <contour>
      <point x="371" y="0" type="line"/>
      <point x="520" y="0" type="line"/>
      <point x="520" y="379" type="line"/>
      <point x="669" y="379" type="line"/>
      <point x="669" y="0" type="line"/>
      <point x="818" y="0" type="line"/>
      <point x="818" y="379" type="line"/>
      <point x="962" y="379" type="line"/>
      <point x="962" y="486" type="line"/>
      <point x="371" y="486" type="line"/>
    </contour>
    <contour>
      <point x="531" y="521" type="curve" smooth="yes"/>
      <point x="601" y="521"/>
      <point x="659" y="552"/>
      <point x="659" y="635" type="curve" smooth="yes"/>
      <point x="659" y="694"/>
      <point x="616" y="749"/>
      <point x="531" y="749" type="curve" smooth="yes"/>
      <point x="515" y="749"/>
      <point x="498" y="745"/>
      <point x="483" y="740" type="curve"/>
      <point x="477" y="657" type="line"/>
      <point x="491" y="663"/>
      <point x="508" y="669"/>
      <point x="526" y="669" type="curve" smooth="yes"/>
      <point x="552" y="669"/>
      <point x="568" y="656"/>
      <point x="568" y="635" type="curve" smooth="yes"/>
      <point x="568" y="613"/>
      <point x="551" y="602"/>
      <point x="531" y="602" type="curve" smooth="yes"/>
      <point x="496" y="602"/>
      <point x="481" y="626"/>
      <point x="481" y="659" type="curve" smooth="yes"/>
      <point x="481" y="667"/>
      <point x="482" y="676"/>
      <point x="483" y="686" type="curve"/>
      <point x="491" y="720" type="line"/>
      <point x="511" y="737"/>
      <point x="558" y="761"/>
      <point x="617" y="761" type="curve" smooth="yes"/>
      <point x="694" y="761"/>
      <point x="732" y="727"/>
      <point x="732" y="666" type="curve" smooth="yes"/>
      <point x="732" y="627"/>
      <point x="718" y="601"/>
      <point x="702" y="578" type="curve"/>
      <point x="702" y="525" type="line"/>
      <point x="955" y="525" type="line"/>
      <point x="955" y="616" type="line"/>
      <point x="795" y="616" type="line"/>
      <point x="818" y="598" type="line"/>
      <point x="833" y="623"/>
      <point x="843" y="666"/>
      <point x="843" y="692" type="curve" smooth="yes"/>
      <point x="843" y="786"/>
      <point x="771" y="851"/>
      <point x="633" y="851" type="curve" smooth="yes"/>
      <point x="489" y="851"/>
      <point x="394" y="779"/>
      <point x="388" y="663" type="curve"/>
      <point x="388" y="576"/>
      <point x="444" y="521"/>
    </contour>
  </outline>
</glyph>
<glyph name="numsigntamil" format="2">
  <advance width="1305"/>
  <unicode hex="0BFA"/>
  <outline>
    <contour>
      <point x="637" y="362" type="curve" smooth="yes"/>
      <point x="586" y="362"/>
      <point x="545" y="348"/>
      <point x="512" y="329" type="curve"/>
      <point x="514" y="223" type="line"/>
      <point x="541" y="243"/>
      <point x="566" y="255"/>
      <point x="603" y="255" type="curve" smooth="yes"/>
      <point x="666" y="255"/>
      <point x="703" y="214"/>
      <point x="703" y="125" type="curve" smooth="yes"/>
      <point x="703" y="64"/>
      <point x="685" y="20"/>
      <point x="661" y="-4" type="curve" smooth="yes"/>
      <point x="618" y="-47"/>
      <point x="565" y="-62"/>
      <point x="420" y="-62" type="curve" smooth="yes"/>
      <point x="305" y="-62" type="line" smooth="yes"/>
      <point x="194" y="-62"/>
      <point x="146" y="-74"/>
      <point x="106" y="-102" type="curve" smooth="yes"/>
      <point x="66" y="-130"/>
      <point x="40" y="-175"/>
      <point x="40" y="-235" type="curve" smooth="yes"/>
      <point x="40" y="-267"/>
      <point x="42" y="-293"/>
      <point x="46" y="-321" type="curve"/>
      <point x="192" y="-314" type="line"/>
      <point x="190" y="-300"/>
      <point x="189" y="-287"/>
      <point x="189" y="-272" type="curve" smooth="yes"/>
      <point x="189" y="-230"/>
      <point x="202" y="-207"/>
      <point x="223" y="-191" type="curve" smooth="yes"/>
      <point x="244" y="-176"/>
      <point x="269" y="-169"/>
      <point x="350" y="-169" type="curve" smooth="yes"/>
      <point x="439" y="-169" type="line" smooth="yes"/>
      <point x="580" y="-169"/>
      <point x="675" y="-152"/>
      <point x="743" y="-105" type="curve" smooth="yes"/>
      <point x="806" y="-62"/>
      <point x="849" y="11"/>
      <point x="849" y="128" type="curve" smooth="yes"/>
      <point x="849" y="282"/>
      <point x="764" y="362"/>
    </contour>
    <contour>
      <point x="79" y="0" type="line"/>
      <point x="228" y="0" type="line"/>
      <point x="228" y="455" type="line"/>
      <point x="377" y="455" type="line"/>
      <point x="377" y="0" type="line"/>
      <point x="526" y="0" type="line"/>
      <point x="526" y="455" type="line"/>
      <point x="670" y="455" type="line"/>
      <point x="670" y="562" type="line"/>
      <point x="79" y="562" type="line"/>
    </contour>
    <contour>
      <point x="864" y="484" type="curve" smooth="yes"/>
      <point x="934" y="484"/>
      <point x="993" y="518"/>
      <point x="993" y="603" type="curve" smooth="yes"/>
      <point x="993" y="631"/>
      <point x="985" y="659"/>
      <point x="966" y="681" type="curve" smooth="yes"/>
      <point x="944" y="705"/>
      <point x="912" y="721"/>
      <point x="841" y="721" type="curve" smooth="yes"/>
      <point x="766" y="721" type="line" smooth="yes"/>
      <point x="609" y="721"/>
      <point x="564" y="626"/>
      <point x="564" y="556" type="curve"/>
      <point x="670" y="543" type="line"/>
      <point x="670" y="549" type="line"/>
      <point x="670" y="594"/>
      <point x="688" y="636"/>
      <point x="756" y="636" type="curve" smooth="yes"/>
      <point x="836" y="636" type="line" smooth="yes"/>
      <point x="877" y="636"/>
      <point x="885" y="628"/>
      <point x="893" y="621" type="curve" smooth="yes"/>
      <point x="899" y="615"/>
      <point x="902" y="607"/>
      <point x="902" y="598" type="curve" smooth="yes"/>
      <point x="902" y="575"/>
      <point x="884" y="565"/>
      <point x="864" y="565" type="curve" smooth="yes"/>
      <point x="829" y="565"/>
      <point x="815" y="588"/>
      <point x="815" y="621" type="curve" smooth="yes"/>
      <point x="815" y="640"/>
      <point x="817" y="658"/>
      <point x="820" y="676" type="curve"/>
      <point x="836" y="725"/>
      <point x="881" y="760"/>
      <point x="947" y="760" type="curve" smooth="yes"/>
      <point x="1027" y="760"/>
      <point x="1065" y="717"/>
      <point x="1065" y="652" type="curve" smooth="yes"/>
      <point x="1065" y="600"/>
      <point x="1052" y="571"/>
      <point x="1036" y="544" type="curve"/>
      <point x="1036" y="488" type="line"/>
      <point x="1289" y="488" type="line"/>
      <point x="1289" y="579" type="line"/>
      <point x="1130" y="579" type="line"/>
      <point x="1152" y="561" type="line"/>
      <point x="1165" y="584"/>
      <point x="1177" y="628"/>
      <point x="1177" y="668" type="curve" smooth="yes"/>
      <point x="1177" y="776"/>
      <point x="1104" y="851"/>
      <point x="960" y="851" type="curve" smooth="yes"/>
      <point x="841" y="851"/>
      <point x="752" y="792"/>
      <point x="722" y="690" type="curve"/>
      <point x="718" y="673"/>
      <point x="716" y="652"/>
      <point x="716" y="632" type="curve" smooth="yes"/>
      <point x="716" y="536"/>
      <point x="776" y="484"/>
    </contour>
  </outline>
</glyph>
<glyph name="uni1CDA" format="2">
  <unicode hex="1CDA"/>
  <outline>
    <contour>
      <point x="-395" y="870" type="line"/>
      <point x="-395" y="654" type="line"/>
      <point x="-304" y="654" type="line"/>
      <point x="-304" y="870" type="line"/>
    </contour>
    <contour>
      <point x="-252" y="870" type="line"/>
      <point x="-252" y="654" type="line"/>
      <point x="-161" y="654" type="line"/>
      <point x="-161" y="870" type="line"/>
    </contour>
  </outline>
</glyph>
<glyph name="uni200C" format="2">
  <unicode hex="200C"/>
  <outline>
    <contour>
      <point x="-29" y="-244" type="line"/>
      <point x="29" y="-244" type="line"/>
      <point x="29" y="753" type="line"/>
      <point x="-29" y="753" type="line"/>
    </contour>
  </outline>
</glyph>
<glyph name="uni200D" format="2">
  <unicode hex="200D"/>
  <outline>
    <contour>
      <point x="-29" y="-244" type="line"/>
      <point x="29" y="-244" type="line"/>
      <point x="29" y="565" type="line"/>
      <point x="121" y="474" type="line"/>
      <point x="161" y="514" type="line"/>
      <point x="40" y="631" type="line"/>
      <point x="161" y="748" type="line"/>
      <point x="121" y="788" type="line"/>
      <point x="0" y="669" type="line"/>
      <point x="-121" y="788" type="line"/>
      <point x="-161" y="748" type="line"/>
      <point x="-40" y="631" type="line"/>
      <point x="-161" y="514" type="line"/>
      <point x="-121" y="474" type="line"/>
      <point x="-29" y="565" type="line"/>
    </contour>
  </outline>
</glyph>
<glyph name="endash.tamil" format="2">
  <advance width="500"/>
  <unicode hex="2013"/>
  <outline>
    <contour>
      <point x="40" y="242" type="line"/>
      <point x="460" y="242" type="line"/>
      <point x="460" y="364" type="line"/>
      <point x="40" y="364" type="line"/>
    </contour>
  </outline>
</glyph>
<glyph name="quoteleft.tamil" format="2">
  <advance width="269"/>
  <unicode hex="2018"/>
  <outline>
    <contour>
      <point x="45" y="555" type="line"/>
      <point x="182" y="555" type="line"/>
      <point x="192" y="624"/>
      <point x="212" y="721"/>
      <point x="231" y="800" type="curve"/>
      <point x="124" y="800" type="line"/>
      <point x="91" y="727"/>
      <point x="56" y="637"/>
      <point x="38" y="566" type="curve"/>
    </contour>
  </outline>
</glyph>
<glyph name="quoteright.tamil" format="2">
  <advance width="269"/>
  <unicode hex="2019"/>
  <outline>
    <contour>
      <point x="224" y="800" type="line"/>
      <point x="87" y="800" type="line"/>
      <point x="77" y="731"/>
      <point x="57" y="634"/>
      <point x="38" y="555" type="curve"/>
      <point x="145" y="555" type="line"/>
      <point x="178" y="628"/>
      <point x="213" y="718"/>
      <point x="231" y="789" type="curve"/>
    </contour>
  </outline>
</glyph>
<glyph name="quotedblleft.tamil" format="2">
  <advance width="497"/>
  <unicode hex="201C"/>
  <outline>
    <contour>
      <point x="273" y="556" type="line"/>
      <point x="410" y="556" type="line"/>
      <point x="420" y="625"/>
      <point x="440" y="721"/>
      <point x="459" y="800" type="curve"/>
      <point x="352" y="800" type="line"/>
      <point x="319" y="728"/>
      <point x="284" y="637"/>
      <point x="266" y="566" type="curve"/>
    </contour>
    <contour>
      <point x="45" y="556" type="line"/>
      <point x="182" y="556" type="line"/>
      <point x="192" y="625"/>
      <point x="212" y="721"/>
      <point x="231" y="800" type="curve"/>
      <point x="124" y="800" type="line"/>
      <point x="91" y="728"/>
      <point x="56" y="637"/>
      <point x="38" y="566" type="curve"/>
    </contour>
  </outline>
</glyph>
<glyph name="uni2074" format="2">
  <advance width="394"/>
  <unicode hex="2074"/>
  <outline>
    <contour>
      <point x="208" y="369" type="line"/>
      <point x="318" y="369" type="line"/>
      <point x="318" y="443" type="line"/>
      <point x="379" y="443" type="line"/>
      <point x="379" y="525" type="line"/>
      <point x="318" y="525" type="line"/>
      <point x="318" y="800" type="line"/>
      <point x="203" y="800" type="line"/>
      <point x="15" y="518" type="line"/>
      <point x="15" y="443" type="line"/>
      <point x="208" y="443" type="line"/>
    </contour>
    <contour>
      <point x="111" y="525" type="line"/>
      <point x="173" y="618" type="line" smooth="yes"/>
      <point x="185" y="636"/>
      <point x="204" y="668"/>
      <point x="211" y="686" type="curve"/>
      <point x="209" y="654"/>
      <point x="208" y="632"/>
      <point x="208" y="599" type="curve" smooth="yes"/>
      <point x="208" y="525" type="line"/>
    </contour>
  </outline>
</glyph>
<glyph name="uni20B9.tamil" format="2">
  <advance width="572"/>
  <unicode hex="20B9"/>
  <outline>
    <contour>
      <point x="234" y="0" type="line"/>
      <point x="407" y="0" type="line"/>
      <point x="196" y="277" type="line"/>
      <point x="197" y="257" type="line"/>
      <point x="317" y="287"/>
      <point x="375" y="357"/>
      <point x="375" y="477" type="curve" smooth="yes"/>
      <point x="375" y="538"/>
      <point x="356" y="583"/>
      <point x="329" y="608" type="curve"/>
      <point x="524" y="608" type="line"/>
      <point x="524" y="714" type="line"/>
      <point x="54" y="714" type="line"/>
      <point x="54" y="608" type="line"/>
      <point x="122" y="608" type="line" smooth="yes"/>
      <point x="164" y="608"/>
      <point x="187" y="602"/>
      <point x="205" y="584" type="curve" smooth="yes"/>
      <point x="224" y="565"/>
      <point x="236" y="533"/>
      <point x="236" y="483" type="curve" smooth="yes"/>
      <point x="236" y="440"/>
      <point x="228" y="408"/>
      <point x="209" y="386" type="curve" smooth="yes"/>
      <point x="191" y="364"/>
      <point x="168" y="354"/>
      <point x="107" y="354" type="curve" smooth="yes"/>
      <point x="73" y="354" type="line"/>
      <point x="54" y="252" type="line"/>
    </contour>
    <contour>
      <point x="54" y="432" type="line"/>
      <point x="524" y="432" type="line"/>
      <point x="524" y="538" type="line"/>
      <point x="54" y="538" type="line"/>
    </contour>
  </outline>
</glyph>
<glyph name="minus.tamil" format="2">
  <advance width="572"/>
  <unicode hex="2212"/>
  <outline>
    <contour>
      <point x="43" y="299" type="line"/>
      <point x="528" y="299" type="line"/>
      <point x="528" y="406" type="line"/>
      <point x="43" y="406" type="line"/>
    </contour>
  </outline>
</glyph>
<glyph name="uniA8F3" format="2">
  <advance width="540"/>
  <unicode hex="A8F3"/>
  <outline>
    <contour>
      <point x="270" y="279" type="curve" smooth="yes"/>
      <point x="433" y="279"/>
      <point x="510" y="365"/>
      <point x="510" y="474" type="curve" smooth="yes"/>
      <point x="510" y="502"/>
      <point x="505" y="533"/>
      <point x="497" y="550" type="curve"/>
      <point x="369" y="527" type="line"/>
      <point x="372" y="514"/>
      <point x="375" y="495"/>
      <point x="375" y="478" type="curve" smooth="yes"/>
      <point x="375" y="412"/>
      <point x="332" y="386"/>
      <point x="271" y="386" type="curve" smooth="yes"/>
      <point x="208" y="386"/>
      <point x="165" y="411"/>
      <point x="165" y="479" type="curve" smooth="yes"/>
      <point x="165" y="495"/>
      <point x="167" y="514"/>
      <point x="171" y="527" type="curve"/>
      <point x="43" y="550" type="line"/>
      <point x="35" y="533"/>
      <point x="30" y="502"/>
      <point x="30" y="474" type="curve" smooth="yes"/>
      <point x="30" y="365"/>
      <point x="104" y="279"/>
    </contour>
    <contour>
      <point x="270" y="413" type="curve" smooth="yes"/>
      <point x="308" y="413"/>
      <point x="335" y="440"/>
      <point x="335" y="479" type="curve" smooth="yes"/>
      <point x="335" y="517"/>
      <point x="308" y="544"/>
      <point x="270" y="544" type="curve" smooth="yes"/>
      <point x="231" y="544"/>
      <point x="205" y="517"/>
      <point x="205" y="479" type="curve" smooth="yes"/>
      <point x="205" y="440"/>
      <point x="232" y="413"/>
    </contour>
    <contour>
      <point x="483" y="95" type="line"/>
      <point x="228" y="262" type="line"/>
      <point x="157" y="167" type="line"/>
      <point x="412" y="0" type="line"/>
    </contour>
  </outline>
</glyph>
<glyph name="u11301" format="2">
  <unicode hex="11301"/>
  <outline>
    <contour>
      <point x="-278" y="651" type="curve" smooth="yes"/>
      <point x="-150" y="651"/>
      <point x="-83" y="714"/>
      <point x="-83" y="815" type="curve" smooth="yes"/>
      <point x="-83" y="836"/>
      <point x="-86" y="855"/>
      <point x="-90" y="870" type="curve"/>
      <point x="-183" y="853" type="line"/>
      <point x="-179" y="839"/>
      <point x="-178" y="829"/>
      <point x="-178" y="819" type="curve" smooth="yes"/>
      <point x="-178" y="752"/>
      <point x="-229" y="738"/>
      <point x="-278" y="738" type="curve" smooth="yes"/>
      <point x="-332" y="738"/>
      <point x="-378" y="754"/>
      <point x="-378" y="817" type="curve" smooth="yes"/>
      <point x="-378" y="828"/>
      <point x="-377" y="839"/>
      <point x="-373" y="853" type="curve"/>
      <point x="-465" y="870" type="line"/>
      <point x="-470" y="856"/>
      <point x="-473" y="839"/>
      <point x="-473" y="813" type="curve" smooth="yes"/>
      <point x="-473" y="714"/>
      <point x="-408" y="651"/>
    </contour>
    <contour>
      <point x="-279" y="763" type="curve" smooth="yes"/>
      <point x="-234" y="763"/>
      <point x="-217" y="784"/>
      <point x="-217" y="816" type="curve" smooth="yes"/>
      <point x="-217" y="846"/>
      <point x="-234" y="869"/>
      <point x="-279" y="869" type="curve" smooth="yes"/>
      <point x="-324" y="869"/>
      <point x="-340" y="846"/>
      <point x="-340" y="816" type="curve" smooth="yes"/>
      <point x="-340" y="784"/>
      <point x="-324" y="763"/>
    </contour>
  </outline>
</glyph>
<glyph name="u11303" format="2">
  <advance width="390"/>
  <unicode hex="11303"/>
  <outline>
    <contour>
      <point x="41" y="124" type="curve" smooth="yes"/>
      <point x="41" y="47"/>
      <point x="97" y="-12"/>
      <point x="194" y="-12" type="curve" smooth="yes"/>
      <point x="292" y="-12"/>
      <point x="349" y="47"/>
      <point x="349" y="124" type="curve" smooth="yes"/>
      <point x="349" y="201"/>
      <point x="291" y="260"/>
      <point x="194" y="260" type="curve" smooth="yes"/>
      <point x="98" y="260"/>
      <point x="41" y="201"/>
    </contour>
    <contour>
      <point x="143" y="125" type="curve" smooth="yes"/>
      <point x="143" y="152"/>
      <point x="161" y="174"/>
      <point x="194" y="174" type="curve" smooth="yes"/>
      <point x="229" y="174"/>
      <point x="247" y="152"/>
      <point x="247" y="125" type="curve" smooth="yes"/>
      <point x="247" y="96"/>
      <point x="230" y="74"/>
      <point x="194" y="74" type="curve" smooth="yes"/>
      <point x="159" y="74"/>
      <point x="143" y="96"/>
    </contour>
    <contour>
      <point x="41" y="438" type="curve" smooth="yes"/>
      <point x="41" y="361"/>
      <point x="97" y="303"/>
      <point x="194" y="303" type="curve" smooth="yes"/>
      <point x="292" y="303"/>
      <point x="349" y="361"/>
      <point x="349" y="438" type="curve" smooth="yes"/>
      <point x="349" y="516"/>
      <point x="291" y="574"/>
      <point x="194" y="574" type="curve" smooth="yes"/>
      <point x="98" y="574"/>
      <point x="41" y="515"/>
    </contour>
    <contour>
      <point x="143" y="439" type="curve" smooth="yes"/>
      <point x="143" y="467"/>
      <point x="161" y="488"/>
      <point x="194" y="488" type="curve" smooth="yes"/>
      <point x="229" y="488"/>
      <point x="247" y="467"/>
      <point x="247" y="439" type="curve" smooth="yes"/>
      <point x="247" y="411"/>
      <point x="230" y="389"/>
      <point x="194" y="389" type="curve" smooth="yes"/>
      <point x="159" y="389"/>
      <point x="143" y="411"/>
    </contour>
  </outline>
</glyph>
<glyph name="u1133B" format="2">
  <unicode hex="1133B"/>
  <outline>
    <contour>
      <point x="-282" y="-221" type="curve" smooth="yes"/>
      <point x="-237" y="-221"/>
      <point x="-205" y="-188"/>
      <point x="-205" y="-142" type="curve" smooth="yes"/>
      <point x="-205" y="-96"/>
      <point x="-237" y="-63"/>
      <point x="-282" y="-63" type="curve" smooth="yes"/>
      <point x="-328" y="-63"/>
      <point x="-360" y="-96"/>
      <point x="-360" y="-142" type="curve" smooth="yes"/>
      <point x="-360" y="-188"/>
      <point x="-328" y="-221"/>
    </contour>
  </outline>
</glyph>
<glyph name="u1133C" format="2">
  <unicode hex="1133C"/>
  <outline>
    <contour>
      <point x="-443" y="-142" type="curve" smooth="yes"/>
      <point x="-443" y="-185"/>
      <point x="-412" y="-216"/>
      <point x="-370" y="-216" type="curve" smooth="yes"/>
      <point x="-328" y="-216"/>
      <point x="-297" y="-185"/>
      <point x="-297" y="-142" type="curve" smooth="yes"/>
      <point x="-297" y="-100"/>
      <point x="-328" y="-68"/>
      <point x="-370" y="-68" type="curve" smooth="yes"/>
      <point x="-412" y="-68"/>
      <point x="-443" y="-100"/>
    </contour>
    <contour>
      <point x="-260" y="-142" type="curve" smooth="yes"/>
      <point x="-260" y="-185"/>
      <point x="-229" y="-216"/>
      <point x="-187" y="-216" type="curve" smooth="yes"/>
      <point x="-145" y="-216"/>
      <point x="-114" y="-185"/>
      <point x="-114" y="-142" type="curve" smooth="yes"/>
      <point x="-114" y="-100"/>
      <point x="-145" y="-68"/>
      <point x="-187" y="-68" type="curve" smooth="yes"/>
      <point x="-229" y="-68"/>
      <point x="-260" y="-100"/>
    </contour>
  </outline>
</glyph>
